<?xml version="1.0" encoding="utf-8" standalone="no"?>
<!DOCTYPE svg PUBLIC "-//W3C//DTD SVG 1.1//EN"
  "http://www.w3.org/Graphics/SVG/1.1/DTD/svg11.dtd">
<svg xmlns:xlink="http://www.w3.org/1999/xlink" width="721.179643pt" height="543.842483pt" viewBox="0 0 721.179643 543.842483" xmlns="http://www.w3.org/2000/svg" version="1.1">
 <metadata>
  <rdf:RDF xmlns:dc="http://purl.org/dc/elements/1.1/" xmlns:cc="http://creativecommons.org/ns#" xmlns:rdf="http://www.w3.org/1999/02/22-rdf-syntax-ns#">
   <cc:Work>
    <dc:type rdf:resource="http://purl.org/dc/dcmitype/StillImage"/>
    <dc:date>2026-07-05T20:59:42.143498</dc:date>
    <dc:format>image/svg+xml</dc:format>
    <dc:creator>
     <cc:Agent>
      <dc:title>Matplotlib v3.11.0, https://matplotlib.org/</dc:title>
     </cc:Agent>
    </dc:creator>
   </cc:Work>
  </rdf:RDF>
 </metadata>
 <defs>
  <style type="text/css">*{stroke-linejoin: round; stroke-linecap: butt}</style>
 </defs>
 <g id="figure_1">
  <g id="patch_1">
   <path d="M 0 543.842483 
L 721.179643 543.842483 
L 721.179643 0 
L 0 0 
z
" style="fill: #ffffff"/>
  </g>
  <g id="axes_1">
   <g id="patch_2">
    <path d="M 44.379643 506.16 
L 713.979643 506.16 
L 713.979643 7.2 
L 44.379643 7.2 
z
" style="fill: #ffffff"/>
   </g>
   <g id="patch_3">
    <path d="M 65.304643 506.16 
L 107.154643 506.16 
L 107.154643 506.16 
L 65.304643 506.16 
z
" clip-path="url(#p7520e032f4)" style="fill: #1f77b4"/>
   </g>
   <g id="patch_4">
    <path d="M 149.004643 506.16 
L 190.854643 506.16 
L 190.854643 506.16 
L 149.004643 506.16 
z
" clip-path="url(#p7520e032f4)" style="fill: #1f77b4"/>
   </g>
   <g id="patch_5">
    <path d="M 232.704643 506.16 
L 274.554643 506.16 
L 274.554643 506.16 
L 232.704643 506.16 
z
" clip-path="url(#p7520e032f4)" style="fill: #1f77b4"/>
   </g>
   <g id="patch_6">
    <path d="M 316.404643 506.16 
L 358.254643 506.16 
L 358.254643 506.16 
L 316.404643 506.16 
z
" clip-path="url(#p7520e032f4)" style="fill: #1f77b4"/>
   </g>
   <g id="patch_7">
    <path d="M 400.104643 506.16 
L 441.954643 506.16 
L 441.954643 506.16 
L 400.104643 506.16 
z
" clip-path="url(#p7520e032f4)" style="fill: #1f77b4"/>
   </g>
   <g id="patch_8">
    <path d="M 483.804643 506.16 
L 525.654643 506.16 
L 525.654643 506.16 
L 483.804643 506.16 
z
" clip-path="url(#p7520e032f4)" style="fill: #1f77b4"/>
   </g>
   <g id="patch_9">
    <path d="M 567.504643 506.16 
L 609.354643 506.16 
L 609.354643 503.113846 
L 567.504643 503.113846 
z
" clip-path="url(#p7520e032f4)" style="fill: #1f77b4"/>
   </g>
   <g id="patch_10">
    <path d="M 651.204643 506.16 
L 693.054643 506.16 
L 693.054643 503.113846 
L 651.204643 503.113846 
z
" clip-path="url(#p7520e032f4)" style="fill: #1f77b4"/>
   </g>
   <g id="patch_11">
    <path d="M 65.304643 506.16 
L 107.154643 506.16 
L 107.154643 503.113846 
L 65.304643 503.113846 
z
" clip-path="url(#p7520e032f4)" style="fill: #ff7f0e"/>
   </g>
   <g id="patch_12">
    <path d="M 149.004643 506.16 
L 190.854643 506.16 
L 190.854643 475.698462 
L 149.004643 475.698462 
z
" clip-path="url(#p7520e032f4)" style="fill: #ff7f0e"/>
   </g>
   <g id="patch_13">
    <path d="M 232.704643 506.16 
L 274.554643 506.16 
L 274.554643 448.283077 
L 232.704643 448.283077 
z
" clip-path="url(#p7520e032f4)" style="fill: #ff7f0e"/>
   </g>
   <g id="patch_14">
    <path d="M 316.404643 506.16 
L 358.254643 506.16 
L 358.254643 433.052308 
L 316.404643 433.052308 
z
" clip-path="url(#p7520e032f4)" style="fill: #ff7f0e"/>
   </g>
   <g id="patch_15">
    <path d="M 400.104643 506.16 
L 441.954643 506.16 
L 441.954643 417.821538 
L 400.104643 417.821538 
z
" clip-path="url(#p7520e032f4)" style="fill: #ff7f0e"/>
   </g>
   <g id="patch_16">
    <path d="M 483.804643 506.16 
L 525.654643 506.16 
L 525.654643 402.590769 
L 483.804643 402.590769 
z
" clip-path="url(#p7520e032f4)" style="fill: #ff7f0e"/>
   </g>
   <g id="patch_17">
    <path d="M 567.504643 503.113846 
L 609.354643 503.113846 
L 609.354643 375.175385 
L 567.504643 375.175385 
z
" clip-path="url(#p7520e032f4)" style="fill: #ff7f0e"/>
   </g>
   <g id="patch_18">
    <path d="M 651.204643 503.113846 
L 693.054643 503.113846 
L 693.054643 356.898462 
L 651.204643 356.898462 
z
" clip-path="url(#p7520e032f4)" style="fill: #ff7f0e"/>
   </g>
   <g id="patch_19">
    <path d="M 65.304643 503.113846 
L 107.154643 503.113846 
L 107.154643 503.113846 
L 65.304643 503.113846 
z
" clip-path="url(#p7520e032f4)" style="fill: #2ca02c"/>
   </g>
   <g id="patch_20">
    <path d="M 149.004643 475.698462 
L 190.854643 475.698462 
L 190.854643 475.698462 
L 149.004643 475.698462 
z
" clip-path="url(#p7520e032f4)" style="fill: #2ca02c"/>
   </g>
   <g id="patch_21">
    <path d="M 232.704643 448.283077 
L 274.554643 448.283077 
L 274.554643 448.283077 
L 232.704643 448.283077 
z
" clip-path="url(#p7520e032f4)" style="fill: #2ca02c"/>
   </g>
   <g id="patch_22">
    <path d="M 316.404643 433.052308 
L 358.254643 433.052308 
L 358.254643 433.052308 
L 316.404643 433.052308 
z
" clip-path="url(#p7520e032f4)" style="fill: #2ca02c"/>
   </g>
   <g id="patch_23">
    <path d="M 400.104643 417.821538 
L 441.954643 417.821538 
L 441.954643 417.821538 
L 400.104643 417.821538 
z
" clip-path="url(#p7520e032f4)" style="fill: #2ca02c"/>
   </g>
   <g id="patch_24">
    <path d="M 483.804643 402.590769 
L 525.654643 402.590769 
L 525.654643 402.590769 
L 483.804643 402.590769 
z
" clip-path="url(#p7520e032f4)" style="fill: #2ca02c"/>
   </g>
   <g id="patch_25">
    <path d="M 567.504643 375.175385 
L 609.354643 375.175385 
L 609.354643 372.129231 
L 567.504643 372.129231 
z
" clip-path="url(#p7520e032f4)" style="fill: #2ca02c"/>
   </g>
   <g id="patch_26">
    <path d="M 651.204643 356.898462 
L 693.054643 356.898462 
L 693.054643 353.852308 
L 651.204643 353.852308 
z
" clip-path="url(#p7520e032f4)" style="fill: #2ca02c"/>
   </g>
   <g id="patch_27">
    <path d="M 65.304643 503.113846 
L 107.154643 503.113846 
L 107.154643 500.067692 
L 65.304643 500.067692 
z
" clip-path="url(#p7520e032f4)" style="fill: #d62728"/>
   </g>
   <g id="patch_28">
    <path d="M 149.004643 475.698462 
L 190.854643 475.698462 
L 190.854643 472.652308 
L 149.004643 472.652308 
z
" clip-path="url(#p7520e032f4)" style="fill: #d62728"/>
   </g>
   <g id="patch_29">
    <path d="M 232.704643 448.283077 
L 274.554643 448.283077 
L 274.554643 445.236923 
L 232.704643 445.236923 
z
" clip-path="url(#p7520e032f4)" style="fill: #d62728"/>
   </g>
   <g id="patch_30">
    <path d="M 316.404643 433.052308 
L 358.254643 433.052308 
L 358.254643 430.006154 
L 316.404643 430.006154 
z
" clip-path="url(#p7520e032f4)" style="fill: #d62728"/>
   </g>
   <g id="patch_31">
    <path d="M 400.104643 417.821538 
L 441.954643 417.821538 
L 441.954643 405.636923 
L 400.104643 405.636923 
z
" clip-path="url(#p7520e032f4)" style="fill: #d62728"/>
   </g>
   <g id="patch_32">
    <path d="M 483.804643 402.590769 
L 525.654643 402.590769 
L 525.654643 384.313846 
L 483.804643 384.313846 
z
" clip-path="url(#p7520e032f4)" style="fill: #d62728"/>
   </g>
   <g id="patch_33">
    <path d="M 567.504643 372.129231 
L 609.354643 372.129231 
L 609.354643 347.76 
L 567.504643 347.76 
z
" clip-path="url(#p7520e032f4)" style="fill: #d62728"/>
   </g>
   <g id="patch_34">
    <path d="M 651.204643 353.852308 
L 693.054643 353.852308 
L 693.054643 329.483077 
L 651.204643 329.483077 
z
" clip-path="url(#p7520e032f4)" style="fill: #d62728"/>
   </g>
   <g id="patch_35">
    <path d="M 65.304643 500.067692 
L 107.154643 500.067692 
L 107.154643 500.067692 
L 65.304643 500.067692 
z
" clip-path="url(#p7520e032f4)" style="fill: #9467bd"/>
   </g>
   <g id="patch_36">
    <path d="M 149.004643 472.652308 
L 190.854643 472.652308 
L 190.854643 469.606154 
L 149.004643 469.606154 
z
" clip-path="url(#p7520e032f4)" style="fill: #9467bd"/>
   </g>
   <g id="patch_37">
    <path d="M 232.704643 445.236923 
L 274.554643 445.236923 
L 274.554643 442.190769 
L 232.704643 442.190769 
z
" clip-path="url(#p7520e032f4)" style="fill: #9467bd"/>
   </g>
   <g id="patch_38">
    <path d="M 316.404643 430.006154 
L 358.254643 430.006154 
L 358.254643 423.913846 
L 316.404643 423.913846 
z
" clip-path="url(#p7520e032f4)" style="fill: #9467bd"/>
   </g>
   <g id="patch_39">
    <path d="M 400.104643 405.636923 
L 441.954643 405.636923 
L 441.954643 396.498462 
L 400.104643 396.498462 
z
" clip-path="url(#p7520e032f4)" style="fill: #9467bd"/>
   </g>
   <g id="patch_40">
    <path d="M 483.804643 384.313846 
L 525.654643 384.313846 
L 525.654643 375.175385 
L 483.804643 375.175385 
z
" clip-path="url(#p7520e032f4)" style="fill: #9467bd"/>
   </g>
   <g id="patch_41">
    <path d="M 567.504643 347.76 
L 609.354643 347.76 
L 609.354643 335.575385 
L 567.504643 335.575385 
z
" clip-path="url(#p7520e032f4)" style="fill: #9467bd"/>
   </g>
   <g id="patch_42">
    <path d="M 651.204643 329.483077 
L 693.054643 329.483077 
L 693.054643 314.252308 
L 651.204643 314.252308 
z
" clip-path="url(#p7520e032f4)" style="fill: #9467bd"/>
   </g>
   <g id="patch_43">
    <path d="M 65.304643 500.067692 
L 107.154643 500.067692 
L 107.154643 497.021538 
L 65.304643 497.021538 
z
" clip-path="url(#p7520e032f4)" style="fill: #8c564b"/>
   </g>
   <g id="patch_44">
    <path d="M 149.004643 469.606154 
L 190.854643 469.606154 
L 190.854643 457.421538 
L 149.004643 457.421538 
z
" clip-path="url(#p7520e032f4)" style="fill: #8c564b"/>
   </g>
   <g id="patch_45">
    <path d="M 232.704643 442.190769 
L 274.554643 442.190769 
L 274.554643 408.683077 
L 232.704643 408.683077 
z
" clip-path="url(#p7520e032f4)" style="fill: #8c564b"/>
   </g>
   <g id="patch_46">
    <path d="M 316.404643 423.913846 
L 358.254643 423.913846 
L 358.254643 356.898462 
L 316.404643 356.898462 
z
" clip-path="url(#p7520e032f4)" style="fill: #8c564b"/>
   </g>
   <g id="patch_47">
    <path d="M 400.104643 396.498462 
L 441.954643 396.498462 
L 441.954643 289.883077 
L 400.104643 289.883077 
z
" clip-path="url(#p7520e032f4)" style="fill: #8c564b"/>
   </g>
   <g id="patch_48">
    <path d="M 483.804643 375.175385 
L 525.654643 375.175385 
L 525.654643 228.96 
L 483.804643 228.96 
z
" clip-path="url(#p7520e032f4)" style="fill: #8c564b"/>
   </g>
   <g id="patch_49">
    <path d="M 567.504643 335.575385 
L 609.354643 335.575385 
L 609.354643 140.621538 
L 567.504643 140.621538 
z
" clip-path="url(#p7520e032f4)" style="fill: #8c564b"/>
   </g>
   <g id="patch_50">
    <path d="M 651.204643 314.252308 
L 693.054643 314.252308 
L 693.054643 91.883077 
L 651.204643 91.883077 
z
" clip-path="url(#p7520e032f4)" style="fill: #8c564b"/>
   </g>
   <g id="patch_51">
    <path d="M 65.304643 497.021538 
L 107.154643 497.021538 
L 107.154643 497.021538 
L 65.304643 497.021538 
z
" clip-path="url(#p7520e032f4)" style="fill: #e377c2"/>
   </g>
   <g id="patch_52">
    <path d="M 149.004643 457.421538 
L 190.854643 457.421538 
L 190.854643 448.283077 
L 149.004643 448.283077 
z
" clip-path="url(#p7520e032f4)" style="fill: #e377c2"/>
   </g>
   <g id="patch_53">
    <path d="M 232.704643 408.683077 
L 274.554643 408.683077 
L 274.554643 387.36 
L 232.704643 387.36 
z
" clip-path="url(#p7520e032f4)" style="fill: #e377c2"/>
   </g>
   <g id="patch_54">
    <path d="M 316.404643 356.898462 
L 358.254643 356.898462 
L 358.254643 332.529231 
L 316.404643 332.529231 
z
" clip-path="url(#p7520e032f4)" style="fill: #e377c2"/>
   </g>
   <g id="patch_55">
    <path d="M 400.104643 289.883077 
L 441.954643 289.883077 
L 441.954643 262.467692 
L 400.104643 262.467692 
z
" clip-path="url(#p7520e032f4)" style="fill: #e377c2"/>
   </g>
   <g id="patch_56">
    <path d="M 483.804643 228.96 
L 525.654643 228.96 
L 525.654643 198.498462 
L 483.804643 198.498462 
z
" clip-path="url(#p7520e032f4)" style="fill: #e377c2"/>
   </g>
   <g id="patch_57">
    <path d="M 567.504643 140.621538 
L 609.354643 140.621538 
L 609.354643 110.16 
L 567.504643 110.16 
z
" clip-path="url(#p7520e032f4)" style="fill: #e377c2"/>
   </g>
   <g id="patch_58">
    <path d="M 651.204643 91.883077 
L 693.054643 91.883077 
L 693.054643 61.421538 
L 651.204643 61.421538 
z
" clip-path="url(#p7520e032f4)" style="fill: #e377c2"/>
   </g>
   <g id="patch_59">
    <path d="M 65.304643 497.021538 
L 107.154643 497.021538 
L 107.154643 497.021538 
L 65.304643 497.021538 
z
" clip-path="url(#p7520e032f4)" style="fill: #7f7f7f"/>
   </g>
   <g id="patch_60">
    <path d="M 149.004643 448.283077 
L 190.854643 448.283077 
L 190.854643 448.283077 
L 149.004643 448.283077 
z
" clip-path="url(#p7520e032f4)" style="fill: #7f7f7f"/>
   </g>
   <g id="patch_61">
    <path d="M 232.704643 387.36 
L 274.554643 387.36 
L 274.554643 387.36 
L 232.704643 387.36 
z
" clip-path="url(#p7520e032f4)" style="fill: #7f7f7f"/>
   </g>
   <g id="patch_62">
    <path d="M 316.404643 332.529231 
L 358.254643 332.529231 
L 358.254643 329.483077 
L 316.404643 329.483077 
z
" clip-path="url(#p7520e032f4)" style="fill: #7f7f7f"/>
   </g>
   <g id="patch_63">
    <path d="M 400.104643 262.467692 
L 441.954643 262.467692 
L 441.954643 259.421538 
L 400.104643 259.421538 
z
" clip-path="url(#p7520e032f4)" style="fill: #7f7f7f"/>
   </g>
   <g id="patch_64">
    <path d="M 483.804643 198.498462 
L 525.654643 198.498462 
L 525.654643 195.452308 
L 483.804643 195.452308 
z
" clip-path="url(#p7520e032f4)" style="fill: #7f7f7f"/>
   </g>
   <g id="patch_65">
    <path d="M 567.504643 110.16 
L 609.354643 110.16 
L 609.354643 107.113846 
L 567.504643 107.113846 
z
" clip-path="url(#p7520e032f4)" style="fill: #7f7f7f"/>
   </g>
   <g id="patch_66">
    <path d="M 651.204643 61.421538 
L 693.054643 61.421538 
L 693.054643 58.375385 
L 651.204643 58.375385 
z
" clip-path="url(#p7520e032f4)" style="fill: #7f7f7f"/>
   </g>
   <g id="patch_67">
    <path d="M 65.304643 497.021538 
L 107.154643 497.021538 
L 107.154643 497.021538 
L 65.304643 497.021538 
z
" clip-path="url(#p7520e032f4)" style="fill: #bcbd22"/>
   </g>
   <g id="patch_68">
    <path d="M 149.004643 448.283077 
L 190.854643 448.283077 
L 190.854643 448.283077 
L 149.004643 448.283077 
z
" clip-path="url(#p7520e032f4)" style="fill: #bcbd22"/>
   </g>
   <g id="patch_69">
    <path d="M 232.704643 387.36 
L 274.554643 387.36 
L 274.554643 378.221538 
L 232.704643 378.221538 
z
" clip-path="url(#p7520e032f4)" style="fill: #bcbd22"/>
   </g>
   <g id="patch_70">
    <path d="M 316.404643 329.483077 
L 358.254643 329.483077 
L 358.254643 317.298462 
L 316.404643 317.298462 
z
" clip-path="url(#p7520e032f4)" style="fill: #bcbd22"/>
   </g>
   <g id="patch_71">
    <path d="M 400.104643 259.421538 
L 441.954643 259.421538 
L 441.954643 238.098462 
L 400.104643 238.098462 
z
" clip-path="url(#p7520e032f4)" style="fill: #bcbd22"/>
   </g>
   <g id="patch_72">
    <path d="M 483.804643 195.452308 
L 525.654643 195.452308 
L 525.654643 174.129231 
L 483.804643 174.129231 
z
" clip-path="url(#p7520e032f4)" style="fill: #bcbd22"/>
   </g>
   <g id="patch_73">
    <path d="M 567.504643 107.113846 
L 609.354643 107.113846 
L 609.354643 85.790769 
L 567.504643 85.790769 
z
" clip-path="url(#p7520e032f4)" style="fill: #bcbd22"/>
   </g>
   <g id="patch_74">
    <path d="M 651.204643 58.375385 
L 693.054643 58.375385 
L 693.054643 34.006154 
L 651.204643 34.006154 
z
" clip-path="url(#p7520e032f4)" style="fill: #bcbd22"/>
   </g>
   <g id="patch_75">
    <path d="M 65.304643 497.021538 
L 107.154643 497.021538 
L 107.154643 497.021538 
L 65.304643 497.021538 
z
" clip-path="url(#p7520e032f4)" style="fill: #17becf"/>
   </g>
   <g id="patch_76">
    <path d="M 149.004643 448.283077 
L 190.854643 448.283077 
L 190.854643 448.283077 
L 149.004643 448.283077 
z
" clip-path="url(#p7520e032f4)" style="fill: #17becf"/>
   </g>
   <g id="patch_77">
    <path d="M 232.704643 378.221538 
L 274.554643 378.221538 
L 274.554643 378.221538 
L 232.704643 378.221538 
z
" clip-path="url(#p7520e032f4)" style="fill: #17becf"/>
   </g>
   <g id="patch_78">
    <path d="M 316.404643 317.298462 
L 358.254643 317.298462 
L 358.254643 314.252308 
L 316.404643 314.252308 
z
" clip-path="url(#p7520e032f4)" style="fill: #17becf"/>
   </g>
   <g id="patch_79">
    <path d="M 400.104643 238.098462 
L 441.954643 238.098462 
L 441.954643 235.052308 
L 400.104643 235.052308 
z
" clip-path="url(#p7520e032f4)" style="fill: #17becf"/>
   </g>
   <g id="patch_80">
    <path d="M 483.804643 174.129231 
L 525.654643 174.129231 
L 525.654643 171.083077 
L 483.804643 171.083077 
z
" clip-path="url(#p7520e032f4)" style="fill: #17becf"/>
   </g>
   <g id="patch_81">
    <path d="M 567.504643 85.790769 
L 609.354643 85.790769 
L 609.354643 82.744615 
L 567.504643 82.744615 
z
" clip-path="url(#p7520e032f4)" style="fill: #17becf"/>
   </g>
   <g id="patch_82">
    <path d="M 651.204643 34.006154 
L 693.054643 34.006154 
L 693.054643 30.96 
L 651.204643 30.96 
z
" clip-path="url(#p7520e032f4)" style="fill: #17becf"/>
   </g>
   <g id="matplotlib.axis_1">
    <g id="xtick_1">
     <g id="line2d_1">
      <defs>
       <path id="m5c0d0a738f" d="M 0 0 
L 0 3.5 
" style="stroke: #000000; stroke-width: 0.8"/>
      </defs>
      <g>
       <use xlink:href="#m5c0d0a738f" x="86.229643" y="506.16" style="stroke: #000000; stroke-width: 0.8"/>
      </g>
     </g>
     <g id="text_1">
      <!-- 2019 -->
      <g transform="translate(75.270709 520.770347) scale(0.11 -0.11)">
       <defs>
        <path id="CMR17-34" d="M 2668 990 
L 2553 990 
C 2489 537 2438 460 2412 422 
C 2380 371 1920 371 1830 371 
L 601 371 
C 832 620 1280 1073 1824 1596 
C 2214 1966 2668 2400 2668 3033 
C 2668 3788 2067 4224 1395 4224 
C 691 4224 262 3603 262 3027 
C 262 2777 448 2745 524 2745 
C 588 2745 780 2783 780 3007 
C 780 3206 614 3264 524 3264 
C 486 3264 448 3257 422 3244 
C 544 3788 915 4057 1305 4057 
C 1862 4057 2227 3616 2227 3033 
C 2227 2477 1900 1998 1536 1583 
L 262 147 
L 262 0 
L 2515 0 
L 2668 990 
z
" transform="scale(0.015625)"/>
        <path id="CMR17-32" d="M 2688 2038 
C 2688 2430 2681 3099 2412 3613 
C 2176 4063 1798 4224 1465 4224 
C 1158 4224 768 4082 524 3620 
C 268 3137 243 2539 243 2038 
C 243 1671 249 1112 448 623 
C 723 -39 1216 -128 1465 -128 
C 1760 -128 2208 -7 2470 604 
C 2662 1048 2688 1568 2688 2038 
z
M 1465 -26 
C 1056 -26 812 328 723 816 
C 652 1196 652 1749 652 2109 
C 652 2604 652 3015 736 3407 
C 857 3954 1216 4121 1465 4121 
C 1728 4121 2067 3947 2188 3420 
C 2272 3054 2278 2623 2278 2109 
C 2278 1691 2278 1176 2201 797 
C 2067 96 1689 -26 1465 -26 
z
" transform="scale(0.015625)"/>
        <path id="CMR17-33" d="M 1702 4083 
C 1702 4217 1696 4224 1606 4224 
C 1356 3927 979 3833 620 3820 
C 601 3820 569 3820 563 3808 
C 556 3795 556 3782 556 3648 
C 755 3648 1088 3686 1344 3839 
L 1344 467 
C 1344 243 1331 166 780 166 
L 588 166 
L 588 0 
C 896 6 1216 12 1523 12 
C 1830 12 2150 6 2457 0 
L 2457 166 
L 2265 166 
C 1715 166 1702 236 1702 467 
L 1702 4083 
z
" transform="scale(0.015625)"/>
        <path id="CMR17-3b" d="M 2252 1871 
C 2252 448 1670 25 1190 25 
C 1043 25 684 43 537 281 
C 704 256 825 345 825 505 
C 825 678 684 736 595 736 
C 537 736 364 710 364 492 
C 364 68 742 -128 1203 -128 
C 1939 -128 2688 665 2688 2090 
C 2688 3857 1971 4224 1484 4224 
C 851 4224 243 3664 243 2800 
C 243 2000 761 1408 1414 1408 
C 1952 1408 2188 1910 2252 2122 
L 2252 1871 
z
M 1427 1510 
C 1254 1510 1011 1542 812 1929 
C 678 2181 678 2477 678 2793 
C 678 3174 678 3438 857 3722 
C 947 3857 1113 4076 1484 4076 
C 2240 4076 2240 2909 2240 2651 
C 2240 2193 2035 1510 1427 1510 
z
" transform="scale(0.015625)"/>
       </defs>
       <use xlink:href="#CMR17-34" transform="scale(0.996264)"/>
       <use xlink:href="#CMR17-32" transform="translate(45.690477 0) scale(0.996264)"/>
       <use xlink:href="#CMR17-33" transform="translate(91.380954 0) scale(0.996264)"/>
       <use xlink:href="#CMR17-3b" transform="translate(137.071431 0) scale(0.996264)"/>
      </g>
     </g>
    </g>
    <g id="xtick_2">
     <g id="line2d_2">
      <g>
       <use xlink:href="#m5c0d0a738f" x="169.929643" y="506.16" style="stroke: #000000; stroke-width: 0.8"/>
      </g>
     </g>
     <g id="text_2">
      <!-- 2020 -->
      <g transform="translate(158.970709 520.770347) scale(0.11 -0.11)">
       <use xlink:href="#CMR17-34" transform="scale(0.996264)"/>
       <use xlink:href="#CMR17-32" transform="translate(45.690477 0) scale(0.996264)"/>
       <use xlink:href="#CMR17-34" transform="translate(91.380954 0) scale(0.996264)"/>
       <use xlink:href="#CMR17-32" transform="translate(137.071431 0) scale(0.996264)"/>
      </g>
     </g>
    </g>
    <g id="xtick_3">
     <g id="line2d_3">
      <g>
       <use xlink:href="#m5c0d0a738f" x="253.629643" y="506.16" style="stroke: #000000; stroke-width: 0.8"/>
      </g>
     </g>
     <g id="text_3">
      <!-- 2021 -->
      <g transform="translate(242.670709 520.770347) scale(0.11 -0.11)">
       <use xlink:href="#CMR17-34" transform="scale(0.996264)"/>
       <use xlink:href="#CMR17-32" transform="translate(45.690477 0) scale(0.996264)"/>
       <use xlink:href="#CMR17-34" transform="translate(91.380954 0) scale(0.996264)"/>
       <use xlink:href="#CMR17-33" transform="translate(137.071431 0) scale(0.996264)"/>
      </g>
     </g>
    </g>
    <g id="xtick_4">
     <g id="line2d_4">
      <g>
       <use xlink:href="#m5c0d0a738f" x="337.329643" y="506.16" style="stroke: #000000; stroke-width: 0.8"/>
      </g>
     </g>
     <g id="text_4">
      <!-- 2022 -->
      <g transform="translate(326.370709 520.770347) scale(0.11 -0.11)">
       <use xlink:href="#CMR17-34" transform="scale(0.996264)"/>
       <use xlink:href="#CMR17-32" transform="translate(45.690477 0) scale(0.996264)"/>
       <use xlink:href="#CMR17-34" transform="translate(91.380954 0) scale(0.996264)"/>
       <use xlink:href="#CMR17-34" transform="translate(137.071431 0) scale(0.996264)"/>
      </g>
     </g>
    </g>
    <g id="xtick_5">
     <g id="line2d_5">
      <g>
       <use xlink:href="#m5c0d0a738f" x="421.029643" y="506.16" style="stroke: #000000; stroke-width: 0.8"/>
      </g>
     </g>
     <g id="text_5">
      <!-- 2023 -->
      <g transform="translate(410.070709 520.770347) scale(0.11 -0.11)">
       <defs>
        <path id="CMR17-35" d="M 1414 2176 
C 1984 2176 2233 1673 2233 1094 
C 2233 322 1824 25 1452 25 
C 1113 25 563 193 390 691 
C 422 678 454 678 486 678 
C 640 678 755 780 755 947 
C 755 1132 614 1216 486 1216 
C 377 1216 211 1164 211 927 
C 211 335 787 -128 1465 -128 
C 2176 -128 2720 432 2720 1087 
C 2720 1718 2208 2176 1600 2246 
C 2086 2347 2553 2776 2553 3353 
C 2553 3856 2048 4224 1472 4224 
C 889 4224 377 3862 377 3347 
C 377 3123 544 3084 627 3084 
C 761 3084 876 3167 876 3334 
C 876 3500 761 3584 627 3584 
C 601 3584 569 3584 544 3571 
C 729 3999 1235 4076 1459 4076 
C 1683 4076 2105 3966 2105 3347 
C 2105 3167 2080 2851 1862 2574 
C 1670 2329 1452 2316 1241 2297 
C 1209 2297 1062 2284 1036 2284 
C 992 2278 966 2272 966 2227 
C 966 2182 972 2176 1100 2176 
L 1414 2176 
z
" transform="scale(0.015625)"/>
       </defs>
       <use xlink:href="#CMR17-34" transform="scale(0.996264)"/>
       <use xlink:href="#CMR17-32" transform="translate(45.690477 0) scale(0.996264)"/>
       <use xlink:href="#CMR17-34" transform="translate(91.380954 0) scale(0.996264)"/>
       <use xlink:href="#CMR17-35" transform="translate(137.071431 0) scale(0.996264)"/>
      </g>
     </g>
    </g>
    <g id="xtick_6">
     <g id="line2d_6">
      <g>
       <use xlink:href="#m5c0d0a738f" x="504.729643" y="506.16" style="stroke: #000000; stroke-width: 0.8"/>
      </g>
     </g>
     <g id="text_6">
      <!-- 2024 -->
      <g transform="translate(493.770709 520.770347) scale(0.11 -0.11)">
       <defs>
        <path id="CMR17-36" d="M 2150 4147 
C 2150 4281 2144 4288 2028 4288 
L 128 1254 
L 128 1088 
L 1779 1088 
L 1779 460 
C 1779 230 1766 166 1318 166 
L 1196 166 
L 1196 0 
C 1401 12 1747 12 1964 12 
C 2182 12 2528 12 2732 0 
L 2732 166 
L 2611 166 
C 2163 166 2150 230 2150 460 
L 2150 1088 
L 2803 1088 
L 2803 1254 
L 2150 1254 
L 2150 4147 
z
M 1798 3723 
L 1798 1254 
L 256 1254 
L 1798 3723 
z
" transform="scale(0.015625)"/>
       </defs>
       <use xlink:href="#CMR17-34" transform="scale(0.996264)"/>
       <use xlink:href="#CMR17-32" transform="translate(45.690477 0) scale(0.996264)"/>
       <use xlink:href="#CMR17-34" transform="translate(91.380954 0) scale(0.996264)"/>
       <use xlink:href="#CMR17-36" transform="translate(137.071431 0) scale(0.996264)"/>
      </g>
     </g>
    </g>
    <g id="xtick_7">
     <g id="line2d_7">
      <g>
       <use xlink:href="#m5c0d0a738f" x="588.429643" y="506.16" style="stroke: #000000; stroke-width: 0.8"/>
      </g>
     </g>
     <g id="text_7">
      <!-- 2025 -->
      <g transform="translate(577.470709 520.770347) scale(0.11 -0.11)">
       <defs>
        <path id="CMR17-37" d="M 729 3750 
C 793 3724 1056 3641 1324 3641 
C 1920 3641 2246 3961 2432 4140 
C 2432 4191 2432 4224 2393 4224 
C 2387 4224 2374 4224 2323 4198 
C 2099 4102 1836 4032 1516 4032 
C 1324 4032 1036 4055 723 4191 
C 652 4224 640 4224 633 4224 
C 601 4224 595 4217 595 4090 
L 595 2231 
C 595 2113 595 2080 659 2080 
C 691 2080 704 2093 736 2139 
C 940 2435 1222 2560 1542 2560 
C 1766 2560 2246 2415 2246 1293 
C 2246 1087 2246 716 2054 422 
C 1894 159 1644 25 1369 25 
C 947 25 518 319 403 812 
C 428 806 480 793 505 793 
C 588 793 748 838 748 1036 
C 748 1209 627 1280 505 1280 
C 358 1280 262 1190 262 1011 
C 262 454 704 -128 1382 -128 
C 2041 -128 2668 441 2668 1267 
C 2668 2054 2169 2662 1548 2662 
C 1222 2662 947 2540 729 2304 
L 729 3750 
z
" transform="scale(0.015625)"/>
       </defs>
       <use xlink:href="#CMR17-34" transform="scale(0.996264)"/>
       <use xlink:href="#CMR17-32" transform="translate(45.690477 0) scale(0.996264)"/>
       <use xlink:href="#CMR17-34" transform="translate(91.380954 0) scale(0.996264)"/>
       <use xlink:href="#CMR17-37" transform="translate(137.071431 0) scale(0.996264)"/>
      </g>
     </g>
    </g>
    <g id="xtick_8">
     <g id="line2d_8">
      <g>
       <use xlink:href="#m5c0d0a738f" x="672.129643" y="506.16" style="stroke: #000000; stroke-width: 0.8"/>
      </g>
     </g>
     <g id="text_8">
      <!-- 2026 -->
      <g transform="translate(661.170709 520.770347) scale(0.11 -0.11)">
       <defs>
        <path id="CMR17-38" d="M 678 2198 
C 678 3712 1395 4076 1811 4076 
C 1945 4076 2272 4049 2400 3782 
C 2297 3782 2105 3782 2105 3558 
C 2105 3385 2246 3328 2336 3328 
C 2393 3328 2566 3353 2566 3571 
C 2566 3987 2246 4224 1804 4224 
C 1043 4224 243 3411 243 2011 
C 243 257 966 -128 1478 -128 
C 2099 -128 2688 431 2688 1295 
C 2688 2101 2169 2688 1516 2688 
C 1126 2688 838 2430 678 1979 
L 678 2198 
z
M 1478 25 
C 691 25 691 1212 691 1450 
C 691 1914 908 2585 1504 2585 
C 1612 2585 1926 2585 2137 2140 
C 2252 1889 2252 1624 2252 1302 
C 2252 954 2252 696 2118 438 
C 1977 173 1772 25 1478 25 
z
" transform="scale(0.015625)"/>
       </defs>
       <use xlink:href="#CMR17-34" transform="scale(0.996264)"/>
       <use xlink:href="#CMR17-32" transform="translate(45.690477 0) scale(0.996264)"/>
       <use xlink:href="#CMR17-34" transform="translate(91.380954 0) scale(0.996264)"/>
       <use xlink:href="#CMR17-38" transform="translate(137.071431 0) scale(0.996264)"/>
      </g>
     </g>
    </g>
    <g id="text_9">
     <!-- Year -->
     <g transform="translate(368.205499 534.511588) scale(0.11 -0.11)">
      <defs>
       <path id="CMR17-5b" d="M 3705 3784 
C 3955 4178 4301 4185 4416 4185 
L 4416 4352 
C 4269 4339 4102 4339 3942 4339 
C 3782 4339 3526 4339 3373 4352 
L 3373 4185 
C 3533 4178 3616 4096 3616 3975 
C 3616 3898 3584 3847 3533 3764 
L 2380 1924 
L 1120 3930 
C 1075 4007 1068 4013 1068 4057 
C 1068 4185 1292 4185 1382 4185 
L 1382 4352 
C 1177 4339 864 4339 652 4339 
C 486 4339 166 4339 12 4352 
L 12 4185 
C 377 4185 480 4166 595 3981 
L 2009 1739 
L 2009 453 
C 2009 166 1939 166 1497 166 
L 1497 0 
C 1683 12 2016 12 2214 12 
C 2412 12 2752 12 2937 0 
L 2937 166 
C 2476 166 2419 166 2419 478 
L 2419 1739 
L 3705 3784 
z
" transform="scale(0.015625)"/>
       <path id="CMR17-67" d="M 2438 1503 
C 2464 1529 2464 1542 2464 1606 
C 2464 2251 2118 2816 1388 2816 
C 710 2816 172 2175 172 1394 
C 172 554 780 -64 1459 -64 
C 2176 -64 2457 619 2457 755 
C 2457 800 2419 800 2406 800 
C 2361 800 2355 787 2329 709 
C 2188 270 1836 51 1504 51 
C 1228 51 953 206 780 490 
C 582 819 582 1200 582 1503 
L 2438 1503 
z
M 588 1600 
C 633 2511 1126 2713 1382 2713 
C 1817 2713 2112 2308 2118 1600 
L 588 1600 
z
" transform="scale(0.015625)"/>
       <path id="CMR17-63" d="M 2304 1656 
C 2304 2048 2304 2275 2035 2534 
C 1798 2751 1523 2816 1305 2816 
C 800 2816 435 2408 435 1977 
C 435 1740 627 1728 665 1728 
C 748 1728 896 1779 896 1958 
C 896 2118 774 2188 665 2188 
C 640 2188 608 2182 588 2176 
C 723 2594 1068 2713 1292 2713 
C 1612 2713 1964 2421 1964 1875 
L 1964 1632 
C 1587 1619 1132 1568 774 1373 
C 371 1147 256 822 256 576 
C 256 77 832 -64 1171 -64 
C 1523 -64 1849 135 1990 505 
C 2003 219 2182 -39 2464 -39 
C 2598 -39 2937 51 2937 563 
L 2937 926 
L 2822 926 
L 2822 557 
C 2822 161 2649 109 2566 109 
C 2304 109 2304 446 2304 732 
L 2304 1656 
z
M 1964 887 
C 1964 323 1568 38 1216 38 
C 896 38 646 278 646 576 
C 646 771 729 1114 1100 1322 
C 1408 1497 1760 1523 1964 1536 
L 1964 887 
z
" transform="scale(0.015625)"/>
       <path id="CMR17-74" d="M 960 1517 
C 960 2134 1222 2713 1702 2713 
C 1747 2713 1792 2707 1836 2687 
C 1836 2687 1696 2642 1696 2475 
C 1696 2321 1817 2257 1913 2257 
C 1990 2257 2131 2302 2131 2482 
C 2131 2687 1926 2816 1708 2816 
C 1222 2816 1011 2340 947 2115 
L 940 2115 
L 940 2816 
L 198 2745 
L 198 2578 
C 576 2578 633 2540 633 2231 
L 633 443 
C 633 198 608 166 198 166 
L 198 0 
C 352 12 646 12 812 12 
C 998 12 1324 12 1497 0 
L 1497 166 
C 1036 166 960 166 960 455 
L 960 1517 
z
" transform="scale(0.015625)"/>
      </defs>
      <use xlink:href="#CMR17-5b" transform="scale(0.996264)"/>
      <use xlink:href="#CMR17-67" transform="translate(61.265174 0) scale(0.996264)"/>
      <use xlink:href="#CMR17-63" transform="translate(101.750835 0) scale(0.996264)"/>
      <use xlink:href="#CMR17-74" transform="translate(147.441312 0) scale(0.996264)"/>
     </g>
    </g>
   </g>
   <g id="matplotlib.axis_2">
    <g id="ytick_1">
     <g id="line2d_9">
      <defs>
       <path id="me2ddc709ad" d="M 0 0 
L -3.5 0 
" style="stroke: #000000; stroke-width: 0.8"/>
      </defs>
      <g>
       <use xlink:href="#me2ddc709ad" x="44.379643" y="506.16" style="stroke: #000000; stroke-width: 0.8"/>
      </g>
     </g>
     <g id="text_10">
      <!-- $\mathdefault{0}$ -->
      <g transform="translate(31.900176 509.965173) scale(0.11 -0.11)">
       <use xlink:href="#CMR17-32" transform="scale(0.996264)"/>
      </g>
     </g>
    </g>
    <g id="ytick_2">
     <g id="line2d_10">
      <g>
       <use xlink:href="#me2ddc709ad" x="44.379643" y="445.236923" style="stroke: #000000; stroke-width: 0.8"/>
      </g>
     </g>
     <g id="text_11">
      <!-- $\mathdefault{20}$ -->
      <g transform="translate(26.420709 449.042096) scale(0.11 -0.11)">
       <use xlink:href="#CMR17-34" transform="scale(0.996264)"/>
       <use xlink:href="#CMR17-32" transform="translate(45.690477 0) scale(0.996264)"/>
      </g>
     </g>
    </g>
    <g id="ytick_3">
     <g id="line2d_11">
      <g>
       <use xlink:href="#me2ddc709ad" x="44.379643" y="384.313846" style="stroke: #000000; stroke-width: 0.8"/>
      </g>
     </g>
     <g id="text_12">
      <!-- $\mathdefault{40}$ -->
      <g transform="translate(26.420709 388.11902) scale(0.11 -0.11)">
       <use xlink:href="#CMR17-36" transform="scale(0.996264)"/>
       <use xlink:href="#CMR17-32" transform="translate(45.690477 0) scale(0.996264)"/>
      </g>
     </g>
    </g>
    <g id="ytick_4">
     <g id="line2d_12">
      <g>
       <use xlink:href="#me2ddc709ad" x="44.379643" y="323.390769" style="stroke: #000000; stroke-width: 0.8"/>
      </g>
     </g>
     <g id="text_13">
      <!-- $\mathdefault{60}$ -->
      <g transform="translate(26.420709 327.195943) scale(0.11 -0.11)">
       <use xlink:href="#CMR17-38" transform="scale(0.996264)"/>
       <use xlink:href="#CMR17-32" transform="translate(45.690477 0) scale(0.996264)"/>
      </g>
     </g>
    </g>
    <g id="ytick_5">
     <g id="line2d_13">
      <g>
       <use xlink:href="#me2ddc709ad" x="44.379643" y="262.467692" style="stroke: #000000; stroke-width: 0.8"/>
      </g>
     </g>
     <g id="text_14">
      <!-- $\mathdefault{80}$ -->
      <g transform="translate(26.420709 266.272866) scale(0.11 -0.11)">
       <defs>
        <path id="CMR17-3a" d="M 1740 2289 
C 2144 2494 2553 2803 2553 3298 
C 2553 3884 1990 4224 1472 4224 
C 889 4224 377 3800 377 3215 
C 377 3054 416 2777 665 2533 
C 729 2469 998 2276 1171 2154 
C 883 2006 211 1652 211 945 
C 211 282 838 -128 1459 -128 
C 2144 -128 2720 366 2720 1022 
C 2720 1607 2329 1877 2073 2051 
L 1740 2289 
z
M 902 2855 
C 851 2887 595 3086 595 3388 
C 595 3781 998 4076 1459 4076 
C 1964 4076 2336 3716 2336 3298 
C 2336 2700 1670 2359 1638 2359 
C 1632 2359 1625 2359 1574 2398 
L 902 2855 
z
M 2080 1536 
C 2176 1466 2483 1253 2483 861 
C 2483 385 2009 25 1472 25 
C 889 25 448 443 448 951 
C 448 1459 838 1884 1280 2083 
L 2080 1536 
z
" transform="scale(0.015625)"/>
       </defs>
       <use xlink:href="#CMR17-3a" transform="scale(0.996264)"/>
       <use xlink:href="#CMR17-32" transform="translate(45.690477 0) scale(0.996264)"/>
      </g>
     </g>
    </g>
    <g id="ytick_6">
     <g id="line2d_14">
      <g>
       <use xlink:href="#me2ddc709ad" x="44.379643" y="201.544615" style="stroke: #000000; stroke-width: 0.8"/>
      </g>
     </g>
     <g id="text_15">
      <!-- $\mathdefault{100}$ -->
      <g transform="translate(20.941241 205.349789) scale(0.11 -0.11)">
       <use xlink:href="#CMR17-33" transform="scale(0.996264)"/>
       <use xlink:href="#CMR17-32" transform="translate(45.690477 0) scale(0.996264)"/>
       <use xlink:href="#CMR17-32" transform="translate(91.380954 0) scale(0.996264)"/>
      </g>
     </g>
    </g>
    <g id="ytick_7">
     <g id="line2d_15">
      <g>
       <use xlink:href="#me2ddc709ad" x="44.379643" y="140.621538" style="stroke: #000000; stroke-width: 0.8"/>
      </g>
     </g>
     <g id="text_16">
      <!-- $\mathdefault{120}$ -->
      <g transform="translate(20.941241 144.426712) scale(0.11 -0.11)">
       <use xlink:href="#CMR17-33" transform="scale(0.996264)"/>
       <use xlink:href="#CMR17-34" transform="translate(45.690477 0) scale(0.996264)"/>
       <use xlink:href="#CMR17-32" transform="translate(91.380954 0) scale(0.996264)"/>
      </g>
     </g>
    </g>
    <g id="ytick_8">
     <g id="line2d_16">
      <g>
       <use xlink:href="#me2ddc709ad" x="44.379643" y="79.698462" style="stroke: #000000; stroke-width: 0.8"/>
      </g>
     </g>
     <g id="text_17">
      <!-- $\mathdefault{140}$ -->
      <g transform="translate(20.941241 83.503635) scale(0.11 -0.11)">
       <use xlink:href="#CMR17-33" transform="scale(0.996264)"/>
       <use xlink:href="#CMR17-36" transform="translate(45.690477 0) scale(0.996264)"/>
       <use xlink:href="#CMR17-32" transform="translate(91.380954 0) scale(0.996264)"/>
      </g>
     </g>
    </g>
    <g id="ytick_9">
     <g id="line2d_17">
      <g>
       <use xlink:href="#me2ddc709ad" x="44.379643" y="18.775385" style="stroke: #000000; stroke-width: 0.8"/>
      </g>
     </g>
     <g id="text_18">
      <!-- $\mathdefault{160}$ -->
      <g transform="translate(20.941241 22.580558) scale(0.11 -0.11)">
       <use xlink:href="#CMR17-33" transform="scale(0.996264)"/>
       <use xlink:href="#CMR17-38" transform="translate(45.690477 0) scale(0.996264)"/>
       <use xlink:href="#CMR17-32" transform="translate(91.380954 0) scale(0.996264)"/>
      </g>
     </g>
    </g>
    <g id="text_19">
     <!-- Number of Citations -->
     <g transform="translate(14.810347 306.040841) rotate(-90) scale(0.11 -0.11)">
      <defs>
       <path id="CMR17-50" d="M 1312 4275 
C 1267 4345 1260 4352 1139 4352 
L 326 4352 
L 326 4185 
L 448 4185 
C 704 4185 819 4153 838 4147 
L 838 624 
C 838 465 838 166 326 166 
L 326 0 
C 473 12 742 12 902 12 
C 1062 12 1331 12 1478 0 
L 1478 166 
C 966 166 966 465 966 624 
L 966 4057 
C 1011 4019 1011 4007 1056 3943 
L 3430 76 
C 3475 0 3494 0 3526 0 
C 3590 0 3590 19 3590 140 
L 3590 3726 
C 3590 3885 3590 4185 4102 4185 
L 4102 4352 
C 3955 4339 3686 4339 3526 4339 
C 3366 4339 3097 4339 2950 4352 
L 2950 4185 
C 3462 4185 3462 3885 3462 3726 
L 3462 777 
L 1312 4275 
z
" transform="scale(0.015625)"/>
       <path id="CMR17-77" d="M 1881 2745 
L 1881 2579 
C 2259 2579 2316 2540 2316 2229 
L 2316 1053 
C 2316 510 2028 38 1555 38 
C 1030 38 985 355 985 691 
L 985 2816 
L 211 2745 
L 211 2579 
C 467 2579 640 2579 646 2320 
L 646 1079 
C 646 646 646 368 812 187 
C 896 103 1056 -64 1516 -64 
C 2060 -64 2272 400 2323 536 
L 2329 536 
L 2329 -64 
L 3091 -13 
L 3091 154 
C 2713 154 2656 193 2656 503 
L 2656 2816 
L 1881 2745 
z
" transform="scale(0.015625)"/>
       <path id="CMR17-6f" d="M 4326 1954 
C 4326 2276 4269 2816 3507 2816 
C 3072 2816 2771 2520 2656 2173 
L 2649 2173 
C 2572 2700 2195 2816 1836 2816 
C 1331 2816 1068 2424 972 2166 
L 966 2166 
L 966 2816 
L 211 2745 
L 211 2578 
C 588 2578 646 2540 646 2231 
L 646 443 
C 646 198 620 166 211 166 
L 211 0 
C 364 12 646 12 812 12 
C 979 12 1267 12 1420 0 
L 1420 166 
C 1011 166 985 192 985 443 
L 985 1678 
C 985 2269 1344 2713 1792 2713 
C 2265 2713 2316 2289 2316 1980 
L 2316 443 
C 2316 198 2291 166 1881 166 
L 1881 0 
C 2035 12 2316 12 2483 12 
C 2649 12 2937 12 3091 0 
L 3091 166 
C 2681 166 2656 192 2656 443 
L 2656 1678 
C 2656 2269 3014 2713 3462 2713 
C 3936 2713 3987 2289 3987 1980 
L 3987 443 
C 3987 198 3961 166 3552 166 
L 3552 0 
C 3705 12 3987 12 4153 12 
C 4320 12 4608 12 4761 0 
L 4761 166 
C 4352 166 4326 192 4326 443 
L 4326 1954 
z
" transform="scale(0.015625)"/>
       <path id="CMR17-64" d="M 960 4416 
L 198 4345 
L 198 4179 
C 576 4179 633 4141 633 3843 
L 633 -13 
L 748 -13 
L 934 445 
C 1120 141 1395 -64 1766 -64 
C 2406 -64 3052 503 3052 1382 
C 3052 2209 2476 2816 1830 2816 
C 1433 2816 1152 2603 960 2351 
L 960 4416 
z
M 972 2022 
C 972 2138 972 2157 1062 2293 
C 1312 2681 1670 2713 1792 2713 
C 1984 2713 2643 2610 2643 1388 
C 2643 109 1888 38 1734 38 
C 1536 38 1248 115 1043 490 
C 972 613 972 626 972 742 
L 972 2022 
z
" transform="scale(0.015625)"/>
       <path id="CMR17-71" d="M 2758 1356 
C 2758 2176 2163 2816 1465 2816 
C 768 2816 172 2176 172 1356 
C 172 550 768 -64 1465 -64 
C 2163 -64 2758 550 2758 1356 
z
M 1465 51 
C 1164 51 908 230 761 480 
C 601 768 582 1126 582 1408 
C 582 1676 595 2009 761 2297 
C 889 2508 1139 2713 1465 2713 
C 1753 2713 1996 2553 2150 2329 
C 2348 2028 2348 1606 2348 1408 
C 2348 1158 2336 774 2163 467 
C 1984 172 1708 51 1465 51 
z
" transform="scale(0.015625)"/>
       <path id="CMR17-68" d="M 979 2585 
L 1708 2585 
L 1708 2752 
L 966 2752 
L 966 3539 
C 966 4076 1235 4377 1510 4377 
C 1593 4377 1689 4363 1753 4339 
C 1702 4326 1568 4281 1568 4121 
C 1568 3955 1696 3904 1785 3904 
C 1875 3904 2003 3955 2003 4121 
C 2003 4353 1772 4480 1516 4480 
C 1152 4480 652 4211 652 3526 
L 652 2752 
L 140 2752 
L 140 2585 
L 652 2585 
L 652 441 
C 652 198 627 166 217 166 
L 217 0 
C 371 12 665 12 832 12 
C 1017 12 1344 12 1516 0 
L 1516 166 
C 1056 166 979 166 979 454 
L 979 2585 
z
" transform="scale(0.015625)"/>
       <path id="CMR17-45" d="M 3974 4351 
C 3974 4467 3968 4473 3929 4473 
C 3904 4473 3897 4467 3853 4390 
L 3571 3849 
C 3257 4249 2873 4480 2380 4480 
C 1286 4480 294 3507 294 2179 
C 294 837 1286 -128 2387 -128 
C 3366 -128 3974 741 3974 1482 
C 3974 1547 3974 1573 3917 1573 
C 3865 1573 3865 1553 3859 1495 
C 3808 592 3168 38 2476 38 
C 1824 38 780 502 780 2179 
C 780 3862 1843 4313 2464 4313 
C 3187 4313 3712 3681 3833 2785 
C 3846 2707 3846 2695 3904 2695 
C 3974 2695 3974 2707 3974 2824 
L 3974 4351 
z
" transform="scale(0.015625)"/>
       <path id="CMR17-6b" d="M 992 3961 
C 992 4102 876 4224 729 4224 
C 588 4224 467 4108 467 3961 
C 467 3820 582 3699 729 3699 
C 870 3699 992 3814 992 3961 
z
M 243 2745 
L 243 2579 
C 601 2579 652 2540 652 2231 
L 652 443 
C 652 198 627 166 217 166 
L 217 0 
C 371 12 646 12 806 12 
C 960 12 1222 12 1369 0 
L 1369 166 
C 992 166 979 205 979 436 
L 979 2816 
L 243 2745 
z
" transform="scale(0.015625)"/>
       <path id="CMR17-76" d="M 966 2585 
L 1862 2585 
L 1862 2752 
L 966 2752 
L 966 3968 
L 851 3968 
C 838 3292 614 2700 70 2687 
L 70 2585 
L 627 2585 
L 627 778 
C 627 655 627 -64 1369 -64 
C 1747 -64 1964 308 1964 784 
L 1964 1151 
L 1849 1151 
L 1849 790 
C 1849 347 1676 51 1408 51 
C 1222 51 966 179 966 765 
L 966 2585 
z
" transform="scale(0.015625)"/>
       <path id="CMR17-70" d="M 2656 1954 
C 2656 2282 2592 2816 1836 2816 
C 1331 2816 1068 2424 972 2166 
L 966 2166 
L 966 2816 
L 211 2745 
L 211 2578 
C 588 2578 646 2540 646 2231 
L 646 443 
C 646 198 620 166 211 166 
L 211 0 
C 364 12 646 12 812 12 
C 979 12 1267 12 1420 0 
L 1420 166 
C 1011 166 985 192 985 443 
L 985 1678 
C 985 2269 1344 2713 1792 2713 
C 2265 2713 2316 2289 2316 1980 
L 2316 443 
C 2316 198 2291 166 1881 166 
L 1881 0 
C 2035 12 2316 12 2483 12 
C 2649 12 2937 12 3091 0 
L 3091 166 
C 2681 166 2656 192 2656 443 
L 2656 1954 
z
" transform="scale(0.015625)"/>
       <path id="CMR17-75" d="M 1977 2688 
C 1977 2803 1971 2809 1932 2809 
C 1907 2809 1900 2803 1824 2707 
C 1804 2681 1747 2617 1728 2592 
C 1523 2809 1235 2816 1126 2816 
C 416 2816 160 2444 160 2073 
C 160 1497 812 1363 998 1324 
C 1401 1241 1542 1216 1676 1100 
C 1760 1024 1900 883 1900 652 
C 1900 384 1747 38 1158 38 
C 601 38 403 460 288 1024 
C 268 1113 268 1120 217 1120 
C 166 1120 160 1113 160 985 
L 160 64 
C 160 -52 166 -58 204 -58 
C 236 -58 243 -52 275 0 
C 313 57 409 211 448 275 
C 576 102 800 -64 1158 -64 
C 1792 -64 2131 281 2131 780 
C 2131 1107 1958 1280 1875 1356 
C 1683 1555 1459 1600 1190 1651 
C 838 1728 390 1817 390 2208 
C 390 2374 480 2726 1126 2726 
C 1811 2726 1849 2086 1862 1881 
C 1868 1849 1900 1843 1920 1843 
C 1977 1843 1977 1862 1977 1971 
L 1977 2688 
z
" transform="scale(0.015625)"/>
      </defs>
      <use xlink:href="#CMR17-50" transform="scale(0.996264)"/>
      <use xlink:href="#CMR17-77" transform="translate(69.07243 0) scale(0.996264)"/>
      <use xlink:href="#CMR17-6f" transform="translate(119.9678 0) scale(0.996264)"/>
      <use xlink:href="#CMR17-64" transform="translate(194.284936 0) scale(0.996264)"/>
      <use xlink:href="#CMR17-67" transform="translate(247.782744 0) scale(0.996264)"/>
      <use xlink:href="#CMR17-74" transform="translate(288.268404 0) scale(0.996264)"/>
      <use xlink:href="#CMR17-71" transform="translate(353.625139 0) scale(0.996264)"/>
      <use xlink:href="#CMR17-68" transform="translate(399.315616 0) scale(0.996264)"/>
      <use xlink:href="#CMR17-45" transform="translate(456.865095 0) scale(0.996264)"/>
      <use xlink:href="#CMR17-6b" transform="translate(523.374975 0) scale(0.996264)"/>
      <use xlink:href="#CMR17-76" transform="translate(548.246034 0) scale(0.996264)"/>
      <use xlink:href="#CMR17-63" transform="translate(583.526801 0) scale(0.996264)"/>
      <use xlink:href="#CMR17-76" transform="translate(629.217278 0) scale(0.996264)"/>
      <use xlink:href="#CMR17-6b" transform="translate(664.498046 0) scale(0.996264)"/>
      <use xlink:href="#CMR17-71" transform="translate(689.369105 0) scale(0.996264)"/>
      <use xlink:href="#CMR17-70" transform="translate(735.059582 0) scale(0.996264)"/>
      <use xlink:href="#CMR17-75" transform="translate(785.954952 0) scale(0.996264)"/>
     </g>
    </g>
   </g>
   <g id="patch_83">
    <path d="M 44.379643 506.16 
L 44.379643 7.2 
" style="fill: none; stroke: #000000; stroke-width: 0.8; stroke-linejoin: miter; stroke-linecap: square"/>
   </g>
   <g id="patch_84">
    <path d="M 713.979643 506.16 
L 713.979643 7.2 
" style="fill: none; stroke: #000000; stroke-width: 0.8; stroke-linejoin: miter; stroke-linecap: square"/>
   </g>
   <g id="patch_85">
    <path d="M 44.379643 506.16 
L 713.979643 506.16 
" style="fill: none; stroke: #000000; stroke-width: 0.8; stroke-linejoin: miter; stroke-linecap: square"/>
   </g>
   <g id="patch_86">
    <path d="M 44.379643 7.2 
L 713.979643 7.2 
" style="fill: none; stroke: #000000; stroke-width: 0.8; stroke-linejoin: miter; stroke-linecap: square"/>
   </g>
   <g id="text_20">
    <!-- 3 -->
    <g transform="translate(83.303148 493.173866) scale(0.12 -0.12)">
     <use xlink:href="#CMR17-35" transform="scale(0.996264)"/>
    </g>
   </g>
   <g id="text_21">
    <!-- 19 -->
    <g transform="translate(164.076653 444.435404) scale(0.12 -0.12)">
     <use xlink:href="#CMR17-33" transform="scale(0.996264)"/>
     <use xlink:href="#CMR17-3b" transform="translate(45.690477 0) scale(0.996264)"/>
    </g>
   </g>
   <g id="text_22">
    <!-- 42 -->
    <g transform="translate(247.776653 374.373866) scale(0.12 -0.12)">
     <use xlink:href="#CMR17-36" transform="scale(0.996264)"/>
     <use xlink:href="#CMR17-34" transform="translate(45.690477 0) scale(0.996264)"/>
    </g>
   </g>
   <g id="text_23">
    <!-- 63 -->
    <g transform="translate(331.476653 310.404635) scale(0.12 -0.12)">
     <use xlink:href="#CMR17-38" transform="scale(0.996264)"/>
     <use xlink:href="#CMR17-35" transform="translate(45.690477 0) scale(0.996264)"/>
    </g>
   </g>
   <g id="text_24">
    <!-- 89 -->
    <g transform="translate(415.176653 231.204635) scale(0.12 -0.12)">
     <use xlink:href="#CMR17-3a" transform="scale(0.996264)"/>
     <use xlink:href="#CMR17-3b" transform="translate(45.690477 0) scale(0.996264)"/>
    </g>
   </g>
   <g id="text_25">
    <!-- 110 -->
    <g transform="translate(495.950158 167.235404) scale(0.12 -0.12)">
     <use xlink:href="#CMR17-33" transform="scale(0.996264)"/>
     <use xlink:href="#CMR17-33" transform="translate(45.690477 0) scale(0.996264)"/>
     <use xlink:href="#CMR17-32" transform="translate(91.380954 0) scale(0.996264)"/>
    </g>
   </g>
   <g id="text_26">
    <!-- 139 -->
    <g transform="translate(579.650158 78.896943) scale(0.12 -0.12)">
     <use xlink:href="#CMR17-33" transform="scale(0.996264)"/>
     <use xlink:href="#CMR17-35" transform="translate(45.690477 0) scale(0.996264)"/>
     <use xlink:href="#CMR17-3b" transform="translate(91.380954 0) scale(0.996264)"/>
    </g>
   </g>
   <g id="text_27">
    <!-- 156 -->
    <g transform="translate(663.350158 27.112327) scale(0.12 -0.12)">
     <use xlink:href="#CMR17-33" transform="scale(0.996264)"/>
     <use xlink:href="#CMR17-37" transform="translate(45.690477 0) scale(0.996264)"/>
     <use xlink:href="#CMR17-38" transform="translate(91.380954 0) scale(0.996264)"/>
    </g>
   </g>
   <g id="legend_1">
    <g id="patch_87">
     <path d="M 52.079643 169.308946 
L 230.141464 169.308946 
Q 232.341464 169.308946 232.341464 167.108946 
L 232.341464 14.9 
Q 232.341464 12.7 230.141464 12.7 
L 52.079643 12.7 
Q 49.879643 12.7 49.879643 14.9 
L 49.879643 167.108946 
Q 49.879643 169.308946 52.079643 169.308946 
z
" style="fill: #ffffff; opacity: 0.8; stroke: #cccccc; stroke-linejoin: miter"/>
    </g>
    <g id="patch_88">
     <path d="M 54.279643 24.8 
L 76.279643 24.8 
L 76.279643 17.1 
L 54.279643 17.1 
z
" style="fill: #1f77b4"/>
    </g>
    <g id="text_28">
     <!-- Books -->
     <g transform="translate(85.079643 24.8) scale(0.11 -0.11)">
      <defs>
       <path id="CMR17-44" d="M 332 4352 
L 332 4185 
C 774 4185 844 4185 844 3897 
L 844 451 
C 844 166 774 166 332 166 
L 332 0 
L 2534 0 
C 3353 0 3885 578 3885 1155 
C 3885 1726 3360 2214 2675 2259 
C 3289 2380 3718 2790 3718 3276 
C 3718 3808 3193 4352 2368 4352 
L 332 4352 
z
M 1248 2304 
L 1248 3936 
C 1248 4153 1260 4185 1516 4185 
L 2336 4185 
C 2969 4185 3251 3673 3251 3276 
C 3251 2790 2860 2304 2169 2304 
L 1248 2304 
z
M 1516 166 
C 1260 166 1248 198 1248 413 
L 1248 2201 
L 2432 2201 
C 3091 2201 3411 1624 3411 1161 
C 3411 698 3046 166 2348 166 
L 1516 166 
z
" transform="scale(0.015625)"/>
       <path id="CMR17-6d" d="M 1670 1679 
C 1664 1692 1632 1730 1632 1749 
C 1632 1762 2086 2175 2144 2226 
C 2508 2532 2739 2563 2905 2570 
L 2905 2735 
C 2867 2735 2854 2735 2848 2729 
L 2534 2722 
C 2355 2722 2080 2722 1907 2735 
L 1907 2570 
C 1996 2563 2060 2513 2060 2423 
C 2060 2296 1932 2175 1926 2175 
L 960 1298 
L 960 4416 
L 198 4345 
L 198 4179 
C 576 4179 633 4141 633 3835 
L 633 439 
C 633 198 608 166 198 166 
L 198 0 
C 352 12 633 12 793 12 
C 953 12 1235 12 1388 0 
L 1388 166 
C 979 166 953 191 953 439 
L 953 1139 
L 1395 1540 
L 2041 586 
C 2118 471 2182 382 2182 299 
C 2182 185 2067 166 1990 166 
L 1990 0 
C 2144 12 2419 12 2579 12 
C 2694 12 2931 6 3040 0 
L 3040 166 
C 2739 166 2668 223 2476 503 
L 1670 1679 
z
" transform="scale(0.015625)"/>
      </defs>
      <use xlink:href="#CMR17-44" transform="scale(0.996264)"/>
      <use xlink:href="#CMR17-71" transform="translate(65.188754 0) scale(0.996264)"/>
      <use xlink:href="#CMR17-71" transform="translate(113.48167 0) scale(0.996264)"/>
      <use xlink:href="#CMR17-6d" transform="translate(159.172147 0) scale(0.996264)"/>
      <use xlink:href="#CMR17-75" transform="translate(207.465063 0) scale(0.996264)"/>
     </g>
    </g>
    <g id="patch_89">
     <path d="M 54.279643 40.130895 
L 76.279643 40.130895 
L 76.279643 32.430895 
L 54.279643 32.430895 
z
" style="fill: #ff7f0e"/>
    </g>
    <g id="text_29">
     <!-- Conference Papers -->
     <g transform="translate(85.079643 40.130895) scale(0.11 -0.11)">
      <defs>
       <path id="CMR17-65" d="M 2233 2240 
C 2112 2240 1932 2240 1932 2015 
C 1932 1836 2080 1785 2163 1785 
C 2208 1785 2393 1804 2393 2028 
C 2393 2476 1958 2816 1465 2816 
C 787 2816 211 2201 211 1379 
C 211 521 812 -64 1465 -64 
C 2259 -64 2457 676 2457 747 
C 2457 773 2451 792 2406 792 
C 2361 792 2355 786 2329 702 
C 2163 180 1798 51 1523 51 
C 1113 51 620 431 620 1385 
C 620 2358 1094 2700 1472 2700 
C 1721 2700 2092 2582 2233 2240 
z
" transform="scale(0.015625)"/>
       <path id="CMR17-52" d="M 1267 2048 
L 2291 2048 
C 3116 2048 3718 2583 3718 3187 
C 3718 3791 3129 4352 2291 4352 
L 332 4352 
L 332 4185 
C 774 4185 844 4185 844 3899 
L 844 453 
C 844 166 774 166 332 166 
L 332 0 
C 518 12 857 12 1056 12 
C 1254 12 1593 12 1779 0 
L 1779 166 
C 1337 166 1267 166 1267 453 
L 1267 2048 
z
M 1254 2182 
L 1254 3937 
C 1254 4153 1267 4185 1523 4185 
L 2169 4185 
C 2995 4185 3232 3715 3232 3187 
C 3232 2608 2950 2182 2169 2182 
L 1254 2182 
z
" transform="scale(0.015625)"/>
       <path id="CMR17-72" d="M 1408 -1114 
C 998 -1114 972 -1088 972 -834 
L 972 380 
C 1158 109 1427 -64 1766 -64 
C 2406 -64 3052 503 3052 1382 
C 3052 2196 2496 2816 1836 2816 
C 1452 2816 1139 2603 960 2345 
L 960 2816 
L 198 2745 
L 198 2577 
C 576 2577 633 2539 633 2228 
L 633 -834 
C 633 -1081 608 -1114 198 -1114 
L 198 -1280 
C 352 -1268 633 -1268 800 -1268 
C 966 -1268 1254 -1268 1408 -1280 
L 1408 -1114 
z
M 972 2015 
C 972 2106 972 2241 1222 2481 
C 1254 2506 1472 2700 1792 2700 
C 2259 2700 2643 2112 2643 1376 
C 2643 639 2233 38 1728 38 
C 1497 38 1248 148 1056 451 
C 972 594 972 632 972 736 
L 972 2015 
z
" transform="scale(0.015625)"/>
      </defs>
      <use xlink:href="#CMR17-45" transform="scale(0.996264)"/>
      <use xlink:href="#CMR17-71" transform="translate(66.509881 0) scale(0.996264)"/>
      <use xlink:href="#CMR17-70" transform="translate(112.200358 0) scale(0.996264)"/>
      <use xlink:href="#CMR17-68" transform="translate(163.095727 0) scale(0.996264)"/>
      <use xlink:href="#CMR17-67" transform="translate(190.56924 0) scale(0.996264)"/>
      <use xlink:href="#CMR17-74" transform="translate(231.0549 0) scale(0.996264)"/>
      <use xlink:href="#CMR17-67" transform="translate(266.335668 0) scale(0.996264)"/>
      <use xlink:href="#CMR17-70" transform="translate(306.821329 0) scale(0.996264)"/>
      <use xlink:href="#CMR17-65" transform="translate(357.716698 0) scale(0.996264)"/>
      <use xlink:href="#CMR17-67" transform="translate(398.202359 0) scale(0.996264)"/>
      <use xlink:href="#CMR17-52" transform="translate(468.763986 0) scale(0.996264)"/>
      <use xlink:href="#CMR17-63" transform="translate(528.747832 0) scale(0.996264)"/>
      <use xlink:href="#CMR17-72" transform="translate(574.438309 0) scale(0.996264)"/>
      <use xlink:href="#CMR17-67" transform="translate(627.936118 0) scale(0.996264)"/>
      <use xlink:href="#CMR17-74" transform="translate(668.421778 0) scale(0.996264)"/>
      <use xlink:href="#CMR17-75" transform="translate(703.702546 0) scale(0.996264)"/>
     </g>
    </g>
    <g id="patch_90">
     <path d="M 54.279643 55.461789 
L 76.279643 55.461789 
L 76.279643 47.761789 
L 54.279643 47.761789 
z
" style="fill: #2ca02c"/>
    </g>
    <g id="text_30">
     <!-- Data Articles -->
     <g transform="translate(85.079643 55.461789) scale(0.11 -0.11)">
      <defs>
       <path id="CMR17-46" d="M 332 4352 
L 332 4185 
C 774 4185 844 4185 844 3898 
L 844 453 
C 844 166 774 166 332 166 
L 332 0 
L 2368 0 
C 3398 0 4224 943 4224 2140 
C 4224 3344 3411 4352 2368 4352 
L 332 4352 
z
M 1523 166 
C 1267 166 1254 198 1254 414 
L 1254 3936 
C 1254 4153 1267 4185 1523 4185 
L 2240 4185 
C 2771 4185 3750 3873 3750 2140 
C 3750 1242 3488 879 3366 707 
C 3212 510 2848 166 2240 166 
L 1523 166 
z
" transform="scale(0.015625)"/>
       <path id="CMR17-43" d="M 2323 4441 
C 2291 4524 2278 4544 2214 4544 
C 2150 4544 2137 4524 2105 4441 
L 748 580 
C 627 236 371 166 147 166 
L 147 0 
C 262 12 518 12 640 12 
C 800 12 1056 12 1209 0 
L 1209 166 
C 908 179 864 382 864 459 
C 864 516 876 548 889 586 
L 1228 1536 
L 2905 1536 
L 3289 453 
C 3321 376 3321 363 3321 338 
C 3321 166 3046 166 2924 166 
L 2924 0 
C 3110 12 3443 12 3641 12 
C 3808 12 4128 12 4281 0 
L 4281 166 
C 3942 166 3827 166 3744 402 
L 2323 4441 
z
M 2067 3924 
L 2848 1702 
L 1286 1702 
L 2067 3924 
z
" transform="scale(0.015625)"/>
       <path id="CMR17-6e" d="M 979 4416 
L 217 4345 
L 217 4179 
C 595 4179 652 4141 652 3835 
L 652 439 
C 652 198 627 166 217 166 
L 217 0 
C 371 12 652 12 812 12 
C 979 12 1260 12 1414 0 
L 1414 166 
C 1004 166 979 191 979 439 
L 979 4416 
z
" transform="scale(0.015625)"/>
      </defs>
      <use xlink:href="#CMR17-46" transform="scale(0.996264)"/>
      <use xlink:href="#CMR17-63" transform="translate(70.393556 0) scale(0.996264)"/>
      <use xlink:href="#CMR17-76" transform="translate(116.084033 0) scale(0.996264)"/>
      <use xlink:href="#CMR17-63" transform="translate(151.364801 0) scale(0.996264)"/>
      <use xlink:href="#CMR17-43" transform="translate(227.131244 0) scale(0.996264)"/>
      <use xlink:href="#CMR17-74" transform="translate(296.203674 0) scale(0.996264)"/>
      <use xlink:href="#CMR17-76" transform="translate(331.484442 0) scale(0.996264)"/>
      <use xlink:href="#CMR17-6b" transform="translate(366.76521 0) scale(0.996264)"/>
      <use xlink:href="#CMR17-65" transform="translate(391.636268 0) scale(0.996264)"/>
      <use xlink:href="#CMR17-6e" transform="translate(432.121929 0) scale(0.996264)"/>
      <use xlink:href="#CMR17-67" transform="translate(456.992987 0) scale(0.996264)"/>
      <use xlink:href="#CMR17-75" transform="translate(497.478648 0) scale(0.996264)"/>
     </g>
    </g>
    <g id="patch_91">
     <path d="M 54.279643 70.792684 
L 76.279643 70.792684 
L 76.279643 63.092684 
L 54.279643 63.092684 
z
" style="fill: #d62728"/>
    </g>
    <g id="text_31">
     <!-- Doctoral Theses -->
     <g transform="translate(85.079643 70.792684) scale(0.11 -0.11)">
      <defs>
       <path id="CMR17-56" d="M 3981 4332 
L 288 4332 
L 179 2924 
L 294 2924 
C 377 3981 467 4166 1452 4166 
C 1568 4166 1753 4166 1804 4159 
C 1926 4140 1926 4064 1926 3917 
L 1926 465 
C 1926 236 1907 166 1376 166 
L 1196 166 
L 1196 0 
C 1504 6 1824 12 2137 12 
C 2451 12 2771 6 3078 0 
L 3078 166 
L 2899 166 
C 2368 166 2348 236 2348 465 
L 2348 3917 
C 2348 4057 2348 4134 2464 4159 
C 2515 4166 2700 4166 2816 4166 
C 3795 4166 3891 3981 3974 2924 
L 4089 2924 
L 3981 4332 
z
" transform="scale(0.015625)"/>
       <path id="CMR17-6a" d="M 2656 1954 
C 2656 2282 2592 2816 1836 2816 
C 1312 2816 1056 2392 979 2179 
L 972 2179 
L 972 4416 
L 211 4345 
L 211 4179 
C 588 4179 646 4141 646 3843 
L 646 443 
C 646 198 620 166 211 166 
L 211 0 
C 364 12 646 12 812 12 
C 979 12 1267 12 1420 0 
L 1420 166 
C 1011 166 985 192 985 443 
L 985 1678 
C 985 2269 1344 2713 1792 2713 
C 2265 2713 2316 2289 2316 1980 
L 2316 443 
C 2316 198 2291 166 1881 166 
L 1881 0 
C 2035 12 2316 12 2483 12 
C 2649 12 2937 12 3091 0 
L 3091 166 
C 2681 166 2656 192 2656 443 
L 2656 1954 
z
" transform="scale(0.015625)"/>
      </defs>
      <use xlink:href="#CMR17-46" transform="scale(0.996264)"/>
      <use xlink:href="#CMR17-71" transform="translate(70.393556 0) scale(0.996264)"/>
      <use xlink:href="#CMR17-65" transform="translate(118.686472 0) scale(0.996264)"/>
      <use xlink:href="#CMR17-76" transform="translate(159.172132 0) scale(0.996264)"/>
      <use xlink:href="#CMR17-71" transform="translate(194.4529 0) scale(0.996264)"/>
      <use xlink:href="#CMR17-74" transform="translate(240.143377 0) scale(0.996264)"/>
      <use xlink:href="#CMR17-63" transform="translate(275.424145 0) scale(0.996264)"/>
      <use xlink:href="#CMR17-6e" transform="translate(321.114622 0) scale(0.996264)"/>
      <use xlink:href="#CMR17-56" transform="translate(376.061647 0) scale(0.996264)"/>
      <use xlink:href="#CMR17-6a" transform="translate(442.571527 0) scale(0.996264)"/>
      <use xlink:href="#CMR17-67" transform="translate(493.466897 0) scale(0.996264)"/>
      <use xlink:href="#CMR17-75" transform="translate(533.952558 0) scale(0.996264)"/>
      <use xlink:href="#CMR17-67" transform="translate(569.753895 0) scale(0.996264)"/>
      <use xlink:href="#CMR17-75" transform="translate(610.239556 0) scale(0.996264)"/>
     </g>
    </g>
    <g id="patch_92">
     <path d="M 54.279643 86.123579 
L 76.279643 86.123579 
L 76.279643 78.423579 
L 54.279643 78.423579 
z
" style="fill: #9467bd"/>
    </g>
    <g id="text_32">
     <!-- Final Graduation Projects -->
     <g transform="translate(85.079643 86.123579) scale(0.11 -0.11)">
      <defs>
       <path id="CMR17-48" d="M 3481 4339 
L 326 4339 
L 326 4172 
C 768 4172 838 4172 838 3883 
L 838 450 
C 838 166 768 166 326 166 
L 326 0 
C 512 12 870 12 1068 12 
C 1331 12 1638 12 1900 0 
L 1900 166 
L 1760 166 
C 1273 166 1260 229 1260 456 
L 1260 2073 
L 1836 2073 
C 2432 2073 2489 1865 2489 1334 
L 2604 1334 
L 2604 2991 
L 2489 2991 
C 2489 2451 2432 2240 1836 2240 
L 1260 2240 
L 1260 3922 
C 1260 4140 1273 4172 1529 4172 
L 2355 4172 
C 3321 4172 3430 3774 3520 2920 
L 3635 2920 
L 3481 4339 
z
" transform="scale(0.015625)"/>
       <path id="CMR17-49" d="M 3974 1258 
C 3974 1503 3993 1536 4390 1536 
L 4390 1702 
C 4237 1689 3891 1689 3718 1689 
C 3539 1689 3040 1696 2796 1702 
L 2796 1536 
L 2988 1536 
C 3539 1536 3552 1464 3552 1232 
L 3552 806 
C 3552 96 2720 38 2521 38 
C 1862 38 780 496 780 2179 
C 780 3862 1843 4313 2464 4313 
C 3187 4313 3712 3681 3833 2785 
C 3846 2708 3846 2695 3904 2695 
C 3974 2695 3974 2708 3974 2824 
L 3974 4351 
C 3974 4467 3968 4473 3929 4473 
C 3904 4473 3897 4467 3853 4390 
L 3571 3849 
C 3257 4249 2873 4480 2380 4480 
C 1286 4480 294 3507 294 2179 
C 294 858 1267 -128 2393 -128 
C 2912 -128 3417 57 3616 425 
C 3725 161 3904 -20 3936 -20 
C 3968 -20 3974 -13 3974 102 
L 3974 1258 
z
" transform="scale(0.015625)"/>
       <path id="CMR17-66" d="M 1868 4345 
L 1868 4179 
C 2246 4179 2304 4141 2304 3843 
L 2304 2371 
C 2278 2403 2016 2816 1497 2816 
C 844 2816 211 2228 211 1376 
C 211 529 806 -64 1433 -64 
C 1977 -64 2259 361 2291 406 
L 2291 -64 
L 3065 -13 
L 3065 154 
C 2688 154 2630 193 2630 503 
L 2630 4416 
L 1868 4345 
z
M 2291 762 
C 2291 568 2176 393 2028 264 
C 1811 70 1593 38 1472 38 
C 1286 38 620 135 620 1369 
C 620 2636 1363 2713 1529 2713 
C 1824 2713 2060 2545 2208 2313 
C 2291 2177 2291 2157 2291 2041 
L 2291 762 
z
" transform="scale(0.015625)"/>
       <path id="CMR17-6c" d="M 1164 3961 
C 1164 4102 1049 4224 902 4224 
C 761 4224 640 4108 640 3961 
C 640 3820 755 3699 902 3699 
C 1043 3699 1164 3814 1164 3961 
z
M 364 2745 
L 364 2579 
C 787 2579 838 2533 838 2221 
L 838 -410 
C 838 -735 780 -1242 403 -1242 
C 358 -1242 185 -1236 44 -1145 
C 89 -1138 249 -1093 249 -911 
C 249 -787 166 -677 19 -677 
C -122 -677 -212 -774 -212 -917 
C -212 -1177 70 -1344 396 -1344 
C 838 -1344 1164 -937 1164 -384 
L 1164 2816 
L 364 2745 
z
" transform="scale(0.015625)"/>
      </defs>
      <use xlink:href="#CMR17-48" transform="scale(0.996264)"/>
      <use xlink:href="#CMR17-6b" transform="translate(59.983847 0) scale(0.996264)"/>
      <use xlink:href="#CMR17-70" transform="translate(84.854905 0) scale(0.996264)"/>
      <use xlink:href="#CMR17-63" transform="translate(135.750275 0) scale(0.996264)"/>
      <use xlink:href="#CMR17-6e" transform="translate(181.440752 0) scale(0.996264)"/>
      <use xlink:href="#CMR17-49" transform="translate(236.387777 0) scale(0.996264)"/>
      <use xlink:href="#CMR17-74" transform="translate(308.743123 0) scale(0.996264)"/>
      <use xlink:href="#CMR17-63" transform="translate(344.023891 0) scale(0.996264)"/>
      <use xlink:href="#CMR17-66" transform="translate(389.714368 0) scale(0.996264)"/>
      <use xlink:href="#CMR17-77" transform="translate(440.609737 0) scale(0.996264)"/>
      <use xlink:href="#CMR17-63" transform="translate(491.505107 0) scale(0.996264)"/>
      <use xlink:href="#CMR17-76" transform="translate(537.195584 0) scale(0.996264)"/>
      <use xlink:href="#CMR17-6b" transform="translate(572.476352 0) scale(0.996264)"/>
      <use xlink:href="#CMR17-71" transform="translate(597.347411 0) scale(0.996264)"/>
      <use xlink:href="#CMR17-70" transform="translate(643.037888 0) scale(0.996264)"/>
      <use xlink:href="#CMR17-52" transform="translate(724.009224 0) scale(0.996264)"/>
      <use xlink:href="#CMR17-74" transform="translate(786.595524 0) scale(0.996264)"/>
      <use xlink:href="#CMR17-71" transform="translate(821.876292 0) scale(0.996264)"/>
      <use xlink:href="#CMR17-6c" transform="translate(872.771571 0) scale(0.996264)"/>
      <use xlink:href="#CMR17-67" transform="translate(900.245083 0) scale(0.996264)"/>
      <use xlink:href="#CMR17-65" transform="translate(940.730744 0) scale(0.996264)"/>
      <use xlink:href="#CMR17-76" transform="translate(981.216404 0) scale(0.996264)"/>
      <use xlink:href="#CMR17-75" transform="translate(1016.497172 0) scale(0.996264)"/>
     </g>
    </g>
    <g id="patch_93">
     <path d="M 54.279643 101.454473 
L 76.279643 101.454473 
L 76.279643 93.754473 
L 54.279643 93.754473 
z
" style="fill: #8c564b"/>
    </g>
    <g id="text_33">
     <!-- Journal Articles -->
     <g transform="translate(85.079643 101.454473) scale(0.11 -0.11)">
      <defs>
       <path id="CMR17-4c" d="M 1888 902 
C 1888 316 1568 -26 1241 -26 
C 1075 -26 691 49 524 428 
C 550 422 582 415 608 415 
C 729 415 883 499 883 691 
C 883 844 774 960 614 960 
C 460 960 339 863 339 678 
C 339 254 729 -128 1254 -128 
C 1753 -128 2214 223 2291 755 
C 2297 799 2297 812 2297 1030 
L 2297 3734 
C 2297 3844 2297 4024 2310 4063 
C 2336 4185 2483 4185 2681 4185 
L 2681 4352 
C 2668 4352 2214 4339 2054 4339 
C 1785 4339 1491 4339 1222 4352 
L 1222 4185 
L 1376 4185 
C 1875 4185 1888 4114 1888 3883 
L 1888 902 
z
" transform="scale(0.015625)"/>
      </defs>
      <use xlink:href="#CMR17-4c" transform="scale(0.996264)"/>
      <use xlink:href="#CMR17-71" transform="translate(46.97179 0) scale(0.996264)"/>
      <use xlink:href="#CMR17-77" transform="translate(92.662267 0) scale(0.996264)"/>
      <use xlink:href="#CMR17-74" transform="translate(143.557637 0) scale(0.996264)"/>
      <use xlink:href="#CMR17-70" transform="translate(178.838404 0) scale(0.996264)"/>
      <use xlink:href="#CMR17-63" transform="translate(229.733774 0) scale(0.996264)"/>
      <use xlink:href="#CMR17-6e" transform="translate(275.424251 0) scale(0.996264)"/>
      <use xlink:href="#CMR17-43" transform="translate(330.371276 0) scale(0.996264)"/>
      <use xlink:href="#CMR17-74" transform="translate(399.443706 0) scale(0.996264)"/>
      <use xlink:href="#CMR17-76" transform="translate(434.724474 0) scale(0.996264)"/>
      <use xlink:href="#CMR17-6b" transform="translate(470.005242 0) scale(0.996264)"/>
      <use xlink:href="#CMR17-65" transform="translate(494.8763 0) scale(0.996264)"/>
      <use xlink:href="#CMR17-6e" transform="translate(535.361961 0) scale(0.996264)"/>
      <use xlink:href="#CMR17-67" transform="translate(560.233019 0) scale(0.996264)"/>
      <use xlink:href="#CMR17-75" transform="translate(600.718679 0) scale(0.996264)"/>
     </g>
    </g>
    <g id="patch_94">
     <path d="M 54.279643 116.785368 
L 76.279643 116.785368 
L 76.279643 109.085368 
L 54.279643 109.085368 
z
" style="fill: #e377c2"/>
    </g>
    <g id="text_34">
     <!-- Master's Degree Dissertations -->
     <g transform="translate(85.079643 116.785368) scale(0.11 -0.11)">
      <defs>
       <path id="CMR17-4f" d="M 1337 4249 
C 1299 4345 1292 4352 1158 4352 
L 339 4352 
L 339 4185 
C 780 4185 851 4185 851 3898 
L 851 624 
C 851 465 851 166 339 166 
L 339 0 
C 486 12 755 12 915 12 
C 1075 12 1344 12 1491 0 
L 1491 166 
C 979 166 979 465 979 624 
L 979 4159 
L 985 4159 
L 2489 102 
C 2515 38 2528 0 2579 0 
C 2630 0 2643 38 2668 102 
L 4185 4191 
L 4192 4191 
L 4192 453 
C 4192 166 4121 166 3680 166 
L 3680 0 
C 3853 12 4198 12 4384 12 
C 4569 12 4921 12 5094 0 
L 5094 166 
C 4653 166 4582 166 4582 453 
L 4582 3898 
C 4582 4185 4653 4185 5094 4185 
L 5094 4352 
L 4281 4352 
C 4147 4352 4141 4345 4102 4249 
L 2720 516 
L 1337 4249 
z
" transform="scale(0.015625)"/>
       <path id="CMR17-28" d="M 1024 4012 
C 1036 3942 1043 3916 1043 3810 
C 1043 3418 883 3058 633 2803 
C 608 2777 595 2758 595 2732 
C 595 2707 620 2681 646 2681 
C 691 2681 1145 3120 1145 3804 
C 1145 3942 1132 4416 800 4416 
C 659 4416 537 4319 537 4153 
C 537 3987 659 3891 800 3891 
C 857 3891 966 3910 1024 4012 
z
" transform="scale(0.015625)"/>
       <path id="CMR17-69" d="M 710 1165 
C 832 1068 1043 960 1299 960 
C 1804 960 2240 1359 2240 1895 
C 2240 2063 2188 2321 1996 2521 
C 2176 2713 2438 2777 2585 2777 
C 2611 2777 2649 2777 2681 2758 
C 2656 2751 2598 2726 2598 2623 
C 2598 2540 2656 2483 2739 2483 
C 2835 2483 2886 2547 2886 2630 
C 2886 2751 2790 2880 2585 2880 
C 2329 2880 2105 2758 1926 2591 
C 1734 2764 1504 2828 1299 2828 
C 793 2828 358 2431 358 1895 
C 358 1527 569 1294 633 1230 
C 441 1004 441 742 441 710 
C 441 544 505 300 723 166 
C 390 82 128 -184 128 -517 
C 128 -996 736 -1344 1465 -1344 
C 2169 -1344 2803 -1009 2803 -510 
C 2803 384 1856 384 1363 384 
C 1216 384 953 384 921 390 
C 723 422 588 601 588 825 
C 588 883 588 1024 710 1165 
z
M 1299 1068 
C 736 1068 736 1766 736 1895 
C 736 2024 736 2719 1299 2719 
C 1862 2719 1862 2024 1862 1895 
C 1862 1766 1862 1068 1299 1068 
z
M 1465 -1236 
C 825 -1236 384 -883 384 -517 
C 384 -311 492 -118 633 -11 
C 793 102 857 102 1292 102 
C 1817 102 2547 102 2547 -517 
C 2547 -883 2105 -1236 1465 -1236 
z
" transform="scale(0.015625)"/>
      </defs>
      <use xlink:href="#CMR17-4f" transform="scale(0.996264)"/>
      <use xlink:href="#CMR17-63" transform="translate(84.686941 0) scale(0.996264)"/>
      <use xlink:href="#CMR17-75" transform="translate(130.377418 0) scale(0.996264)"/>
      <use xlink:href="#CMR17-76" transform="translate(166.178755 0) scale(0.996264)"/>
      <use xlink:href="#CMR17-67" transform="translate(201.459523 0) scale(0.996264)"/>
      <use xlink:href="#CMR17-74" transform="translate(241.945184 0) scale(0.996264)"/>
      <use xlink:href="#CMR17-28" transform="translate(277.225951 0) scale(0.996264)"/>
      <use xlink:href="#CMR17-75" transform="translate(302.09701 0) scale(0.996264)"/>
      <use xlink:href="#CMR17-46" transform="translate(367.974314 0) scale(0.996264)"/>
      <use xlink:href="#CMR17-67" transform="translate(438.36787 0) scale(0.996264)"/>
      <use xlink:href="#CMR17-69" transform="translate(478.85353 0) scale(0.996264)"/>
      <use xlink:href="#CMR17-74" transform="translate(524.544007 0) scale(0.996264)"/>
      <use xlink:href="#CMR17-67" transform="translate(559.824775 0) scale(0.996264)"/>
      <use xlink:href="#CMR17-67" transform="translate(600.310436 0) scale(0.996264)"/>
      <use xlink:href="#CMR17-46" transform="translate(670.872062 0) scale(0.996264)"/>
      <use xlink:href="#CMR17-6b" transform="translate(741.265618 0) scale(0.996264)"/>
      <use xlink:href="#CMR17-75" transform="translate(766.136677 0) scale(0.996264)"/>
      <use xlink:href="#CMR17-75" transform="translate(801.938014 0) scale(0.996264)"/>
      <use xlink:href="#CMR17-67" transform="translate(837.739352 0) scale(0.996264)"/>
      <use xlink:href="#CMR17-74" transform="translate(878.225013 0) scale(0.996264)"/>
      <use xlink:href="#CMR17-76" transform="translate(913.50578 0) scale(0.996264)"/>
      <use xlink:href="#CMR17-63" transform="translate(948.786548 0) scale(0.996264)"/>
      <use xlink:href="#CMR17-76" transform="translate(994.477025 0) scale(0.996264)"/>
      <use xlink:href="#CMR17-6b" transform="translate(1029.757793 0) scale(0.996264)"/>
      <use xlink:href="#CMR17-71" transform="translate(1054.628852 0) scale(0.996264)"/>
      <use xlink:href="#CMR17-70" transform="translate(1100.319329 0) scale(0.996264)"/>
      <use xlink:href="#CMR17-75" transform="translate(1151.214698 0) scale(0.996264)"/>
     </g>
    </g>
    <g id="patch_95">
     <path d="M 54.279643 132.116263 
L 76.279643 132.116263 
L 76.279643 124.416263 
L 54.279643 124.416263 
z
" style="fill: #7f7f7f"/>
    </g>
    <g id="text_35">
     <!-- Other Articles -->
     <g transform="translate(85.079643 132.116263) scale(0.11 -0.11)">
      <defs>
       <path id="CMR17-51" d="M 4307 2166 
C 4307 3488 3366 4480 2304 4480 
C 1216 4480 294 3475 294 2166 
C 294 857 1228 -128 2297 -128 
C 3392 -128 4307 876 4307 2166 
z
M 2304 -13 
C 1574 -13 780 722 780 2250 
C 780 3771 1651 4364 2297 4364 
C 2976 4364 3821 3752 3821 2250 
C 3821 696 3008 -13 2304 -13 
z
" transform="scale(0.015625)"/>
      </defs>
      <use xlink:href="#CMR17-51" transform="scale(0.996264)"/>
      <use xlink:href="#CMR17-76" transform="translate(71.714788 0) scale(0.996264)"/>
      <use xlink:href="#CMR17-6a" transform="translate(106.995556 0) scale(0.996264)"/>
      <use xlink:href="#CMR17-67" transform="translate(157.890926 0) scale(0.996264)"/>
      <use xlink:href="#CMR17-74" transform="translate(198.376586 0) scale(0.996264)"/>
      <use xlink:href="#CMR17-43" transform="translate(263.733321 0) scale(0.996264)"/>
      <use xlink:href="#CMR17-74" transform="translate(332.80575 0) scale(0.996264)"/>
      <use xlink:href="#CMR17-76" transform="translate(368.086518 0) scale(0.996264)"/>
      <use xlink:href="#CMR17-6b" transform="translate(403.367286 0) scale(0.996264)"/>
      <use xlink:href="#CMR17-65" transform="translate(428.238344 0) scale(0.996264)"/>
      <use xlink:href="#CMR17-6e" transform="translate(468.724005 0) scale(0.996264)"/>
      <use xlink:href="#CMR17-67" transform="translate(493.595063 0) scale(0.996264)"/>
      <use xlink:href="#CMR17-75" transform="translate(534.080724 0) scale(0.996264)"/>
     </g>
    </g>
    <g id="patch_96">
     <path d="M 54.279643 147.447157 
L 76.279643 147.447157 
L 76.279643 139.747157 
L 54.279643 139.747157 
z
" style="fill: #bcbd22"/>
    </g>
    <g id="text_36">
     <!-- Repository Articles -->
     <g transform="translate(85.079643 147.447157) scale(0.11 -0.11)">
      <defs>
       <path id="CMR17-54" d="M 2508 2156 
C 3116 2278 3629 2689 3629 3203 
C 3629 3806 2950 4352 2054 4352 
L 332 4352 
L 332 4185 
C 774 4185 844 4185 844 3896 
L 844 428 
C 844 140 774 140 332 140 
L 332 -26 
C 518 -13 851 -13 1049 -13 
C 1248 -13 1580 -13 1766 -26 
L 1766 140 
C 1324 140 1254 140 1254 428 
L 1254 2112 
L 2003 2112 
C 2368 2112 2572 1964 2662 1881 
C 2918 1632 2918 1459 2918 1024 
C 2918 595 2918 377 3110 160 
C 3353 -103 3680 -128 3821 -128 
C 4294 -128 4365 403 4365 512 
C 4365 550 4365 595 4307 595 
C 4256 595 4249 556 4249 531 
C 4217 115 4032 -26 3833 -26 
C 3481 -26 3443 377 3405 768 
C 3385 902 3373 998 3360 1139 
C 3321 1459 3270 1926 2508 2156 
z
M 1984 2214 
L 1254 2214 
L 1254 3935 
C 1254 4153 1267 4185 1523 4185 
L 1990 4185 
C 2521 4185 3142 3999 3142 3203 
C 3142 2374 2464 2214 1984 2214 
z
" transform="scale(0.015625)"/>
       <path id="CMR17-7b" d="M 2496 2183 
C 2656 2579 2944 2585 3033 2585 
L 3033 2752 
C 2912 2745 2752 2739 2630 2739 
C 2496 2739 2284 2739 2156 2752 
L 2156 2585 
C 2400 2566 2406 2384 2406 2332 
C 2406 2268 2393 2235 2361 2158 
L 1664 409 
L 902 2300 
C 870 2378 870 2423 870 2430 
C 870 2572 1017 2585 1171 2585 
L 1171 2752 
C 1017 2739 742 2739 582 2739 
C 409 2739 204 2739 64 2752 
L 64 2585 
C 409 2585 448 2553 531 2345 
L 1484 -31 
C 1196 -795 1030 -1242 627 -1242 
C 556 -1242 396 -1223 281 -1106 
C 428 -1093 492 -1002 492 -892 
C 492 -782 416 -685 288 -685 
C 147 -685 76 -782 76 -899 
C 76 -1158 339 -1344 627 -1344 
C 998 -1344 1228 -983 1356 -659 
L 2496 2183 
z
" transform="scale(0.015625)"/>
      </defs>
      <use xlink:href="#CMR17-54" transform="scale(0.996264)"/>
      <use xlink:href="#CMR17-67" transform="translate(67.791102 0) scale(0.996264)"/>
      <use xlink:href="#CMR17-72" transform="translate(108.276762 0) scale(0.996264)"/>
      <use xlink:href="#CMR17-71" transform="translate(161.774571 0) scale(0.996264)"/>
      <use xlink:href="#CMR17-75" transform="translate(207.465048 0) scale(0.996264)"/>
      <use xlink:href="#CMR17-6b" transform="translate(243.266386 0) scale(0.996264)"/>
      <use xlink:href="#CMR17-76" transform="translate(268.137444 0) scale(0.996264)"/>
      <use xlink:href="#CMR17-71" transform="translate(303.418212 0) scale(0.996264)"/>
      <use xlink:href="#CMR17-74" transform="translate(349.108689 0) scale(0.996264)"/>
      <use xlink:href="#CMR17-7b" transform="translate(384.389457 0) scale(0.996264)"/>
      <use xlink:href="#CMR17-43" transform="translate(462.758339 0) scale(0.996264)"/>
      <use xlink:href="#CMR17-74" transform="translate(531.830769 0) scale(0.996264)"/>
      <use xlink:href="#CMR17-76" transform="translate(567.111537 0) scale(0.996264)"/>
      <use xlink:href="#CMR17-6b" transform="translate(602.392304 0) scale(0.996264)"/>
      <use xlink:href="#CMR17-65" transform="translate(627.263363 0) scale(0.996264)"/>
      <use xlink:href="#CMR17-6e" transform="translate(667.749023 0) scale(0.996264)"/>
      <use xlink:href="#CMR17-67" transform="translate(692.620082 0) scale(0.996264)"/>
      <use xlink:href="#CMR17-75" transform="translate(733.105742 0) scale(0.996264)"/>
     </g>
    </g>
    <g id="patch_97">
     <path d="M 54.279643 162.778052 
L 76.279643 162.778052 
L 76.279643 155.078052 
L 54.279643 155.078052 
z
" style="fill: #17becf"/>
    </g>
    <g id="text_37">
     <!-- Specialization Monographs -->
     <g transform="translate(85.079643 162.778052) scale(0.11 -0.11)">
      <defs>
       <path id="CMR17-55" d="M 2803 4351 
C 2803 4467 2796 4473 2758 4473 
C 2720 4473 2707 4447 2681 4390 
L 2489 3965 
C 2246 4320 1875 4480 1472 4480 
C 819 4480 294 3958 294 3301 
C 294 3101 339 2817 556 2546 
C 793 2250 1017 2198 1529 2063 
C 1721 2011 2041 1927 2105 1901 
C 2470 1747 2662 1360 2662 999 
C 2662 534 2336 38 1779 38 
C 1094 38 454 425 409 1328 
C 403 1431 396 1437 352 1437 
C 300 1437 294 1431 294 1302 
L 294 0 
C 294 -116 300 -122 339 -122 
C 384 -122 396 -90 486 109 
C 492 128 492 141 614 386 
C 934 -39 1472 -128 1779 -128 
C 2476 -128 2969 457 2969 1141 
C 2969 1476 2848 1734 2777 1850 
C 2508 2263 2220 2340 1913 2417 
C 1868 2437 1856 2437 1497 2527 
C 1152 2617 1004 2662 844 2836 
C 665 3036 601 3243 601 3449 
C 601 3868 934 4326 1478 4326 
C 2156 4326 2579 3842 2675 3036 
C 2694 2920 2700 2914 2745 2914 
C 2803 2914 2803 2933 2803 3043 
L 2803 4351 
z
" transform="scale(0.015625)"/>
       <path id="CMR17-7c" d="M 2310 2604 
C 2361 2668 2361 2681 2361 2694 
C 2361 2752 2336 2752 2220 2752 
L 275 2752 
L 211 1760 
L 326 1760 
C 371 2380 441 2649 1177 2649 
L 1958 2649 
L 128 96 
C 128 6 134 0 268 0 
L 2291 0 
L 2380 1152 
L 2265 1152 
C 2214 441 2131 115 1350 115 
L 531 115 
L 2310 2604 
z
" transform="scale(0.015625)"/>
      </defs>
      <use xlink:href="#CMR17-55" transform="scale(0.996264)"/>
      <use xlink:href="#CMR17-72" transform="translate(50.89537 0) scale(0.996264)"/>
      <use xlink:href="#CMR17-67" transform="translate(104.393178 0) scale(0.996264)"/>
      <use xlink:href="#CMR17-65" transform="translate(144.878839 0) scale(0.996264)"/>
      <use xlink:href="#CMR17-6b" transform="translate(185.364499 0) scale(0.996264)"/>
      <use xlink:href="#CMR17-63" transform="translate(210.235558 0) scale(0.996264)"/>
      <use xlink:href="#CMR17-6e" transform="translate(255.926035 0) scale(0.996264)"/>
      <use xlink:href="#CMR17-6b" transform="translate(280.797093 0) scale(0.996264)"/>
      <use xlink:href="#CMR17-7c" transform="translate(305.668152 0) scale(0.996264)"/>
      <use xlink:href="#CMR17-63" transform="translate(346.153812 0) scale(0.996264)"/>
      <use xlink:href="#CMR17-76" transform="translate(391.844289 0) scale(0.996264)"/>
      <use xlink:href="#CMR17-6b" transform="translate(427.125057 0) scale(0.996264)"/>
      <use xlink:href="#CMR17-71" transform="translate(451.996116 0) scale(0.996264)"/>
      <use xlink:href="#CMR17-70" transform="translate(497.686593 0) scale(0.996264)"/>
      <use xlink:href="#CMR17-4f" transform="translate(578.657929 0) scale(0.996264)"/>
      <use xlink:href="#CMR17-71" transform="translate(663.344869 0) scale(0.996264)"/>
      <use xlink:href="#CMR17-70" transform="translate(709.035347 0) scale(0.996264)"/>
      <use xlink:href="#CMR17-71" transform="translate(759.930716 0) scale(0.996264)"/>
      <use xlink:href="#CMR17-69" transform="translate(805.621193 0) scale(0.996264)"/>
      <use xlink:href="#CMR17-74" transform="translate(851.311671 0) scale(0.996264)"/>
      <use xlink:href="#CMR17-63" transform="translate(886.592438 0) scale(0.996264)"/>
      <use xlink:href="#CMR17-72" transform="translate(932.282916 0) scale(0.996264)"/>
      <use xlink:href="#CMR17-6a" transform="translate(983.178285 0) scale(0.996264)"/>
      <use xlink:href="#CMR17-75" transform="translate(1034.073655 0) scale(0.996264)"/>
     </g>
    </g>
   </g>
  </g>
 </g>
 <defs>
  <clipPath id="p7520e032f4">
   <rect x="44.379643" y="7.2" width="669.6" height="498.96"/>
  </clipPath>
 </defs>
</svg>
