<?xml version="1.0" encoding="utf-8" standalone="no"?>
<!DOCTYPE svg PUBLIC "-//W3C//DTD SVG 1.1//EN"
  "http://www.w3.org/Graphics/SVG/1.1/DTD/svg11.dtd">
<svg xmlns:xlink="http://www.w3.org/1999/xlink" width="721.179643pt" height="543.842483pt" viewBox="0 0 721.179643 543.842483" xmlns="http://www.w3.org/2000/svg" version="1.1">
 <metadata>
  <rdf:RDF xmlns:dc="http://purl.org/dc/elements/1.1/" xmlns:cc="http://creativecommons.org/ns#" xmlns:rdf="http://www.w3.org/1999/02/22-rdf-syntax-ns#">
   <cc:Work>
    <dc:type rdf:resource="http://purl.org/dc/dcmitype/StillImage"/>
    <dc:date>2025-07-18T14:59:26.247581</dc:date>
    <dc:format>image/svg+xml</dc:format>
    <dc:creator>
     <cc:Agent>
      <dc:title>Matplotlib v3.10.1, https://matplotlib.org/</dc:title>
     </cc:Agent>
    </dc:creator>
   </cc:Work>
  </rdf:RDF>
 </metadata>
 <defs>
  <style type="text/css">*{stroke-linejoin: round; stroke-linecap: butt}</style>
 </defs>
 <g id="figure_1">
  <g id="patch_1">
   <path d="M 0 543.842483 
L 721.179643 543.842483 
L 721.179643 0 
L 0 0 
z
" style="fill: #ffffff"/>
  </g>
  <g id="axes_1">
   <g id="patch_2">
    <path d="M 44.379643 506.16 
L 713.979643 506.16 
L 713.979643 7.2 
L 44.379643 7.2 
z
" style="fill: #ffffff"/>
   </g>
   <g id="patch_3">
    <path d="M 68.293929 506.16 
L 116.1225 506.16 
L 116.1225 506.16 
L 68.293929 506.16 
z
" clip-path="url(#p825417de6d)" style="fill: #1f77b4"/>
   </g>
   <g id="patch_4">
    <path d="M 163.951072 506.16 
L 211.779643 506.16 
L 211.779643 506.16 
L 163.951072 506.16 
z
" clip-path="url(#p825417de6d)" style="fill: #1f77b4"/>
   </g>
   <g id="patch_5">
    <path d="M 259.608215 506.16 
L 307.436786 506.16 
L 307.436786 506.16 
L 259.608215 506.16 
z
" clip-path="url(#p825417de6d)" style="fill: #1f77b4"/>
   </g>
   <g id="patch_6">
    <path d="M 355.265357 506.16 
L 403.093929 506.16 
L 403.093929 506.16 
L 355.265357 506.16 
z
" clip-path="url(#p825417de6d)" style="fill: #1f77b4"/>
   </g>
   <g id="patch_7">
    <path d="M 450.9225 506.16 
L 498.751072 506.16 
L 498.751072 506.16 
L 450.9225 506.16 
z
" clip-path="url(#p825417de6d)" style="fill: #1f77b4"/>
   </g>
   <g id="patch_8">
    <path d="M 546.579643 506.16 
L 594.408215 506.16 
L 594.408215 506.16 
L 546.579643 506.16 
z
" clip-path="url(#p825417de6d)" style="fill: #1f77b4"/>
   </g>
   <g id="patch_9">
    <path d="M 642.236786 506.16 
L 690.065357 506.16 
L 690.065357 501.878919 
L 642.236786 501.878919 
z
" clip-path="url(#p825417de6d)" style="fill: #1f77b4"/>
   </g>
   <g id="patch_10">
    <path d="M 68.293929 506.16 
L 116.1225 506.16 
L 116.1225 501.878919 
L 68.293929 501.878919 
z
" clip-path="url(#p825417de6d)" style="fill: #ff7f0e"/>
   </g>
   <g id="patch_11">
    <path d="M 163.951072 506.16 
L 211.779643 506.16 
L 211.779643 467.63027 
L 163.951072 467.63027 
z
" clip-path="url(#p825417de6d)" style="fill: #ff7f0e"/>
   </g>
   <g id="patch_12">
    <path d="M 259.608215 506.16 
L 307.436786 506.16 
L 307.436786 429.100541 
L 259.608215 429.100541 
z
" clip-path="url(#p825417de6d)" style="fill: #ff7f0e"/>
   </g>
   <g id="patch_13">
    <path d="M 355.265357 506.16 
L 403.093929 506.16 
L 403.093929 416.257297 
L 355.265357 416.257297 
z
" clip-path="url(#p825417de6d)" style="fill: #ff7f0e"/>
   </g>
   <g id="patch_14">
    <path d="M 450.9225 506.16 
L 498.751072 506.16 
L 498.751072 399.132973 
L 450.9225 399.132973 
z
" clip-path="url(#p825417de6d)" style="fill: #ff7f0e"/>
   </g>
   <g id="patch_15">
    <path d="M 546.579643 506.16 
L 594.408215 506.16 
L 594.408215 386.28973 
L 546.579643 386.28973 
z
" clip-path="url(#p825417de6d)" style="fill: #ff7f0e"/>
   </g>
   <g id="patch_16">
    <path d="M 642.236786 501.878919 
L 690.065357 501.878919 
L 690.065357 377.727568 
L 642.236786 377.727568 
z
" clip-path="url(#p825417de6d)" style="fill: #ff7f0e"/>
   </g>
   <g id="patch_17">
    <path d="M 68.293929 506.16 
L 116.1225 506.16 
L 116.1225 506.16 
L 68.293929 506.16 
z
" clip-path="url(#p825417de6d)" style="fill: #2ca02c"/>
   </g>
   <g id="patch_18">
    <path d="M 163.951072 506.16 
L 211.779643 506.16 
L 211.779643 506.16 
L 163.951072 506.16 
z
" clip-path="url(#p825417de6d)" style="fill: #2ca02c"/>
   </g>
   <g id="patch_19">
    <path d="M 259.608215 506.16 
L 307.436786 506.16 
L 307.436786 506.16 
L 259.608215 506.16 
z
" clip-path="url(#p825417de6d)" style="fill: #2ca02c"/>
   </g>
   <g id="patch_20">
    <path d="M 355.265357 506.16 
L 403.093929 506.16 
L 403.093929 506.16 
L 355.265357 506.16 
z
" clip-path="url(#p825417de6d)" style="fill: #2ca02c"/>
   </g>
   <g id="patch_21">
    <path d="M 450.9225 506.16 
L 498.751072 506.16 
L 498.751072 506.16 
L 450.9225 506.16 
z
" clip-path="url(#p825417de6d)" style="fill: #2ca02c"/>
   </g>
   <g id="patch_22">
    <path d="M 546.579643 506.16 
L 594.408215 506.16 
L 594.408215 506.16 
L 546.579643 506.16 
z
" clip-path="url(#p825417de6d)" style="fill: #2ca02c"/>
   </g>
   <g id="patch_23">
    <path d="M 642.236786 377.727568 
L 690.065357 377.727568 
L 690.065357 373.446486 
L 642.236786 373.446486 
z
" clip-path="url(#p825417de6d)" style="fill: #2ca02c"/>
   </g>
   <g id="patch_24">
    <path d="M 68.293929 501.878919 
L 116.1225 501.878919 
L 116.1225 497.597838 
L 68.293929 497.597838 
z
" clip-path="url(#p825417de6d)" style="fill: #d62728"/>
   </g>
   <g id="patch_25">
    <path d="M 163.951072 467.63027 
L 211.779643 467.63027 
L 211.779643 463.349189 
L 163.951072 463.349189 
z
" clip-path="url(#p825417de6d)" style="fill: #d62728"/>
   </g>
   <g id="patch_26">
    <path d="M 259.608215 429.100541 
L 307.436786 429.100541 
L 307.436786 424.819459 
L 259.608215 424.819459 
z
" clip-path="url(#p825417de6d)" style="fill: #d62728"/>
   </g>
   <g id="patch_27">
    <path d="M 355.265357 416.257297 
L 403.093929 416.257297 
L 403.093929 411.976216 
L 355.265357 411.976216 
z
" clip-path="url(#p825417de6d)" style="fill: #d62728"/>
   </g>
   <g id="patch_28">
    <path d="M 450.9225 399.132973 
L 498.751072 399.132973 
L 498.751072 382.008649 
L 450.9225 382.008649 
z
" clip-path="url(#p825417de6d)" style="fill: #d62728"/>
   </g>
   <g id="patch_29">
    <path d="M 546.579643 386.28973 
L 594.408215 386.28973 
L 594.408215 360.603243 
L 546.579643 360.603243 
z
" clip-path="url(#p825417de6d)" style="fill: #d62728"/>
   </g>
   <g id="patch_30">
    <path d="M 642.236786 373.446486 
L 690.065357 373.446486 
L 690.065357 343.478919 
L 642.236786 343.478919 
z
" clip-path="url(#p825417de6d)" style="fill: #d62728"/>
   </g>
   <g id="patch_31">
    <path d="M 68.293929 506.16 
L 116.1225 506.16 
L 116.1225 506.16 
L 68.293929 506.16 
z
" clip-path="url(#p825417de6d)" style="fill: #9467bd"/>
   </g>
   <g id="patch_32">
    <path d="M 163.951072 463.349189 
L 211.779643 463.349189 
L 211.779643 459.068108 
L 163.951072 459.068108 
z
" clip-path="url(#p825417de6d)" style="fill: #9467bd"/>
   </g>
   <g id="patch_33">
    <path d="M 259.608215 424.819459 
L 307.436786 424.819459 
L 307.436786 420.538378 
L 259.608215 420.538378 
z
" clip-path="url(#p825417de6d)" style="fill: #9467bd"/>
   </g>
   <g id="patch_34">
    <path d="M 355.265357 411.976216 
L 403.093929 411.976216 
L 403.093929 403.414054 
L 355.265357 403.414054 
z
" clip-path="url(#p825417de6d)" style="fill: #9467bd"/>
   </g>
   <g id="patch_35">
    <path d="M 450.9225 382.008649 
L 498.751072 382.008649 
L 498.751072 369.165405 
L 450.9225 369.165405 
z
" clip-path="url(#p825417de6d)" style="fill: #9467bd"/>
   </g>
   <g id="patch_36">
    <path d="M 546.579643 360.603243 
L 594.408215 360.603243 
L 594.408215 347.76 
L 546.579643 347.76 
z
" clip-path="url(#p825417de6d)" style="fill: #9467bd"/>
   </g>
   <g id="patch_37">
    <path d="M 642.236786 343.478919 
L 690.065357 343.478919 
L 690.065357 326.354595 
L 642.236786 326.354595 
z
" clip-path="url(#p825417de6d)" style="fill: #9467bd"/>
   </g>
   <g id="patch_38">
    <path d="M 68.293929 497.597838 
L 116.1225 497.597838 
L 116.1225 493.316757 
L 68.293929 493.316757 
z
" clip-path="url(#p825417de6d)" style="fill: #8c564b"/>
   </g>
   <g id="patch_39">
    <path d="M 163.951072 459.068108 
L 211.779643 459.068108 
L 211.779643 446.224865 
L 163.951072 446.224865 
z
" clip-path="url(#p825417de6d)" style="fill: #8c564b"/>
   </g>
   <g id="patch_40">
    <path d="M 259.608215 420.538378 
L 307.436786 420.538378 
L 307.436786 377.727568 
L 259.608215 377.727568 
z
" clip-path="url(#p825417de6d)" style="fill: #8c564b"/>
   </g>
   <g id="patch_41">
    <path d="M 355.265357 403.414054 
L 403.093929 403.414054 
L 403.093929 322.073514 
L 355.265357 322.073514 
z
" clip-path="url(#p825417de6d)" style="fill: #8c564b"/>
   </g>
   <g id="patch_42">
    <path d="M 450.9225 369.165405 
L 498.751072 369.165405 
L 498.751072 232.170811 
L 450.9225 232.170811 
z
" clip-path="url(#p825417de6d)" style="fill: #8c564b"/>
   </g>
   <g id="patch_43">
    <path d="M 546.579643 347.76 
L 594.408215 347.76 
L 594.408215 159.392432 
L 546.579643 159.392432 
z
" clip-path="url(#p825417de6d)" style="fill: #8c564b"/>
   </g>
   <g id="patch_44">
    <path d="M 642.236786 326.354595 
L 690.065357 326.354595 
L 690.065357 112.300541 
L 642.236786 112.300541 
z
" clip-path="url(#p825417de6d)" style="fill: #8c564b"/>
   </g>
   <g id="patch_45">
    <path d="M 68.293929 506.16 
L 116.1225 506.16 
L 116.1225 506.16 
L 68.293929 506.16 
z
" clip-path="url(#p825417de6d)" style="fill: #e377c2"/>
   </g>
   <g id="patch_46">
    <path d="M 163.951072 446.224865 
L 211.779643 446.224865 
L 211.779643 433.381622 
L 163.951072 433.381622 
z
" clip-path="url(#p825417de6d)" style="fill: #e377c2"/>
   </g>
   <g id="patch_47">
    <path d="M 259.608215 377.727568 
L 307.436786 377.727568 
L 307.436786 347.76 
L 259.608215 347.76 
z
" clip-path="url(#p825417de6d)" style="fill: #e377c2"/>
   </g>
   <g id="patch_48">
    <path d="M 355.265357 322.073514 
L 403.093929 322.073514 
L 403.093929 287.824865 
L 355.265357 287.824865 
z
" clip-path="url(#p825417de6d)" style="fill: #e377c2"/>
   </g>
   <g id="patch_49">
    <path d="M 450.9225 232.170811 
L 498.751072 232.170811 
L 498.751072 193.641081 
L 450.9225 193.641081 
z
" clip-path="url(#p825417de6d)" style="fill: #e377c2"/>
   </g>
   <g id="patch_50">
    <path d="M 546.579643 159.392432 
L 594.408215 159.392432 
L 594.408215 116.581622 
L 546.579643 116.581622 
z
" clip-path="url(#p825417de6d)" style="fill: #e377c2"/>
   </g>
   <g id="patch_51">
    <path d="M 642.236786 112.300541 
L 690.065357 112.300541 
L 690.065357 69.48973 
L 642.236786 69.48973 
z
" clip-path="url(#p825417de6d)" style="fill: #e377c2"/>
   </g>
   <g id="patch_52">
    <path d="M 68.293929 506.16 
L 116.1225 506.16 
L 116.1225 506.16 
L 68.293929 506.16 
z
" clip-path="url(#p825417de6d)" style="fill: #7f7f7f"/>
   </g>
   <g id="patch_53">
    <path d="M 163.951072 506.16 
L 211.779643 506.16 
L 211.779643 506.16 
L 163.951072 506.16 
z
" clip-path="url(#p825417de6d)" style="fill: #7f7f7f"/>
   </g>
   <g id="patch_54">
    <path d="M 259.608215 506.16 
L 307.436786 506.16 
L 307.436786 506.16 
L 259.608215 506.16 
z
" clip-path="url(#p825417de6d)" style="fill: #7f7f7f"/>
   </g>
   <g id="patch_55">
    <path d="M 355.265357 287.824865 
L 403.093929 287.824865 
L 403.093929 283.543784 
L 355.265357 283.543784 
z
" clip-path="url(#p825417de6d)" style="fill: #7f7f7f"/>
   </g>
   <g id="patch_56">
    <path d="M 450.9225 193.641081 
L 498.751072 193.641081 
L 498.751072 189.36 
L 450.9225 189.36 
z
" clip-path="url(#p825417de6d)" style="fill: #7f7f7f"/>
   </g>
   <g id="patch_57">
    <path d="M 546.579643 116.581622 
L 594.408215 116.581622 
L 594.408215 112.300541 
L 546.579643 112.300541 
z
" clip-path="url(#p825417de6d)" style="fill: #7f7f7f"/>
   </g>
   <g id="patch_58">
    <path d="M 642.236786 69.48973 
L 690.065357 69.48973 
L 690.065357 65.208649 
L 642.236786 65.208649 
z
" clip-path="url(#p825417de6d)" style="fill: #7f7f7f"/>
   </g>
   <g id="patch_59">
    <path d="M 68.293929 506.16 
L 116.1225 506.16 
L 116.1225 506.16 
L 68.293929 506.16 
z
" clip-path="url(#p825417de6d)" style="fill: #bcbd22"/>
   </g>
   <g id="patch_60">
    <path d="M 163.951072 506.16 
L 211.779643 506.16 
L 211.779643 506.16 
L 163.951072 506.16 
z
" clip-path="url(#p825417de6d)" style="fill: #bcbd22"/>
   </g>
   <g id="patch_61">
    <path d="M 259.608215 347.76 
L 307.436786 347.76 
L 307.436786 334.916757 
L 259.608215 334.916757 
z
" clip-path="url(#p825417de6d)" style="fill: #bcbd22"/>
   </g>
   <g id="patch_62">
    <path d="M 355.265357 283.543784 
L 403.093929 283.543784 
L 403.093929 266.419459 
L 355.265357 266.419459 
z
" clip-path="url(#p825417de6d)" style="fill: #bcbd22"/>
   </g>
   <g id="patch_63">
    <path d="M 450.9225 189.36 
L 498.751072 189.36 
L 498.751072 159.392432 
L 450.9225 159.392432 
z
" clip-path="url(#p825417de6d)" style="fill: #bcbd22"/>
   </g>
   <g id="patch_64">
    <path d="M 546.579643 112.300541 
L 594.408215 112.300541 
L 594.408215 82.332973 
L 546.579643 82.332973 
z
" clip-path="url(#p825417de6d)" style="fill: #bcbd22"/>
   </g>
   <g id="patch_65">
    <path d="M 642.236786 65.208649 
L 690.065357 65.208649 
L 690.065357 35.241081 
L 642.236786 35.241081 
z
" clip-path="url(#p825417de6d)" style="fill: #bcbd22"/>
   </g>
   <g id="patch_66">
    <path d="M 68.293929 506.16 
L 116.1225 506.16 
L 116.1225 506.16 
L 68.293929 506.16 
z
" clip-path="url(#p825417de6d)" style="fill: #17becf"/>
   </g>
   <g id="patch_67">
    <path d="M 163.951072 506.16 
L 211.779643 506.16 
L 211.779643 506.16 
L 163.951072 506.16 
z
" clip-path="url(#p825417de6d)" style="fill: #17becf"/>
   </g>
   <g id="patch_68">
    <path d="M 259.608215 506.16 
L 307.436786 506.16 
L 307.436786 506.16 
L 259.608215 506.16 
z
" clip-path="url(#p825417de6d)" style="fill: #17becf"/>
   </g>
   <g id="patch_69">
    <path d="M 355.265357 266.419459 
L 403.093929 266.419459 
L 403.093929 262.138378 
L 355.265357 262.138378 
z
" clip-path="url(#p825417de6d)" style="fill: #17becf"/>
   </g>
   <g id="patch_70">
    <path d="M 450.9225 159.392432 
L 498.751072 159.392432 
L 498.751072 155.111351 
L 450.9225 155.111351 
z
" clip-path="url(#p825417de6d)" style="fill: #17becf"/>
   </g>
   <g id="patch_71">
    <path d="M 546.579643 82.332973 
L 594.408215 82.332973 
L 594.408215 78.051892 
L 546.579643 78.051892 
z
" clip-path="url(#p825417de6d)" style="fill: #17becf"/>
   </g>
   <g id="patch_72">
    <path d="M 642.236786 35.241081 
L 690.065357 35.241081 
L 690.065357 30.96 
L 642.236786 30.96 
z
" clip-path="url(#p825417de6d)" style="fill: #17becf"/>
   </g>
   <g id="matplotlib.axis_1">
    <g id="xtick_1">
     <g id="line2d_1">
      <defs>
       <path id="m81c80a3528" d="M 0 0 
L 0 3.5 
" style="stroke: #000000; stroke-width: 0.8"/>
      </defs>
      <g>
       <use xlink:href="#m81c80a3528" x="92.208215" y="506.16" style="stroke: #000000; stroke-width: 0.8"/>
      </g>
     </g>
     <g id="text_1">
      <!-- 2019 -->
      <g transform="translate(81.24928 520.770347) scale(0.11 -0.11)">
       <defs>
        <path id="CMR17-32" d="M 2669 989 
L 2554 989 
C 2490 536 2438 459 2413 420 
C 2381 369 1920 369 1830 369 
L 602 369 
C 832 619 1280 1072 1824 1597 
C 2214 1967 2669 2402 2669 3035 
C 2669 3790 2067 4224 1395 4224 
C 691 4224 262 3604 262 3030 
C 262 2780 448 2748 525 2748 
C 589 2748 781 2787 781 3010 
C 781 3207 614 3264 525 3264 
C 486 3264 448 3258 422 3245 
C 544 3790 915 4058 1306 4058 
C 1862 4058 2227 3617 2227 3035 
C 2227 2479 1901 2000 1536 1584 
L 262 146 
L 262 0 
L 2515 0 
L 2669 989 
z
" transform="scale(0.015625)"/>
        <path id="CMR17-30" d="M 2688 2025 
C 2688 2416 2682 3080 2413 3591 
C 2176 4039 1798 4198 1466 4198 
C 1158 4198 768 4058 525 3597 
C 269 3118 243 2524 243 2025 
C 243 1661 250 1106 448 619 
C 723 -39 1216 -128 1466 -128 
C 1760 -128 2208 -7 2470 600 
C 2662 1042 2688 1559 2688 2025 
z
M 1466 -26 
C 1056 -26 813 325 723 812 
C 653 1188 653 1738 653 2096 
C 653 2588 653 2997 736 3387 
C 858 3929 1216 4096 1466 4096 
C 1728 4096 2067 3923 2189 3400 
C 2272 3036 2278 2607 2278 2096 
C 2278 1680 2278 1169 2202 792 
C 2067 95 1690 -26 1466 -26 
z
" transform="scale(0.015625)"/>
        <path id="CMR17-31" d="M 1702 4058 
C 1702 4192 1696 4192 1606 4192 
C 1357 3916 979 3827 621 3827 
C 602 3827 570 3827 563 3808 
C 557 3795 557 3782 557 3648 
C 755 3648 1088 3686 1344 3839 
L 1344 461 
C 1344 236 1331 160 781 160 
L 589 160 
L 589 0 
C 896 0 1216 0 1523 0 
C 1830 0 2150 0 2458 0 
L 2458 160 
L 2266 160 
C 1715 160 1702 230 1702 458 
L 1702 4058 
z
" transform="scale(0.015625)"/>
        <path id="CMR17-39" d="M 2253 1864 
C 2253 464 1670 31 1190 31 
C 1043 31 685 31 538 294 
C 704 268 826 357 826 518 
C 826 692 685 749 595 749 
C 538 749 365 723 365 506 
C 365 71 742 -128 1203 -128 
C 1939 -128 2688 674 2688 2073 
C 2688 3817 1971 4179 1485 4179 
C 851 4179 243 3628 243 2778 
C 243 1991 762 1408 1414 1408 
C 1952 1408 2189 1903 2253 2112 
L 2253 1864 
z
M 1427 1510 
C 1254 1510 1011 1542 813 1922 
C 678 2169 678 2461 678 2771 
C 678 3146 678 3405 858 3684 
C 947 3817 1114 4032 1485 4032 
C 2240 4032 2240 2885 2240 2632 
C 2240 2182 2035 1510 1427 1510 
z
" transform="scale(0.015625)"/>
       </defs>
       <use xlink:href="#CMR17-32" transform="scale(0.996264)"/>
       <use xlink:href="#CMR17-30" transform="translate(45.690477 0) scale(0.996264)"/>
       <use xlink:href="#CMR17-31" transform="translate(91.380954 0) scale(0.996264)"/>
       <use xlink:href="#CMR17-39" transform="translate(137.071431 0) scale(0.996264)"/>
      </g>
     </g>
    </g>
    <g id="xtick_2">
     <g id="line2d_2">
      <g>
       <use xlink:href="#m81c80a3528" x="187.865357" y="506.16" style="stroke: #000000; stroke-width: 0.8"/>
      </g>
     </g>
     <g id="text_2">
      <!-- 2020 -->
      <g transform="translate(176.906423 520.770347) scale(0.11 -0.11)">
       <use xlink:href="#CMR17-32" transform="scale(0.996264)"/>
       <use xlink:href="#CMR17-30" transform="translate(45.690477 0) scale(0.996264)"/>
       <use xlink:href="#CMR17-32" transform="translate(91.380954 0) scale(0.996264)"/>
       <use xlink:href="#CMR17-30" transform="translate(137.071431 0) scale(0.996264)"/>
      </g>
     </g>
    </g>
    <g id="xtick_3">
     <g id="line2d_3">
      <g>
       <use xlink:href="#m81c80a3528" x="283.5225" y="506.16" style="stroke: #000000; stroke-width: 0.8"/>
      </g>
     </g>
     <g id="text_3">
      <!-- 2021 -->
      <g transform="translate(272.563566 520.770347) scale(0.11 -0.11)">
       <use xlink:href="#CMR17-32" transform="scale(0.996264)"/>
       <use xlink:href="#CMR17-30" transform="translate(45.690477 0) scale(0.996264)"/>
       <use xlink:href="#CMR17-32" transform="translate(91.380954 0) scale(0.996264)"/>
       <use xlink:href="#CMR17-31" transform="translate(137.071431 0) scale(0.996264)"/>
      </g>
     </g>
    </g>
    <g id="xtick_4">
     <g id="line2d_4">
      <g>
       <use xlink:href="#m81c80a3528" x="379.179643" y="506.16" style="stroke: #000000; stroke-width: 0.8"/>
      </g>
     </g>
     <g id="text_4">
      <!-- 2022 -->
      <g transform="translate(368.220709 520.770347) scale(0.11 -0.11)">
       <use xlink:href="#CMR17-32" transform="scale(0.996264)"/>
       <use xlink:href="#CMR17-30" transform="translate(45.690477 0) scale(0.996264)"/>
       <use xlink:href="#CMR17-32" transform="translate(91.380954 0) scale(0.996264)"/>
       <use xlink:href="#CMR17-32" transform="translate(137.071431 0) scale(0.996264)"/>
      </g>
     </g>
    </g>
    <g id="xtick_5">
     <g id="line2d_5">
      <g>
       <use xlink:href="#m81c80a3528" x="474.836786" y="506.16" style="stroke: #000000; stroke-width: 0.8"/>
      </g>
     </g>
     <g id="text_5">
      <!-- 2023 -->
      <g transform="translate(463.877851 520.770347) scale(0.11 -0.11)">
       <defs>
        <path id="CMR17-33" d="M 1414 2157 
C 1984 2157 2234 1662 2234 1090 
C 2234 320 1824 25 1453 25 
C 1114 25 563 194 390 693 
C 422 680 454 680 486 680 
C 640 680 755 782 755 948 
C 755 1133 614 1216 486 1216 
C 378 1216 211 1165 211 926 
C 211 335 787 -128 1466 -128 
C 2176 -128 2720 430 2720 1085 
C 2720 1707 2208 2157 1600 2227 
C 2086 2328 2554 2756 2554 3329 
C 2554 3820 2048 4179 1472 4179 
C 890 4179 378 3829 378 3329 
C 378 3110 544 3072 627 3072 
C 762 3072 877 3155 877 3321 
C 877 3486 762 3569 627 3569 
C 602 3569 570 3569 544 3557 
C 730 3959 1235 4032 1459 4032 
C 1683 4032 2106 3925 2106 3320 
C 2106 3143 2080 2828 1862 2550 
C 1670 2304 1453 2304 1242 2284 
C 1210 2284 1062 2269 1037 2269 
C 992 2263 966 2257 966 2208 
C 966 2163 973 2157 1101 2157 
L 1414 2157 
z
" transform="scale(0.015625)"/>
       </defs>
       <use xlink:href="#CMR17-32" transform="scale(0.996264)"/>
       <use xlink:href="#CMR17-30" transform="translate(45.690477 0) scale(0.996264)"/>
       <use xlink:href="#CMR17-32" transform="translate(91.380954 0) scale(0.996264)"/>
       <use xlink:href="#CMR17-33" transform="translate(137.071431 0) scale(0.996264)"/>
      </g>
     </g>
    </g>
    <g id="xtick_6">
     <g id="line2d_6">
      <g>
       <use xlink:href="#m81c80a3528" x="570.493929" y="506.16" style="stroke: #000000; stroke-width: 0.8"/>
      </g>
     </g>
     <g id="text_6">
      <!-- 2024 -->
      <g transform="translate(559.534994 520.770347) scale(0.11 -0.11)">
       <defs>
        <path id="CMR17-34" d="M 2150 4122 
C 2150 4256 2144 4256 2029 4256 
L 128 1254 
L 128 1088 
L 1779 1088 
L 1779 457 
C 1779 224 1766 160 1318 160 
L 1197 160 
L 1197 0 
C 1402 0 1747 0 1965 0 
C 2182 0 2528 0 2733 0 
L 2733 160 
L 2611 160 
C 2163 160 2150 224 2150 457 
L 2150 1088 
L 2803 1088 
L 2803 1254 
L 2150 1254 
L 2150 4122 
z
M 1798 3703 
L 1798 1254 
L 256 1254 
L 1798 3703 
z
" transform="scale(0.015625)"/>
       </defs>
       <use xlink:href="#CMR17-32" transform="scale(0.996264)"/>
       <use xlink:href="#CMR17-30" transform="translate(45.690477 0) scale(0.996264)"/>
       <use xlink:href="#CMR17-32" transform="translate(91.380954 0) scale(0.996264)"/>
       <use xlink:href="#CMR17-34" transform="translate(137.071431 0) scale(0.996264)"/>
      </g>
     </g>
    </g>
    <g id="xtick_7">
     <g id="line2d_7">
      <g>
       <use xlink:href="#m81c80a3528" x="666.151072" y="506.16" style="stroke: #000000; stroke-width: 0.8"/>
      </g>
     </g>
     <g id="text_7">
      <!-- 2025 -->
      <g transform="translate(655.192137 520.770347) scale(0.11 -0.11)">
       <defs>
        <path id="CMR17-35" d="M 730 3692 
C 794 3666 1056 3584 1325 3584 
C 1920 3584 2246 3911 2432 4100 
C 2432 4157 2432 4192 2394 4192 
C 2387 4192 2374 4192 2323 4163 
C 2099 4058 1837 3973 1517 3973 
C 1325 3973 1037 3999 723 4139 
C 653 4171 640 4171 634 4171 
C 602 4171 595 4164 595 4037 
L 595 2203 
C 595 2089 595 2057 659 2057 
C 691 2057 704 2070 736 2114 
C 941 2401 1222 2522 1542 2522 
C 1766 2522 2246 2382 2246 1289 
C 2246 1085 2246 715 2054 421 
C 1894 159 1645 25 1370 25 
C 947 25 518 320 403 814 
C 429 807 480 795 506 795 
C 589 795 749 840 749 1038 
C 749 1210 627 1280 506 1280 
C 358 1280 262 1190 262 1011 
C 262 454 704 -128 1382 -128 
C 2042 -128 2669 440 2669 1264 
C 2669 2030 2170 2624 1549 2624 
C 1222 2624 947 2503 730 2274 
L 730 3692 
z
" transform="scale(0.015625)"/>
       </defs>
       <use xlink:href="#CMR17-32" transform="scale(0.996264)"/>
       <use xlink:href="#CMR17-30" transform="translate(45.690477 0) scale(0.996264)"/>
       <use xlink:href="#CMR17-32" transform="translate(91.380954 0) scale(0.996264)"/>
       <use xlink:href="#CMR17-35" transform="translate(137.071431 0) scale(0.996264)"/>
      </g>
     </g>
    </g>
    <g id="text_8">
     <!-- Year -->
     <g transform="translate(368.205499 534.511588) scale(0.11 -0.11)">
      <defs>
       <path id="CMR17-59" d="M 3706 3766 
C 3955 4160 4301 4160 4416 4160 
L 4416 4332 
C 4269 4319 4102 4319 3942 4319 
C 3782 4319 3526 4319 3373 4332 
L 3373 4160 
C 3533 4160 3616 4077 3616 3957 
C 3616 3881 3584 3830 3533 3747 
L 2381 1912 
L 1120 3912 
C 1075 3988 1069 3994 1069 4039 
C 1069 4160 1293 4160 1382 4160 
L 1382 4319 
C 1178 4319 864 4319 653 4319 
C 486 4319 166 4319 13 4332 
L 13 4160 
C 378 4160 480 4141 595 3958 
L 2010 1728 
L 2010 445 
C 2010 160 1939 160 1498 160 
L 1498 0 
C 1683 0 2016 0 2214 0 
C 2413 0 2752 0 2938 0 
L 2938 160 
C 2477 160 2419 160 2419 471 
L 2419 1728 
L 3706 3766 
z
" transform="scale(0.015625)"/>
       <path id="CMR17-65" d="M 2438 1472 
C 2464 1498 2464 1511 2464 1576 
C 2464 2238 2118 2816 1389 2816 
C 710 2816 173 2169 173 1383 
C 173 551 781 -64 1459 -64 
C 2176 -64 2458 607 2458 740 
C 2458 784 2419 784 2406 784 
C 2362 784 2355 771 2330 696 
C 2189 265 1837 51 1504 51 
C 1229 51 954 203 781 480 
C 582 803 582 1176 582 1472 
L 2438 1472 
z
M 589 1568 
C 634 2505 1126 2714 1382 2714 
C 1818 2714 2112 2297 2118 1568 
L 589 1568 
z
" transform="scale(0.015625)"/>
       <path id="CMR17-61" d="M 2304 1653 
C 2304 2072 2304 2294 2035 2543 
C 1798 2752 1523 2816 1306 2816 
C 800 2816 435 2407 435 1971 
C 435 1728 627 1728 666 1728 
C 749 1728 896 1778 896 1954 
C 896 2112 774 2181 666 2181 
C 640 2181 608 2174 589 2168 
C 723 2592 1069 2714 1293 2714 
C 1613 2714 1965 2429 1965 1885 
L 1965 1600 
C 1587 1600 1133 1549 774 1357 
C 371 1133 256 813 256 570 
C 256 77 832 -64 1171 -64 
C 1523 -64 1850 139 1990 511 
C 2003 233 2182 -18 2464 -18 
C 2598 -18 2938 70 2938 567 
L 2938 920 
L 2822 920 
L 2822 562 
C 2822 178 2650 128 2566 128 
C 2304 128 2304 458 2304 738 
L 2304 1653 
z
M 1965 870 
C 1965 317 1568 38 1216 38 
C 896 38 646 275 646 570 
C 646 761 730 1100 1101 1305 
C 1408 1478 1760 1504 1965 1504 
L 1965 870 
z
" transform="scale(0.015625)"/>
       <path id="CMR17-72" d="M 960 1497 
C 960 2112 1222 2688 1702 2688 
C 1747 2688 1792 2682 1837 2662 
C 1837 2662 1696 2617 1696 2452 
C 1696 2298 1818 2234 1914 2234 
C 1990 2234 2131 2279 2131 2458 
C 2131 2663 1926 2790 1709 2790 
C 1222 2790 1011 2317 947 2093 
L 941 2093 
L 941 2790 
L 198 2720 
L 198 2554 
C 576 2554 634 2515 634 2208 
L 634 428 
C 634 184 608 153 198 153 
L 198 -13 
C 352 0 646 0 813 0 
C 998 0 1325 0 1498 -13 
L 1498 153 
C 1037 153 960 153 960 440 
L 960 1497 
z
" transform="scale(0.015625)"/>
      </defs>
      <use xlink:href="#CMR17-59" transform="scale(0.996264)"/>
      <use xlink:href="#CMR17-65" transform="translate(61.265174 0) scale(0.996264)"/>
      <use xlink:href="#CMR17-61" transform="translate(101.750835 0) scale(0.996264)"/>
      <use xlink:href="#CMR17-72" transform="translate(147.441312 0) scale(0.996264)"/>
     </g>
    </g>
   </g>
   <g id="matplotlib.axis_2">
    <g id="ytick_1">
     <g id="line2d_8">
      <defs>
       <path id="mce240576fd" d="M 0 0 
L -3.5 0 
" style="stroke: #000000; stroke-width: 0.8"/>
      </defs>
      <g>
       <use xlink:href="#mce240576fd" x="44.379643" y="506.16" style="stroke: #000000; stroke-width: 0.8"/>
      </g>
     </g>
     <g id="text_9">
      <!-- $\mathdefault{0}$ -->
      <g transform="translate(31.900176 509.965173) scale(0.11 -0.11)">
       <use xlink:href="#CMR17-30" transform="scale(0.996264)"/>
      </g>
     </g>
    </g>
    <g id="ytick_2">
     <g id="line2d_9">
      <g>
       <use xlink:href="#mce240576fd" x="44.379643" y="420.538378" style="stroke: #000000; stroke-width: 0.8"/>
      </g>
     </g>
     <g id="text_10">
      <!-- $\mathdefault{20}$ -->
      <g transform="translate(26.420709 424.343552) scale(0.11 -0.11)">
       <use xlink:href="#CMR17-32" transform="scale(0.996264)"/>
       <use xlink:href="#CMR17-30" transform="translate(45.690477 0) scale(0.996264)"/>
      </g>
     </g>
    </g>
    <g id="ytick_3">
     <g id="line2d_10">
      <g>
       <use xlink:href="#mce240576fd" x="44.379643" y="334.916757" style="stroke: #000000; stroke-width: 0.8"/>
      </g>
     </g>
     <g id="text_11">
      <!-- $\mathdefault{40}$ -->
      <g transform="translate(26.420709 338.72193) scale(0.11 -0.11)">
       <use xlink:href="#CMR17-34" transform="scale(0.996264)"/>
       <use xlink:href="#CMR17-30" transform="translate(45.690477 0) scale(0.996264)"/>
      </g>
     </g>
    </g>
    <g id="ytick_4">
     <g id="line2d_11">
      <g>
       <use xlink:href="#mce240576fd" x="44.379643" y="249.295135" style="stroke: #000000; stroke-width: 0.8"/>
      </g>
     </g>
     <g id="text_12">
      <!-- $\mathdefault{60}$ -->
      <g transform="translate(26.420709 253.100308) scale(0.11 -0.11)">
       <defs>
        <path id="CMR17-36" d="M 678 2176 
C 678 3690 1395 4032 1811 4032 
C 1946 4032 2272 4009 2400 3776 
C 2298 3776 2106 3776 2106 3553 
C 2106 3381 2246 3323 2336 3323 
C 2394 3323 2566 3348 2566 3560 
C 2566 3954 2246 4179 1805 4179 
C 1043 4179 243 3390 243 1984 
C 243 253 966 -128 1478 -128 
C 2099 -128 2688 427 2688 1283 
C 2688 2081 2170 2662 1517 2662 
C 1126 2662 838 2407 678 1960 
L 678 2176 
z
M 1478 25 
C 691 25 691 1200 691 1436 
C 691 1896 909 2560 1504 2560 
C 1613 2560 1926 2560 2138 2120 
C 2253 1870 2253 1609 2253 1289 
C 2253 944 2253 690 2118 434 
C 1978 171 1773 25 1478 25 
z
" transform="scale(0.015625)"/>
       </defs>
       <use xlink:href="#CMR17-36" transform="scale(0.996264)"/>
       <use xlink:href="#CMR17-30" transform="translate(45.690477 0) scale(0.996264)"/>
      </g>
     </g>
    </g>
    <g id="ytick_5">
     <g id="line2d_12">
      <g>
       <use xlink:href="#mce240576fd" x="44.379643" y="163.673514" style="stroke: #000000; stroke-width: 0.8"/>
      </g>
     </g>
     <g id="text_13">
      <!-- $\mathdefault{80}$ -->
      <g transform="translate(26.420709 167.478687) scale(0.11 -0.11)">
       <defs>
        <path id="CMR17-38" d="M 1741 2264 
C 2144 2467 2554 2773 2554 3263 
C 2554 3841 1990 4179 1472 4179 
C 890 4179 378 3759 378 3180 
C 378 3021 416 2747 666 2505 
C 730 2442 998 2251 1171 2130 
C 883 1983 211 1634 211 934 
C 211 279 838 -128 1459 -128 
C 2144 -128 2720 362 2720 1010 
C 2720 1590 2330 1857 2074 2029 
L 1741 2264 
z
M 902 2822 
C 851 2854 595 3051 595 3351 
C 595 3739 998 4032 1459 4032 
C 1965 4032 2336 3676 2336 3262 
C 2336 2669 1670 2331 1638 2331 
C 1632 2331 1626 2331 1574 2370 
L 902 2822 
z
M 2080 1519 
C 2176 1449 2483 1240 2483 851 
C 2483 381 2010 25 1472 25 
C 890 25 448 438 448 940 
C 448 1443 838 1862 1280 2060 
L 2080 1519 
z
" transform="scale(0.015625)"/>
       </defs>
       <use xlink:href="#CMR17-38" transform="scale(0.996264)"/>
       <use xlink:href="#CMR17-30" transform="translate(45.690477 0) scale(0.996264)"/>
      </g>
     </g>
    </g>
    <g id="ytick_6">
     <g id="line2d_13">
      <g>
       <use xlink:href="#mce240576fd" x="44.379643" y="78.051892" style="stroke: #000000; stroke-width: 0.8"/>
      </g>
     </g>
     <g id="text_14">
      <!-- $\mathdefault{100}$ -->
      <g transform="translate(20.941241 81.857065) scale(0.11 -0.11)">
       <use xlink:href="#CMR17-31" transform="scale(0.996264)"/>
       <use xlink:href="#CMR17-30" transform="translate(45.690477 0) scale(0.996264)"/>
       <use xlink:href="#CMR17-30" transform="translate(91.380954 0) scale(0.996264)"/>
      </g>
     </g>
    </g>
    <g id="text_15">
     <!-- Number of Citations -->
     <g transform="translate(14.810347 306.040841) rotate(-90) scale(0.11 -0.11)">
      <defs>
       <path id="CMR17-4e" d="M 1312 4250 
C 1267 4320 1261 4320 1139 4320 
L 326 4320 
L 326 4160 
L 448 4160 
C 704 4160 819 4129 838 4122 
L 838 610 
C 838 451 838 153 326 153 
L 326 -13 
C 474 0 742 0 902 0 
C 1062 0 1331 0 1478 -13 
L 1478 153 
C 966 153 966 451 966 610 
L 966 4033 
C 1011 3995 1011 3982 1056 3919 
L 3430 76 
C 3475 0 3494 0 3526 0 
C 3590 0 3590 19 3590 139 
L 3590 3705 
C 3590 3863 3590 4160 4102 4160 
L 4102 4326 
C 3955 4320 3686 4320 3526 4320 
C 3366 4320 3098 4320 2950 4326 
L 2950 4160 
C 3462 4160 3462 3862 3462 3703 
L 3462 763 
L 1312 4250 
z
" transform="scale(0.015625)"/>
       <path id="CMR17-75" d="M 1882 2693 
L 1882 2528 
C 2259 2528 2317 2489 2317 2186 
L 2317 1032 
C 2317 500 2029 38 1555 38 
C 1030 38 986 348 986 678 
L 986 2763 
L 211 2693 
L 211 2528 
C 467 2528 640 2528 646 2274 
L 646 1058 
C 646 633 646 361 813 183 
C 896 101 1056 -64 1517 -64 
C 2061 -64 2272 377 2323 506 
L 2330 506 
L 2330 -63 
L 3091 -63 
L 3091 128 
C 2714 128 2656 166 2656 473 
L 2656 2763 
L 1882 2693 
z
" transform="scale(0.015625)"/>
       <path id="CMR17-6d" d="M 4326 1933 
C 4326 2252 4269 2790 3507 2790 
C 3072 2790 2771 2496 2656 2151 
L 2650 2151 
C 2573 2676 2195 2790 1837 2790 
C 1331 2790 1069 2400 973 2144 
L 966 2144 
L 966 2790 
L 211 2720 
L 211 2554 
C 589 2554 646 2515 646 2208 
L 646 428 
C 646 184 621 153 211 153 
L 211 -13 
C 365 0 646 0 813 0 
C 979 0 1267 0 1421 -13 
L 1421 153 
C 1011 153 986 178 986 428 
L 986 1658 
C 986 2247 1344 2688 1792 2688 
C 2266 2688 2317 2266 2317 1958 
L 2317 428 
C 2317 184 2291 153 1882 153 
L 1882 -13 
C 2035 0 2317 0 2483 0 
C 2650 0 2938 0 3091 -13 
L 3091 153 
C 2682 153 2656 178 2656 428 
L 2656 1658 
C 2656 2247 3014 2688 3462 2688 
C 3936 2688 3987 2266 3987 1958 
L 3987 428 
C 3987 184 3962 153 3552 153 
L 3552 -13 
C 3706 0 3987 0 4154 0 
C 4320 0 4608 0 4762 -13 
L 4762 153 
C 4352 153 4326 178 4326 428 
L 4326 1933 
z
" transform="scale(0.015625)"/>
       <path id="CMR17-62" d="M 960 4396 
L 198 4326 
L 198 4160 
C 576 4160 634 4122 634 3817 
L 634 -13 
L 749 -13 
L 934 441 
C 1120 141 1395 -64 1766 -64 
C 2406 -64 3053 500 3053 1370 
C 3053 2188 2477 2790 1830 2790 
C 1434 2790 1152 2579 960 2330 
L 960 4396 
z
M 973 2004 
C 973 2118 973 2138 1062 2272 
C 1312 2657 1670 2688 1792 2688 
C 1984 2688 2643 2585 2643 1376 
C 2643 108 1888 38 1734 38 
C 1536 38 1248 114 1043 486 
C 973 608 973 621 973 735 
L 973 2004 
z
" transform="scale(0.015625)"/>
       <path id="CMR17-6f" d="M 2758 1356 
C 2758 2176 2163 2816 1466 2816 
C 768 2816 173 2176 173 1356 
C 173 551 768 -64 1466 -64 
C 2163 -64 2758 551 2758 1356 
z
M 1466 51 
C 1165 51 909 230 762 480 
C 602 767 582 1126 582 1408 
C 582 1677 595 2010 762 2298 
C 890 2509 1139 2714 1466 2714 
C 1754 2714 1997 2554 2150 2330 
C 2349 2029 2349 1607 2349 1408 
C 2349 1158 2336 775 2163 467 
C 1984 173 1709 51 1466 51 
z
" transform="scale(0.015625)"/>
       <path id="CMR17-66" d="M 979 2560 
L 1709 2560 
L 1709 2725 
L 966 2725 
L 966 3494 
C 966 4022 1235 4352 1510 4352 
C 1594 4352 1690 4327 1754 4282 
C 1702 4269 1568 4225 1568 4067 
C 1568 3901 1696 3850 1786 3850 
C 1875 3850 2003 3901 2003 4067 
C 2003 4308 1773 4454 1517 4454 
C 1152 4454 653 4156 653 3481 
L 653 2725 
L 141 2725 
L 141 2560 
L 653 2560 
L 653 427 
C 653 184 627 153 218 153 
L 218 -13 
C 371 0 666 0 832 0 
C 1018 0 1344 0 1517 -13 
L 1517 153 
C 1056 153 979 153 979 439 
L 979 2560 
z
" transform="scale(0.015625)"/>
       <path id="CMR17-43" d="M 3974 4289 
C 3974 4403 3968 4410 3930 4410 
C 3904 4410 3898 4403 3853 4327 
L 3571 3792 
C 3258 4187 2874 4416 2381 4416 
C 1286 4416 294 3456 294 2148 
C 294 826 1286 -128 2387 -128 
C 3366 -128 3974 730 3974 1461 
C 3974 1524 3974 1550 3917 1550 
C 3866 1550 3866 1531 3859 1474 
C 3808 585 3168 38 2477 38 
C 1824 38 781 495 781 2147 
C 781 3805 1843 4250 2464 4250 
C 3187 4250 3712 3628 3834 2745 
C 3846 2668 3846 2655 3904 2655 
C 3974 2655 3974 2668 3974 2783 
L 3974 4289 
z
" transform="scale(0.015625)"/>
       <path id="CMR17-69" d="M 992 3909 
C 992 4049 877 4170 730 4170 
C 589 4170 467 4056 467 3909 
C 467 3769 582 3648 730 3648 
C 870 3648 992 3763 992 3909 
z
M 243 2706 
L 243 2541 
C 602 2541 653 2502 653 2197 
L 653 427 
C 653 184 627 153 218 153 
L 218 -13 
C 371 0 646 0 806 0 
C 960 0 1222 0 1370 -13 
L 1370 153 
C 992 153 979 191 979 420 
L 979 2776 
L 243 2706 
z
" transform="scale(0.015625)"/>
       <path id="CMR17-74" d="M 966 2560 
L 1862 2560 
L 1862 2725 
L 966 2725 
L 966 3904 
L 851 3904 
C 838 3245 614 2668 70 2668 
L 70 2560 
L 627 2560 
L 627 771 
C 627 650 627 -64 1370 -64 
C 1747 -64 1965 306 1965 777 
L 1965 1140 
L 1850 1140 
L 1850 783 
C 1850 344 1677 51 1408 51 
C 1222 51 966 178 966 758 
L 966 2560 
z
" transform="scale(0.015625)"/>
       <path id="CMR17-6e" d="M 2656 1933 
C 2656 2259 2592 2790 1837 2790 
C 1331 2790 1069 2400 973 2144 
L 966 2144 
L 966 2790 
L 211 2720 
L 211 2554 
C 589 2554 646 2515 646 2208 
L 646 428 
C 646 184 621 153 211 153 
L 211 -13 
C 365 0 646 0 813 0 
C 979 0 1267 0 1421 -13 
L 1421 153 
C 1011 153 986 178 986 428 
L 986 1658 
C 986 2247 1344 2688 1792 2688 
C 2266 2688 2317 2266 2317 1958 
L 2317 428 
C 2317 184 2291 153 1882 153 
L 1882 -13 
C 2035 0 2317 0 2483 0 
C 2650 0 2938 0 3091 -13 
L 3091 153 
C 2682 153 2656 178 2656 428 
L 2656 1933 
z
" transform="scale(0.015625)"/>
       <path id="CMR17-73" d="M 1978 2697 
C 1978 2813 1971 2819 1933 2819 
C 1907 2819 1901 2813 1824 2717 
C 1805 2691 1747 2626 1728 2601 
C 1523 2819 1235 2819 1126 2819 
C 416 2819 160 2447 160 2076 
C 160 1498 813 1365 998 1325 
C 1402 1243 1542 1217 1677 1101 
C 1760 1025 1901 884 1901 654 
C 1901 384 1747 38 1158 38 
C 602 38 403 460 288 1021 
C 269 1110 269 1117 218 1117 
C 166 1117 160 1110 160 983 
L 160 63 
C 160 -51 166 -58 205 -58 
C 237 -58 243 -51 275 0 
C 314 57 410 211 448 276 
C 576 103 800 -64 1158 -64 
C 1792 -64 2131 283 2131 784 
C 2131 1112 1958 1285 1875 1362 
C 1683 1561 1459 1606 1190 1657 
C 838 1735 390 1825 390 2217 
C 390 2383 480 2737 1126 2737 
C 1811 2737 1850 2094 1862 1888 
C 1869 1856 1901 1849 1920 1849 
C 1978 1849 1978 1869 1978 1978 
L 1978 2697 
z
" transform="scale(0.015625)"/>
      </defs>
      <use xlink:href="#CMR17-4e" transform="scale(0.996264)"/>
      <use xlink:href="#CMR17-75" transform="translate(69.07243 0) scale(0.996264)"/>
      <use xlink:href="#CMR17-6d" transform="translate(119.9678 0) scale(0.996264)"/>
      <use xlink:href="#CMR17-62" transform="translate(194.284936 0) scale(0.996264)"/>
      <use xlink:href="#CMR17-65" transform="translate(247.782744 0) scale(0.996264)"/>
      <use xlink:href="#CMR17-72" transform="translate(288.268404 0) scale(0.996264)"/>
      <use xlink:href="#CMR17-6f" transform="translate(353.625139 0) scale(0.996264)"/>
      <use xlink:href="#CMR17-66" transform="translate(399.315616 0) scale(0.996264)"/>
      <use xlink:href="#CMR17-43" transform="translate(456.865095 0) scale(0.996264)"/>
      <use xlink:href="#CMR17-69" transform="translate(523.374975 0) scale(0.996264)"/>
      <use xlink:href="#CMR17-74" transform="translate(548.246034 0) scale(0.996264)"/>
      <use xlink:href="#CMR17-61" transform="translate(583.526801 0) scale(0.996264)"/>
      <use xlink:href="#CMR17-74" transform="translate(629.217278 0) scale(0.996264)"/>
      <use xlink:href="#CMR17-69" transform="translate(664.498046 0) scale(0.996264)"/>
      <use xlink:href="#CMR17-6f" transform="translate(689.369105 0) scale(0.996264)"/>
      <use xlink:href="#CMR17-6e" transform="translate(735.059582 0) scale(0.996264)"/>
      <use xlink:href="#CMR17-73" transform="translate(785.954952 0) scale(0.996264)"/>
     </g>
    </g>
   </g>
   <g id="patch_73">
    <path d="M 44.379643 506.16 
L 44.379643 7.2 
" style="fill: none; stroke: #000000; stroke-width: 0.8; stroke-linejoin: miter; stroke-linecap: square"/>
   </g>
   <g id="patch_74">
    <path d="M 713.979643 506.16 
L 713.979643 7.2 
" style="fill: none; stroke: #000000; stroke-width: 0.8; stroke-linejoin: miter; stroke-linecap: square"/>
   </g>
   <g id="patch_75">
    <path d="M 44.379643 506.16 
L 713.979643 506.16 
" style="fill: none; stroke: #000000; stroke-width: 0.8; stroke-linejoin: miter; stroke-linecap: square"/>
   </g>
   <g id="patch_76">
    <path d="M 44.379643 7.2 
L 713.979643 7.2 
" style="fill: none; stroke: #000000; stroke-width: 0.8; stroke-linejoin: miter; stroke-linecap: square"/>
   </g>
   <g id="text_16">
    <!-- 3 -->
    <g transform="translate(89.281719 488.85162) scale(0.12 -0.12)">
     <use xlink:href="#CMR17-33" transform="scale(0.996264)"/>
    </g>
   </g>
   <g id="text_17">
    <!-- 17 -->
    <g transform="translate(182.012367 428.916485) scale(0.12 -0.12)">
     <defs>
      <path id="CMR17-37" d="M 2886 3941 
L 2886 4081 
L 1382 4081 
C 634 4081 621 4165 595 4288 
L 480 4288 
L 294 3094 
L 410 3094 
C 429 3215 474 3540 550 3661 
C 589 3712 1062 3712 1171 3712 
L 2579 3712 
L 1869 2661 
C 1395 1954 1069 999 1069 165 
C 1069 89 1069 -128 1299 -128 
C 1530 -128 1530 89 1530 171 
L 1530 465 
C 1530 1508 1709 2196 2003 2636 
L 2886 3941 
z
" transform="scale(0.015625)"/>
     </defs>
     <use xlink:href="#CMR17-31" transform="scale(0.996264)"/>
     <use xlink:href="#CMR17-37" transform="translate(45.690477 0) scale(0.996264)"/>
    </g>
   </g>
   <g id="text_18">
    <!-- 40 -->
    <g transform="translate(277.66951 330.45162) scale(0.12 -0.12)">
     <use xlink:href="#CMR17-34" transform="scale(0.996264)"/>
     <use xlink:href="#CMR17-30" transform="translate(45.690477 0) scale(0.996264)"/>
    </g>
   </g>
   <g id="text_19">
    <!-- 57 -->
    <g transform="translate(373.326653 257.673242) scale(0.12 -0.12)">
     <use xlink:href="#CMR17-35" transform="scale(0.996264)"/>
     <use xlink:href="#CMR17-37" transform="translate(45.690477 0) scale(0.996264)"/>
    </g>
   </g>
   <g id="text_20">
    <!-- 82 -->
    <g transform="translate(468.983796 150.646215) scale(0.12 -0.12)">
     <use xlink:href="#CMR17-38" transform="scale(0.996264)"/>
     <use xlink:href="#CMR17-32" transform="translate(45.690477 0) scale(0.996264)"/>
    </g>
   </g>
   <g id="text_21">
    <!-- 100 -->
    <g transform="translate(561.714443 73.586756) scale(0.12 -0.12)">
     <use xlink:href="#CMR17-31" transform="scale(0.996264)"/>
     <use xlink:href="#CMR17-30" transform="translate(45.690477 0) scale(0.996264)"/>
     <use xlink:href="#CMR17-30" transform="translate(91.380954 0) scale(0.996264)"/>
    </g>
   </g>
   <g id="text_22">
    <!-- 111 -->
    <g transform="translate(657.371586 26.494864) scale(0.12 -0.12)">
     <use xlink:href="#CMR17-31" transform="scale(0.996264)"/>
     <use xlink:href="#CMR17-31" transform="translate(45.690477 0) scale(0.996264)"/>
     <use xlink:href="#CMR17-31" transform="translate(91.380954 0) scale(0.996264)"/>
    </g>
   </g>
   <g id="legend_1">
    <g id="patch_77">
     <path d="M 52.079643 169.308946 
L 230.141464 169.308946 
Q 232.341464 169.308946 232.341464 167.108946 
L 232.341464 14.9 
Q 232.341464 12.7 230.141464 12.7 
L 52.079643 12.7 
Q 49.879643 12.7 49.879643 14.9 
L 49.879643 167.108946 
Q 49.879643 169.308946 52.079643 169.308946 
z
" style="fill: #ffffff; opacity: 0.8; stroke: #cccccc; stroke-linejoin: miter"/>
    </g>
    <g id="patch_78">
     <path d="M 54.279643 24.8 
L 76.279643 24.8 
L 76.279643 17.1 
L 54.279643 17.1 
z
" style="fill: #1f77b4"/>
    </g>
    <g id="text_23">
     <!-- Books -->
     <g transform="translate(85.079643 24.8) scale(0.11 -0.11)">
      <defs>
       <path id="CMR17-42" d="M 333 4352 
L 333 4186 
C 774 4186 845 4186 845 3900 
L 845 452 
C 845 166 774 166 333 166 
L 333 0 
L 2534 0 
C 3354 0 3885 583 3885 1164 
C 3885 1741 3360 2233 2675 2233 
C 3290 2356 3718 2771 3718 3264 
C 3718 3802 3194 4352 2368 4352 
L 333 4352 
z
M 1248 2304 
L 1248 3937 
C 1248 4155 1261 4186 1517 4186 
L 2336 4186 
C 2970 4186 3251 3674 3251 3277 
C 3251 2791 2861 2304 2170 2304 
L 1248 2304 
z
M 1517 166 
C 1261 166 1248 197 1248 413 
L 1248 2202 
L 2432 2202 
C 3091 2202 3411 1625 3411 1162 
C 3411 699 3046 166 2349 166 
L 1517 166 
z
" transform="scale(0.015625)"/>
       <path id="CMR17-6b" d="M 1670 1673 
C 1664 1686 1632 1724 1632 1743 
C 1632 1756 2086 2171 2144 2222 
C 2509 2528 2739 2560 2906 2560 
L 2906 2733 
C 2867 2733 2854 2733 2848 2720 
L 2534 2720 
C 2355 2720 2080 2720 1907 2733 
L 1907 2566 
C 1997 2559 2061 2508 2061 2419 
C 2061 2291 1933 2170 1926 2170 
L 960 1289 
L 960 4396 
L 198 4326 
L 198 4160 
C 576 4160 634 4122 634 3817 
L 634 426 
C 634 184 608 153 198 153 
L 198 -13 
C 352 0 634 0 794 0 
C 954 0 1235 0 1389 -13 
L 1389 153 
C 979 153 954 178 954 428 
L 954 1130 
L 1395 1532 
L 2042 574 
C 2118 459 2182 369 2182 286 
C 2182 172 2067 153 1990 153 
L 1990 -13 
C 2144 0 2419 0 2579 0 
C 2694 0 2931 0 3040 0 
L 3040 153 
C 2739 153 2669 210 2477 491 
L 1670 1673 
z
" transform="scale(0.015625)"/>
      </defs>
      <use xlink:href="#CMR17-42" transform="scale(0.996264)"/>
      <use xlink:href="#CMR17-6f" transform="translate(65.188754 0) scale(0.996264)"/>
      <use xlink:href="#CMR17-6f" transform="translate(113.48167 0) scale(0.996264)"/>
      <use xlink:href="#CMR17-6b" transform="translate(159.172147 0) scale(0.996264)"/>
      <use xlink:href="#CMR17-73" transform="translate(207.465063 0) scale(0.996264)"/>
     </g>
    </g>
    <g id="patch_79">
     <path d="M 54.279643 40.130895 
L 76.279643 40.130895 
L 76.279643 32.430895 
L 54.279643 32.430895 
z
" style="fill: #ff7f0e"/>
    </g>
    <g id="text_24">
     <!-- Conference Papers -->
     <g transform="translate(85.079643 40.130895) scale(0.11 -0.11)">
      <defs>
       <path id="CMR17-63" d="M 2234 2240 
C 2112 2240 1933 2240 1933 2017 
C 1933 1838 2080 1787 2163 1787 
C 2208 1787 2394 1807 2394 2024 
C 2394 2467 1958 2803 1466 2803 
C 787 2803 211 2178 211 1363 
C 211 516 813 -64 1466 -64 
C 2259 -64 2458 677 2458 748 
C 2458 774 2451 793 2406 793 
C 2362 793 2355 787 2330 703 
C 2163 180 1798 51 1523 51 
C 1114 51 621 427 621 1369 
C 621 2338 1094 2688 1472 2688 
C 1722 2688 2093 2573 2234 2240 
z
" transform="scale(0.015625)"/>
       <path id="CMR17-50" d="M 1267 2042 
L 2291 2042 
C 3117 2042 3718 2578 3718 3184 
C 3718 3791 3130 4352 2291 4352 
L 333 4352 
L 333 4186 
C 774 4186 845 4186 845 3899 
L 845 446 
C 845 160 774 160 333 160 
L 333 0 
C 518 0 858 0 1056 0 
C 1254 0 1594 0 1779 0 
L 1779 160 
C 1338 160 1267 160 1267 446 
L 1267 2042 
z
M 1254 2176 
L 1254 3938 
C 1254 4155 1267 4186 1523 4186 
L 2170 4186 
C 2995 4186 3232 3714 3232 3184 
C 3232 2604 2950 2176 2170 2176 
L 1254 2176 
z
" transform="scale(0.015625)"/>
       <path id="CMR17-70" d="M 1408 -1063 
C 998 -1063 973 -1037 973 -789 
L 973 402 
C 1158 134 1427 -38 1766 -38 
C 2406 -38 3053 523 3053 1388 
C 3053 2191 2496 2802 1837 2802 
C 1453 2802 1139 2592 960 2338 
L 960 2802 
L 198 2732 
L 198 2567 
C 576 2567 634 2528 634 2223 
L 634 -789 
C 634 -1031 608 -1063 198 -1063 
L 198 -1228 
C 352 -1216 634 -1216 800 -1216 
C 966 -1216 1254 -1216 1408 -1228 
L 1408 -1063 
z
M 973 2012 
C 973 2102 973 2235 1222 2471 
C 1254 2497 1472 2688 1792 2688 
C 2259 2688 2643 2108 2643 1382 
C 2643 656 2234 64 1728 64 
C 1498 64 1248 172 1056 472 
C 973 612 973 650 973 752 
L 973 2012 
z
" transform="scale(0.015625)"/>
      </defs>
      <use xlink:href="#CMR17-43" transform="scale(0.996264)"/>
      <use xlink:href="#CMR17-6f" transform="translate(66.509881 0) scale(0.996264)"/>
      <use xlink:href="#CMR17-6e" transform="translate(112.200358 0) scale(0.996264)"/>
      <use xlink:href="#CMR17-66" transform="translate(163.095727 0) scale(0.996264)"/>
      <use xlink:href="#CMR17-65" transform="translate(190.56924 0) scale(0.996264)"/>
      <use xlink:href="#CMR17-72" transform="translate(231.0549 0) scale(0.996264)"/>
      <use xlink:href="#CMR17-65" transform="translate(266.335668 0) scale(0.996264)"/>
      <use xlink:href="#CMR17-6e" transform="translate(306.821329 0) scale(0.996264)"/>
      <use xlink:href="#CMR17-63" transform="translate(357.716698 0) scale(0.996264)"/>
      <use xlink:href="#CMR17-65" transform="translate(398.202359 0) scale(0.996264)"/>
      <use xlink:href="#CMR17-50" transform="translate(468.763986 0) scale(0.996264)"/>
      <use xlink:href="#CMR17-61" transform="translate(528.747832 0) scale(0.996264)"/>
      <use xlink:href="#CMR17-70" transform="translate(574.438309 0) scale(0.996264)"/>
      <use xlink:href="#CMR17-65" transform="translate(627.936118 0) scale(0.996264)"/>
      <use xlink:href="#CMR17-72" transform="translate(668.421778 0) scale(0.996264)"/>
      <use xlink:href="#CMR17-73" transform="translate(703.702546 0) scale(0.996264)"/>
     </g>
    </g>
    <g id="patch_80">
     <path d="M 54.279643 55.461789 
L 76.279643 55.461789 
L 76.279643 47.761789 
L 54.279643 47.761789 
z
" style="fill: #2ca02c"/>
    </g>
    <g id="text_25">
     <!-- Data Articles -->
     <g transform="translate(85.079643 55.461789) scale(0.11 -0.11)">
      <defs>
       <path id="CMR17-44" d="M 333 4352 
L 333 4186 
C 774 4186 845 4186 845 3900 
L 845 452 
C 845 166 774 166 333 166 
L 333 0 
L 2368 0 
C 3398 0 4224 943 4224 2141 
C 4224 3346 3411 4352 2368 4352 
L 333 4352 
z
M 1523 166 
C 1267 166 1254 197 1254 414 
L 1254 3938 
C 1254 4155 1267 4186 1523 4186 
L 2240 4186 
C 2771 4186 3750 3874 3750 2141 
C 3750 1242 3488 879 3366 707 
C 3213 510 2848 166 2240 166 
L 1523 166 
z
" transform="scale(0.015625)"/>
       <path id="CMR17-41" d="M 2323 4378 
C 2291 4461 2278 4480 2214 4480 
C 2150 4480 2138 4461 2106 4378 
L 749 566 
C 627 223 371 153 147 153 
L 147 -13 
C 262 0 518 0 640 0 
C 800 0 1056 0 1210 -13 
L 1210 153 
C 909 153 864 361 864 439 
C 864 497 877 530 890 569 
L 1229 1536 
L 2906 1536 
L 3290 442 
C 3322 365 3322 352 3322 327 
C 3322 153 3046 153 2925 153 
L 2925 0 
C 3110 0 3443 0 3642 0 
C 3808 0 4128 0 4282 -13 
L 4282 153 
C 3942 153 3827 153 3744 387 
L 2323 4378 
z
M 2067 3893 
L 2848 1702 
L 1286 1702 
L 2067 3893 
z
" transform="scale(0.015625)"/>
       <path id="CMR17-6c" d="M 979 4396 
L 218 4326 
L 218 4160 
C 595 4160 653 4122 653 3817 
L 653 426 
C 653 184 627 153 218 153 
L 218 -13 
C 371 0 653 0 813 0 
C 979 0 1261 0 1414 -13 
L 1414 153 
C 1005 153 979 178 979 426 
L 979 4396 
z
" transform="scale(0.015625)"/>
      </defs>
      <use xlink:href="#CMR17-44" transform="scale(0.996264)"/>
      <use xlink:href="#CMR17-61" transform="translate(70.393556 0) scale(0.996264)"/>
      <use xlink:href="#CMR17-74" transform="translate(116.084033 0) scale(0.996264)"/>
      <use xlink:href="#CMR17-61" transform="translate(151.364801 0) scale(0.996264)"/>
      <use xlink:href="#CMR17-41" transform="translate(227.131244 0) scale(0.996264)"/>
      <use xlink:href="#CMR17-72" transform="translate(296.203674 0) scale(0.996264)"/>
      <use xlink:href="#CMR17-74" transform="translate(331.484442 0) scale(0.996264)"/>
      <use xlink:href="#CMR17-69" transform="translate(366.76521 0) scale(0.996264)"/>
      <use xlink:href="#CMR17-63" transform="translate(391.636268 0) scale(0.996264)"/>
      <use xlink:href="#CMR17-6c" transform="translate(432.121929 0) scale(0.996264)"/>
      <use xlink:href="#CMR17-65" transform="translate(456.992987 0) scale(0.996264)"/>
      <use xlink:href="#CMR17-73" transform="translate(497.478648 0) scale(0.996264)"/>
     </g>
    </g>
    <g id="patch_81">
     <path d="M 54.279643 70.792684 
L 76.279643 70.792684 
L 76.279643 63.092684 
L 54.279643 63.092684 
z
" style="fill: #d62728"/>
    </g>
    <g id="text_26">
     <!-- Doctoral Theses -->
     <g transform="translate(85.079643 70.792684) scale(0.11 -0.11)">
      <defs>
       <path id="CMR17-54" d="M 3981 4326 
L 288 4326 
L 179 2918 
L 294 2918 
C 378 3976 467 4160 1453 4160 
C 1568 4160 1754 4160 1805 4154 
C 1926 4135 1926 4058 1926 3912 
L 1926 459 
C 1926 230 1907 160 1376 160 
L 1197 160 
L 1197 0 
C 1504 0 1824 0 2138 0 
C 2451 0 2771 0 3078 0 
L 3078 160 
L 2899 160 
C 2368 160 2349 230 2349 459 
L 2349 3912 
C 2349 4052 2349 4129 2464 4154 
C 2515 4160 2701 4160 2816 4160 
C 3795 4160 3891 3976 3974 2918 
L 4090 2918 
L 3981 4326 
z
" transform="scale(0.015625)"/>
       <path id="CMR17-68" d="M 2656 1933 
C 2656 2259 2592 2790 1837 2790 
C 1312 2790 1056 2368 979 2157 
L 973 2157 
L 973 4396 
L 211 4326 
L 211 4160 
C 589 4160 646 4122 646 3817 
L 646 426 
C 646 184 621 153 211 153 
L 211 -13 
C 365 0 646 0 813 0 
C 979 0 1267 0 1421 -13 
L 1421 153 
C 1011 153 986 178 986 428 
L 986 1658 
C 986 2247 1344 2688 1792 2688 
C 2266 2688 2317 2266 2317 1958 
L 2317 428 
C 2317 184 2291 153 1882 153 
L 1882 -13 
C 2035 0 2317 0 2483 0 
C 2650 0 2938 0 3091 -13 
L 3091 153 
C 2682 153 2656 178 2656 428 
L 2656 1933 
z
" transform="scale(0.015625)"/>
      </defs>
      <use xlink:href="#CMR17-44" transform="scale(0.996264)"/>
      <use xlink:href="#CMR17-6f" transform="translate(70.393556 0) scale(0.996264)"/>
      <use xlink:href="#CMR17-63" transform="translate(118.686472 0) scale(0.996264)"/>
      <use xlink:href="#CMR17-74" transform="translate(159.172132 0) scale(0.996264)"/>
      <use xlink:href="#CMR17-6f" transform="translate(194.4529 0) scale(0.996264)"/>
      <use xlink:href="#CMR17-72" transform="translate(240.143377 0) scale(0.996264)"/>
      <use xlink:href="#CMR17-61" transform="translate(275.424145 0) scale(0.996264)"/>
      <use xlink:href="#CMR17-6c" transform="translate(321.114622 0) scale(0.996264)"/>
      <use xlink:href="#CMR17-54" transform="translate(376.061647 0) scale(0.996264)"/>
      <use xlink:href="#CMR17-68" transform="translate(442.571527 0) scale(0.996264)"/>
      <use xlink:href="#CMR17-65" transform="translate(493.466897 0) scale(0.996264)"/>
      <use xlink:href="#CMR17-73" transform="translate(533.952558 0) scale(0.996264)"/>
      <use xlink:href="#CMR17-65" transform="translate(569.753895 0) scale(0.996264)"/>
      <use xlink:href="#CMR17-73" transform="translate(610.239556 0) scale(0.996264)"/>
     </g>
    </g>
    <g id="patch_82">
     <path d="M 54.279643 86.123579 
L 76.279643 86.123579 
L 76.279643 78.423579 
L 54.279643 78.423579 
z
" style="fill: #9467bd"/>
    </g>
    <g id="text_27">
     <!-- Final Graduation Projects -->
     <g transform="translate(85.079643 86.123579) scale(0.11 -0.11)">
      <defs>
       <path id="CMR17-46" d="M 3482 4325 
L 326 4325 
L 326 4160 
C 768 4160 838 4160 838 3874 
L 838 446 
C 838 160 768 160 326 160 
L 326 0 
C 512 0 870 0 1069 0 
C 1331 0 1638 0 1901 0 
L 1901 160 
L 1760 160 
C 1274 160 1261 223 1261 452 
L 1261 2075 
L 1837 2075 
C 2432 2075 2490 1865 2490 1332 
L 2605 1332 
L 2605 2987 
L 2490 2987 
C 2490 2450 2432 2240 1837 2240 
L 1261 2240 
L 1261 3911 
C 1261 4128 1274 4160 1530 4160 
L 2355 4160 
C 3322 4160 3430 3765 3520 2916 
L 3635 2916 
L 3482 4325 
z
" transform="scale(0.015625)"/>
       <path id="CMR17-47" d="M 3974 1233 
C 3974 1473 3994 1505 4390 1505 
L 4390 1670 
C 4237 1664 3891 1664 3718 1664 
C 3539 1664 3040 1664 2797 1664 
L 2797 1505 
L 2989 1505 
C 3539 1505 3552 1434 3552 1201 
L 3552 774 
C 3552 63 2720 63 2522 63 
C 1862 63 781 511 781 2160 
C 781 3808 1843 4250 2464 4250 
C 3187 4250 3712 3626 3834 2741 
C 3846 2664 3846 2651 3904 2651 
C 3974 2651 3974 2664 3974 2779 
L 3974 4288 
C 3974 4402 3968 4409 3930 4409 
C 3904 4409 3898 4402 3853 4326 
L 3571 3791 
C 3258 4187 2874 4416 2381 4416 
C 1286 4416 294 3456 294 2148 
C 294 845 1267 -128 2394 -128 
C 2912 -128 3418 56 3616 417 
C 3725 158 3904 -20 3936 -20 
C 3968 -20 3974 -13 3974 100 
L 3974 1233 
z
" transform="scale(0.015625)"/>
       <path id="CMR17-64" d="M 1869 4326 
L 1869 4160 
C 2246 4160 2304 4122 2304 3820 
L 2304 2345 
C 2278 2377 2016 2790 1498 2790 
C 845 2790 211 2208 211 1364 
C 211 525 806 -64 1434 -64 
C 1978 -64 2259 337 2291 380 
L 2291 -63 
L 3066 -63 
L 3066 128 
C 2688 128 2630 166 2630 473 
L 2630 4396 
L 1869 4326 
z
M 2291 755 
C 2291 563 2176 390 2029 262 
C 1811 70 1594 38 1472 38 
C 1286 38 621 134 621 1356 
C 621 2612 1363 2688 1530 2688 
C 1824 2688 2061 2522 2208 2291 
C 2291 2157 2291 2138 2291 2023 
L 2291 755 
z
" transform="scale(0.015625)"/>
       <path id="CMR17-6a" d="M 1165 3963 
C 1165 4103 1050 4224 902 4224 
C 762 4224 640 4110 640 3963 
C 640 3823 755 3702 902 3702 
C 1043 3702 1165 3817 1165 3963 
z
M 365 2754 
L 365 2588 
C 787 2588 838 2543 838 2235 
L 838 -359 
C 838 -678 781 -1178 403 -1178 
C 358 -1178 186 -1178 45 -1082 
C 90 -1075 250 -1031 250 -851 
C 250 -729 166 -621 19 -621 
C -122 -621 -211 -717 -211 -858 
C -211 -1114 70 -1280 397 -1280 
C 838 -1280 1165 -877 1165 -332 
L 1165 2825 
L 365 2754 
z
" transform="scale(0.015625)"/>
      </defs>
      <use xlink:href="#CMR17-46" transform="scale(0.996264)"/>
      <use xlink:href="#CMR17-69" transform="translate(59.983847 0) scale(0.996264)"/>
      <use xlink:href="#CMR17-6e" transform="translate(84.854905 0) scale(0.996264)"/>
      <use xlink:href="#CMR17-61" transform="translate(135.750275 0) scale(0.996264)"/>
      <use xlink:href="#CMR17-6c" transform="translate(181.440752 0) scale(0.996264)"/>
      <use xlink:href="#CMR17-47" transform="translate(236.387777 0) scale(0.996264)"/>
      <use xlink:href="#CMR17-72" transform="translate(308.743123 0) scale(0.996264)"/>
      <use xlink:href="#CMR17-61" transform="translate(344.023891 0) scale(0.996264)"/>
      <use xlink:href="#CMR17-64" transform="translate(389.714368 0) scale(0.996264)"/>
      <use xlink:href="#CMR17-75" transform="translate(440.609737 0) scale(0.996264)"/>
      <use xlink:href="#CMR17-61" transform="translate(491.505107 0) scale(0.996264)"/>
      <use xlink:href="#CMR17-74" transform="translate(537.195584 0) scale(0.996264)"/>
      <use xlink:href="#CMR17-69" transform="translate(572.476352 0) scale(0.996264)"/>
      <use xlink:href="#CMR17-6f" transform="translate(597.347411 0) scale(0.996264)"/>
      <use xlink:href="#CMR17-6e" transform="translate(643.037888 0) scale(0.996264)"/>
      <use xlink:href="#CMR17-50" transform="translate(724.009224 0) scale(0.996264)"/>
      <use xlink:href="#CMR17-72" transform="translate(786.595524 0) scale(0.996264)"/>
      <use xlink:href="#CMR17-6f" transform="translate(821.876292 0) scale(0.996264)"/>
      <use xlink:href="#CMR17-6a" transform="translate(872.771571 0) scale(0.996264)"/>
      <use xlink:href="#CMR17-65" transform="translate(900.245083 0) scale(0.996264)"/>
      <use xlink:href="#CMR17-63" transform="translate(940.730744 0) scale(0.996264)"/>
      <use xlink:href="#CMR17-74" transform="translate(981.216404 0) scale(0.996264)"/>
      <use xlink:href="#CMR17-73" transform="translate(1016.497172 0) scale(0.996264)"/>
     </g>
    </g>
    <g id="patch_83">
     <path d="M 54.279643 101.454473 
L 76.279643 101.454473 
L 76.279643 93.754473 
L 54.279643 93.754473 
z
" style="fill: #8c564b"/>
    </g>
    <g id="text_28">
     <!-- Journal Articles -->
     <g transform="translate(85.079643 101.454473) scale(0.11 -0.11)">
      <defs>
       <path id="CMR17-4a" d="M 1888 910 
C 1888 324 1568 -26 1242 -26 
C 1075 -26 691 49 525 431 
C 550 425 582 418 608 418 
C 730 418 883 501 883 692 
C 883 845 774 960 614 960 
C 461 960 339 865 339 682 
C 339 258 730 -128 1254 -128 
C 1754 -128 2214 229 2291 764 
C 2298 809 2298 821 2298 1038 
L 2298 3715 
C 2298 3823 2298 4001 2310 4039 
C 2336 4160 2483 4160 2682 4160 
L 2682 4320 
C 2669 4320 2214 4320 2054 4320 
C 1786 4320 1491 4320 1222 4320 
L 1222 4160 
L 1376 4160 
C 1875 4160 1888 4090 1888 3861 
L 1888 910 
z
" transform="scale(0.015625)"/>
      </defs>
      <use xlink:href="#CMR17-4a" transform="scale(0.996264)"/>
      <use xlink:href="#CMR17-6f" transform="translate(46.97179 0) scale(0.996264)"/>
      <use xlink:href="#CMR17-75" transform="translate(92.662267 0) scale(0.996264)"/>
      <use xlink:href="#CMR17-72" transform="translate(143.557637 0) scale(0.996264)"/>
      <use xlink:href="#CMR17-6e" transform="translate(178.838404 0) scale(0.996264)"/>
      <use xlink:href="#CMR17-61" transform="translate(229.733774 0) scale(0.996264)"/>
      <use xlink:href="#CMR17-6c" transform="translate(275.424251 0) scale(0.996264)"/>
      <use xlink:href="#CMR17-41" transform="translate(330.371276 0) scale(0.996264)"/>
      <use xlink:href="#CMR17-72" transform="translate(399.443706 0) scale(0.996264)"/>
      <use xlink:href="#CMR17-74" transform="translate(434.724474 0) scale(0.996264)"/>
      <use xlink:href="#CMR17-69" transform="translate(470.005242 0) scale(0.996264)"/>
      <use xlink:href="#CMR17-63" transform="translate(494.8763 0) scale(0.996264)"/>
      <use xlink:href="#CMR17-6c" transform="translate(535.361961 0) scale(0.996264)"/>
      <use xlink:href="#CMR17-65" transform="translate(560.233019 0) scale(0.996264)"/>
      <use xlink:href="#CMR17-73" transform="translate(600.718679 0) scale(0.996264)"/>
     </g>
    </g>
    <g id="patch_84">
     <path d="M 54.279643 116.785368 
L 76.279643 116.785368 
L 76.279643 109.085368 
L 54.279643 109.085368 
z
" style="fill: #e377c2"/>
    </g>
    <g id="text_29">
     <!-- Master's Degree Dissertations -->
     <g transform="translate(85.079643 116.785368) scale(0.11 -0.11)">
      <defs>
       <path id="CMR17-4d" d="M 1338 4224 
C 1299 4320 1293 4320 1158 4320 
L 339 4320 
L 339 4160 
C 781 4160 851 4160 851 3875 
L 851 610 
C 851 451 851 153 339 153 
L 339 -13 
C 486 0 755 0 915 0 
C 1075 0 1344 0 1491 -13 
L 1491 153 
C 979 153 979 451 979 610 
L 979 4135 
L 986 4135 
L 2490 89 
C 2515 25 2528 -13 2579 -13 
C 2630 -13 2643 25 2669 89 
L 4186 4166 
L 4192 4166 
L 4192 438 
C 4192 153 4122 153 3680 153 
L 3680 -13 
C 3853 0 4198 0 4384 0 
C 4570 0 4922 0 5094 -13 
L 5094 153 
C 4653 153 4582 153 4582 438 
L 4582 3875 
C 4582 4160 4653 4160 5094 4160 
L 5094 4320 
L 4282 4320 
C 4147 4320 4141 4314 4102 4218 
L 2720 502 
L 1338 4224 
z
" transform="scale(0.015625)"/>
       <path id="CMR17-27" d="M 1024 4025 
C 1037 3955 1043 3929 1043 3820 
C 1043 3415 883 3042 634 2778 
C 608 2752 595 2733 595 2707 
C 595 2681 621 2656 646 2656 
C 691 2656 1146 3105 1146 3811 
C 1146 3952 1133 4426 800 4426 
C 659 4426 538 4331 538 4165 
C 538 3999 659 3904 800 3904 
C 858 3904 966 3923 1024 4025 
z
" transform="scale(0.015625)"/>
       <path id="CMR17-67" d="M 710 1164 
C 832 1068 1043 960 1299 960 
C 1805 960 2240 1357 2240 1888 
C 2240 2054 2189 2310 1997 2509 
C 2176 2692 2438 2752 2586 2752 
C 2611 2752 2650 2752 2682 2734 
C 2656 2728 2598 2703 2598 2605 
C 2598 2527 2656 2471 2739 2471 
C 2835 2471 2886 2533 2886 2614 
C 2886 2731 2790 2854 2586 2854 
C 2330 2854 2106 2738 1926 2580 
C 1734 2753 1504 2816 1299 2816 
C 794 2816 358 2419 358 1888 
C 358 1522 570 1292 634 1228 
C 442 1004 442 743 442 711 
C 442 545 506 302 723 168 
C 390 85 128 -169 128 -486 
C 128 -943 736 -1280 1466 -1280 
C 2170 -1280 2803 -956 2803 -479 
C 2803 384 1856 384 1363 384 
C 1216 384 954 384 922 391 
C 723 423 589 602 589 826 
C 589 883 589 1024 710 1164 
z
M 1299 1068 
C 736 1068 736 1760 736 1889 
C 736 2016 736 2708 1299 2708 
C 1862 2708 1862 2016 1862 1889 
C 1862 1760 1862 1068 1299 1068 
z
M 1466 -1171 
C 826 -1171 384 -835 384 -486 
C 384 -289 493 -105 634 -4 
C 794 104 858 104 1293 104 
C 1818 104 2547 104 2547 -486 
C 2547 -835 2106 -1171 1466 -1171 
z
" transform="scale(0.015625)"/>
      </defs>
      <use xlink:href="#CMR17-4d" transform="scale(0.996264)"/>
      <use xlink:href="#CMR17-61" transform="translate(84.686941 0) scale(0.996264)"/>
      <use xlink:href="#CMR17-73" transform="translate(130.377418 0) scale(0.996264)"/>
      <use xlink:href="#CMR17-74" transform="translate(166.178755 0) scale(0.996264)"/>
      <use xlink:href="#CMR17-65" transform="translate(201.459523 0) scale(0.996264)"/>
      <use xlink:href="#CMR17-72" transform="translate(241.945184 0) scale(0.996264)"/>
      <use xlink:href="#CMR17-27" transform="translate(277.225951 0) scale(0.996264)"/>
      <use xlink:href="#CMR17-73" transform="translate(302.09701 0) scale(0.996264)"/>
      <use xlink:href="#CMR17-44" transform="translate(367.974314 0) scale(0.996264)"/>
      <use xlink:href="#CMR17-65" transform="translate(438.36787 0) scale(0.996264)"/>
      <use xlink:href="#CMR17-67" transform="translate(478.85353 0) scale(0.996264)"/>
      <use xlink:href="#CMR17-72" transform="translate(524.544007 0) scale(0.996264)"/>
      <use xlink:href="#CMR17-65" transform="translate(559.824775 0) scale(0.996264)"/>
      <use xlink:href="#CMR17-65" transform="translate(600.310436 0) scale(0.996264)"/>
      <use xlink:href="#CMR17-44" transform="translate(670.872062 0) scale(0.996264)"/>
      <use xlink:href="#CMR17-69" transform="translate(741.265618 0) scale(0.996264)"/>
      <use xlink:href="#CMR17-73" transform="translate(766.136677 0) scale(0.996264)"/>
      <use xlink:href="#CMR17-73" transform="translate(801.938014 0) scale(0.996264)"/>
      <use xlink:href="#CMR17-65" transform="translate(837.739352 0) scale(0.996264)"/>
      <use xlink:href="#CMR17-72" transform="translate(878.225013 0) scale(0.996264)"/>
      <use xlink:href="#CMR17-74" transform="translate(913.50578 0) scale(0.996264)"/>
      <use xlink:href="#CMR17-61" transform="translate(948.786548 0) scale(0.996264)"/>
      <use xlink:href="#CMR17-74" transform="translate(994.477025 0) scale(0.996264)"/>
      <use xlink:href="#CMR17-69" transform="translate(1029.757793 0) scale(0.996264)"/>
      <use xlink:href="#CMR17-6f" transform="translate(1054.628852 0) scale(0.996264)"/>
      <use xlink:href="#CMR17-6e" transform="translate(1100.319329 0) scale(0.996264)"/>
      <use xlink:href="#CMR17-73" transform="translate(1151.214698 0) scale(0.996264)"/>
     </g>
    </g>
    <g id="patch_85">
     <path d="M 54.279643 132.116263 
L 76.279643 132.116263 
L 76.279643 124.416263 
L 54.279643 124.416263 
z
" style="fill: #7f7f7f"/>
    </g>
    <g id="text_30">
     <!-- Other Articles -->
     <g transform="translate(85.079643 132.116263) scale(0.11 -0.11)">
      <defs>
       <path id="CMR17-4f" d="M 4307 2135 
C 4307 3437 3366 4416 2304 4416 
C 1216 4416 294 3424 294 2135 
C 294 845 1229 -128 2298 -128 
C 3392 -128 4307 864 4307 2135 
z
M 2304 -13 
C 1574 -13 781 711 781 2217 
C 781 3716 1651 4301 2298 4301 
C 2976 4301 3821 3698 3821 2217 
C 3821 686 3008 -13 2304 -13 
z
" transform="scale(0.015625)"/>
      </defs>
      <use xlink:href="#CMR17-4f" transform="scale(0.996264)"/>
      <use xlink:href="#CMR17-74" transform="translate(71.714788 0) scale(0.996264)"/>
      <use xlink:href="#CMR17-68" transform="translate(106.995556 0) scale(0.996264)"/>
      <use xlink:href="#CMR17-65" transform="translate(157.890926 0) scale(0.996264)"/>
      <use xlink:href="#CMR17-72" transform="translate(198.376586 0) scale(0.996264)"/>
      <use xlink:href="#CMR17-41" transform="translate(263.733321 0) scale(0.996264)"/>
      <use xlink:href="#CMR17-72" transform="translate(332.80575 0) scale(0.996264)"/>
      <use xlink:href="#CMR17-74" transform="translate(368.086518 0) scale(0.996264)"/>
      <use xlink:href="#CMR17-69" transform="translate(403.367286 0) scale(0.996264)"/>
      <use xlink:href="#CMR17-63" transform="translate(428.238344 0) scale(0.996264)"/>
      <use xlink:href="#CMR17-6c" transform="translate(468.724005 0) scale(0.996264)"/>
      <use xlink:href="#CMR17-65" transform="translate(493.595063 0) scale(0.996264)"/>
      <use xlink:href="#CMR17-73" transform="translate(534.080724 0) scale(0.996264)"/>
     </g>
    </g>
    <g id="patch_86">
     <path d="M 54.279643 147.447157 
L 76.279643 147.447157 
L 76.279643 139.747157 
L 54.279643 139.747157 
z
" style="fill: #bcbd22"/>
    </g>
    <g id="text_31">
     <!-- Repository Articles -->
     <g transform="translate(85.079643 147.447157) scale(0.11 -0.11)">
      <defs>
       <path id="CMR17-52" d="M 2509 2146 
C 3117 2268 3629 2676 3629 3186 
C 3629 3785 2950 4326 2054 4326 
L 333 4326 
L 333 4160 
C 774 4160 845 4160 845 3873 
L 845 415 
C 845 128 774 128 333 128 
L 333 -26 
C 518 -26 851 -26 1050 -26 
C 1248 -26 1581 -26 1766 -26 
L 1766 128 
C 1325 128 1254 128 1254 417 
L 1254 2112 
L 2003 2112 
C 2368 2112 2573 1964 2662 1881 
C 2918 1632 2918 1459 2918 1024 
C 2918 595 2918 377 3110 160 
C 3354 -102 3680 -128 3821 -128 
C 4294 -128 4365 396 4365 503 
C 4365 540 4365 585 4307 585 
C 4256 585 4250 547 4250 522 
C 4218 112 4032 -26 3834 -26 
C 3482 -26 3443 375 3405 764 
C 3386 898 3373 993 3360 1133 
C 3322 1452 3270 1917 2509 2146 
z
M 1984 2214 
L 1254 2214 
L 1254 3913 
C 1254 4129 1267 4160 1523 4160 
L 1990 4160 
C 2522 4160 3142 3977 3142 3190 
C 3142 2372 2464 2214 1984 2214 
z
" transform="scale(0.015625)"/>
       <path id="CMR17-79" d="M 2496 2197 
C 2656 2586 2944 2586 3034 2586 
L 3034 2752 
C 2912 2752 2752 2752 2630 2752 
C 2496 2752 2285 2752 2157 2758 
L 2157 2592 
C 2400 2573 2406 2394 2406 2343 
C 2406 2280 2394 2248 2362 2171 
L 1664 449 
L 902 2306 
C 870 2382 870 2426 870 2433 
C 870 2573 1018 2586 1171 2586 
L 1171 2758 
C 1018 2752 742 2752 582 2752 
C 410 2752 205 2752 64 2758 
L 64 2586 
C 410 2586 448 2554 531 2350 
L 1485 15 
C 1197 -738 1030 -1178 627 -1178 
C 557 -1178 397 -1159 282 -1044 
C 429 -1031 493 -942 493 -833 
C 493 -725 416 -629 288 -629 
C 147 -629 77 -725 77 -840 
C 77 -1095 339 -1280 627 -1280 
C 998 -1280 1229 -922 1357 -604 
L 2496 2197 
z
" transform="scale(0.015625)"/>
      </defs>
      <use xlink:href="#CMR17-52" transform="scale(0.996264)"/>
      <use xlink:href="#CMR17-65" transform="translate(67.791102 0) scale(0.996264)"/>
      <use xlink:href="#CMR17-70" transform="translate(108.276762 0) scale(0.996264)"/>
      <use xlink:href="#CMR17-6f" transform="translate(161.774571 0) scale(0.996264)"/>
      <use xlink:href="#CMR17-73" transform="translate(207.465048 0) scale(0.996264)"/>
      <use xlink:href="#CMR17-69" transform="translate(243.266386 0) scale(0.996264)"/>
      <use xlink:href="#CMR17-74" transform="translate(268.137444 0) scale(0.996264)"/>
      <use xlink:href="#CMR17-6f" transform="translate(303.418212 0) scale(0.996264)"/>
      <use xlink:href="#CMR17-72" transform="translate(349.108689 0) scale(0.996264)"/>
      <use xlink:href="#CMR17-79" transform="translate(384.389457 0) scale(0.996264)"/>
      <use xlink:href="#CMR17-41" transform="translate(462.758339 0) scale(0.996264)"/>
      <use xlink:href="#CMR17-72" transform="translate(531.830769 0) scale(0.996264)"/>
      <use xlink:href="#CMR17-74" transform="translate(567.111537 0) scale(0.996264)"/>
      <use xlink:href="#CMR17-69" transform="translate(602.392304 0) scale(0.996264)"/>
      <use xlink:href="#CMR17-63" transform="translate(627.263363 0) scale(0.996264)"/>
      <use xlink:href="#CMR17-6c" transform="translate(667.749023 0) scale(0.996264)"/>
      <use xlink:href="#CMR17-65" transform="translate(692.620082 0) scale(0.996264)"/>
      <use xlink:href="#CMR17-73" transform="translate(733.105742 0) scale(0.996264)"/>
     </g>
    </g>
    <g id="patch_87">
     <path d="M 54.279643 162.778052 
L 76.279643 162.778052 
L 76.279643 155.078052 
L 54.279643 155.078052 
z
" style="fill: #17becf"/>
    </g>
    <g id="text_32">
     <!-- Specialization Monographs -->
     <g transform="translate(85.079643 162.778052) scale(0.11 -0.11)">
      <defs>
       <path id="CMR17-53" d="M 2803 4290 
C 2803 4404 2797 4411 2758 4411 
C 2720 4411 2707 4385 2682 4328 
L 2490 3907 
C 2246 4257 1875 4416 1472 4416 
C 819 4416 294 3901 294 3253 
C 294 3056 339 2776 557 2510 
C 794 2218 1018 2167 1530 2033 
C 1722 1982 2042 1899 2106 1874 
C 2470 1722 2662 1341 2662 985 
C 2662 527 2336 38 1779 38 
C 1094 38 454 419 410 1311 
C 403 1413 397 1419 352 1419 
C 301 1419 294 1413 294 1285 
L 294 -1 
C 294 -115 301 -122 339 -122 
C 384 -122 397 -90 486 108 
C 493 127 493 140 614 381 
C 934 -39 1472 -128 1779 -128 
C 2477 -128 2970 451 2970 1124 
C 2970 1454 2848 1708 2778 1823 
C 2509 2230 2221 2306 1914 2382 
C 1869 2402 1856 2402 1498 2490 
C 1152 2579 1005 2624 845 2796 
C 666 2992 602 3196 602 3399 
C 602 3812 934 4263 1478 4263 
C 2157 4263 2579 3786 2675 2993 
C 2694 2878 2701 2872 2746 2872 
C 2803 2872 2803 2891 2803 2999 
L 2803 4290 
z
" transform="scale(0.015625)"/>
       <path id="CMR17-7a" d="M 2310 2605 
C 2362 2670 2362 2682 2362 2695 
C 2362 2752 2336 2752 2221 2752 
L 275 2752 
L 211 1760 
L 326 1760 
C 371 2381 442 2650 1178 2650 
L 1958 2650 
L 128 96 
C 128 0 134 0 269 0 
L 2291 0 
L 2381 1152 
L 2266 1152 
C 2214 442 2131 115 1350 115 
L 531 115 
L 2310 2605 
z
" transform="scale(0.015625)"/>
      </defs>
      <use xlink:href="#CMR17-53" transform="scale(0.996264)"/>
      <use xlink:href="#CMR17-70" transform="translate(50.89537 0) scale(0.996264)"/>
      <use xlink:href="#CMR17-65" transform="translate(104.393178 0) scale(0.996264)"/>
      <use xlink:href="#CMR17-63" transform="translate(144.878839 0) scale(0.996264)"/>
      <use xlink:href="#CMR17-69" transform="translate(185.364499 0) scale(0.996264)"/>
      <use xlink:href="#CMR17-61" transform="translate(210.235558 0) scale(0.996264)"/>
      <use xlink:href="#CMR17-6c" transform="translate(255.926035 0) scale(0.996264)"/>
      <use xlink:href="#CMR17-69" transform="translate(280.797093 0) scale(0.996264)"/>
      <use xlink:href="#CMR17-7a" transform="translate(305.668152 0) scale(0.996264)"/>
      <use xlink:href="#CMR17-61" transform="translate(346.153812 0) scale(0.996264)"/>
      <use xlink:href="#CMR17-74" transform="translate(391.844289 0) scale(0.996264)"/>
      <use xlink:href="#CMR17-69" transform="translate(427.125057 0) scale(0.996264)"/>
      <use xlink:href="#CMR17-6f" transform="translate(451.996116 0) scale(0.996264)"/>
      <use xlink:href="#CMR17-6e" transform="translate(497.686593 0) scale(0.996264)"/>
      <use xlink:href="#CMR17-4d" transform="translate(578.657929 0) scale(0.996264)"/>
      <use xlink:href="#CMR17-6f" transform="translate(663.344869 0) scale(0.996264)"/>
      <use xlink:href="#CMR17-6e" transform="translate(709.035347 0) scale(0.996264)"/>
      <use xlink:href="#CMR17-6f" transform="translate(759.930716 0) scale(0.996264)"/>
      <use xlink:href="#CMR17-67" transform="translate(805.621193 0) scale(0.996264)"/>
      <use xlink:href="#CMR17-72" transform="translate(851.311671 0) scale(0.996264)"/>
      <use xlink:href="#CMR17-61" transform="translate(886.592438 0) scale(0.996264)"/>
      <use xlink:href="#CMR17-70" transform="translate(932.282916 0) scale(0.996264)"/>
      <use xlink:href="#CMR17-68" transform="translate(983.178285 0) scale(0.996264)"/>
      <use xlink:href="#CMR17-73" transform="translate(1034.073655 0) scale(0.996264)"/>
     </g>
    </g>
   </g>
  </g>
 </g>
 <defs>
  <clipPath id="p825417de6d">
   <rect x="44.379643" y="7.2" width="669.6" height="498.96"/>
  </clipPath>
 </defs>
</svg>
